<?xml version="1.0" encoding="UTF-8"?>
<svg width="48px" height="60px" viewBox="0 0 48 60" version="1.1" xmlns="http://www.w3.org/2000/svg" xmlns:xlink="http://www.w3.org/1999/xlink">
    <!-- Generator: sketchtool 50.2 (55047) - http://www.bohemiancoding.com/sketch -->
    <title>4B72B9CB-1EF2-4862-9445-8B04540F75BC</title>
    <desc>Created with sketchtool.</desc>
    <defs></defs>
    <g id="1360" stroke="none" stroke-width="1" fill="none" fill-rule="evenodd" stroke-linecap="round" stroke-linejoin="round">
        <g id="developers" transform="translate(-408.000000, -2603.000000)" stroke="#FFFFFF">
            <g id="benefits" transform="translate(0.000000, 1995.000000)">
                <g id="Languages" transform="translate(410.000000, 610.000000)">
                    <polygon id="Stroke-1" stroke-width="3" points="7.05609091 38.8070727 43.82 38.8070727 43.82 0.272618182 7.05609091 0.272618182"></polygon>
                    <path d="M43.82,38.8070727 C41.2796,38.8070727 39.2171273,40.8695455 39.2171273,43.4099455 C39.2171273,45.9503455 41.2795455,48.0128182 43.82,48.0128727 L31.3731091,48.0128727" id="Stroke-2" stroke-width="3"></path>
                    <path d="M21.4755859,48.0128727 L5.61876284,48.0128727 C2.58095221,48.0128727 0.114690909,45.7820182 0.114690909,43.0342909" id="Stroke-3" stroke-width="3"></path>
                    <path d="M7.05609091,0.272727273 C3.22504284,0.272727273 0.114690909,2.41598182 0.114690909,5.05598182 L0.114690909,43.5904364 C0.114690909,40.9504364 3.22504284,38.8045774 7.05609091,38.8045774 L7.05609091,0.272727273 Z" id="Stroke-4" stroke-width="3"></path>
                    <polygon id="Stroke-5" stroke-width="3" points="30.6547818 45 22 45 22 56.1314727 26.2852545 53.4100909 30.6325273 56.3002364"></polygon>
                    <path d="M13.3873818,43.3057636 L9.05609091,43.3057636" id="Stroke-6" stroke-width="3"></path>
                    <path d="M39.2182727,43.3057636 L19.5,43.3057636" id="Stroke-8" stroke-width="3"></path>
                    <polyline id="Stroke-9" stroke-width="3" points="13.5447091 24.0531818 17.5965091 14.9047636 21.5247636 24.1647818"></polyline>
                    <path d="M14.2837455,22.3845273 L20.7695818,22.3845273" id="Stroke-10" stroke-width="2"></path>
                    <polyline id="Stroke-11" stroke-width="3" points="29.5516182 14.9047636 34.8429636 14.9047636 29.0096545 24.1647818 35.0747818 24.1647818"></polyline>
                    <path d="M24.6830182,19.5348 L25.5,19.5348" id="Stroke-12" stroke-width="3"></path>
                </g>
            </g>
        </g>
    </g>
</svg>