<?xml version="1.0" encoding="UTF-8" standalone="no"?>
<!-- Created with Inkscape (http://www.inkscape.org/) -->

<svg
   xmlns:dc="http://purl.org/dc/elements/1.1/"
   xmlns:cc="http://creativecommons.org/ns#"
   xmlns:rdf="http://www.w3.org/1999/02/22-rdf-syntax-ns#"
   xmlns:svg="http://www.w3.org/2000/svg"
   xmlns="http://www.w3.org/2000/svg"
   xmlns:sodipodi="http://sodipodi.sourceforge.net/DTD/sodipodi-0.dtd"
   xmlns:inkscape="http://www.inkscape.org/namespaces/inkscape"
   width="102.99478mm"
   height="113.04306mm"
   viewBox="0 0 102.99479 113.04306"
   version="1.1"
   id="svg8"
   inkscape:version="0.92.1 r15371"
   sodipodi:docname="video-bkg-r.svg">
  <defs
     id="defs2">
    <style
       id="style4502">.cls-1{fill:#fff;}</style>
  </defs>
  <sodipodi:namedview
     id="base"
     pagecolor="#ffffff"
     bordercolor="#666666"
     borderopacity="1.0"
     inkscape:pageopacity="0.0"
     inkscape:pageshadow="2"
     inkscape:zoom="0.92156721"
     inkscape:cx="202.57856"
     inkscape:cy="144.97423"
     inkscape:document-units="mm"
     inkscape:current-layer="layer1"
     showgrid="false"
     inkscape:window-width="2560"
     inkscape:window-height="1377"
     inkscape:window-x="-8"
     inkscape:window-y="-8"
     inkscape:window-maximized="1"
     showguides="true"
     inkscape:guide-bbox="true">
    <sodipodi:guide
       position="15.216381,45.362038"
       orientation="1,0"
       id="guide4521"
       inkscape:locked="false" />
  </sodipodi:namedview>
  <metadata
     id="metadata5">
    <rdf:RDF>
      <cc:Work
         rdf:about="">
        <dc:format>image/svg+xml</dc:format>
        <dc:type
           rdf:resource="http://purl.org/dc/dcmitype/StillImage" />
        <dc:title></dc:title>
      </cc:Work>
    </rdf:RDF>
  </metadata>
  <g
     inkscape:label="Layer 1"
     inkscape:groupmode="layer"
     id="layer1"
     transform="translate(-73.73613,-107.19516)">
    <rect
       style="opacity:1;fill:#1a1a1c;fill-opacity:1;stroke:none;stroke-width:0.14986391;stroke-linecap:round;stroke-linejoin:round;stroke-miterlimit:4;stroke-dasharray:none;stroke-opacity:1"
       id="rect4496"
       width="113.04306"
       height="102.99478"
       x="107.19516"
       y="-176.73091"
       transform="rotate(90)" />
    <g
       id="g4515"
       transform="matrix(0.9771512,0,0,0.9771512,3.0600744,8.5169408)">
      <g
         transform="matrix(0.47630834,0,0,0.47630834,115.0305,149.30263)"
         id="Layer_2"
         data-name="Layer 2">
        <g
           id="Layer_1-2"
           data-name="Layer 1">
          <g
             id="Canvas">
            <g
               id="coursor_copy_3"
               data-name="coursor copy 3">
              <path
                 style="fill:#ffffff"
                 inkscape:connector-curvature="0"
                 id="path0_stroke"
                 data-name="path0 stroke"
                 class="cls-1"
                 d="m 39.61,25.27 0.87,0.49 v 0 z m 0,-10.53 0.87,-0.49 v 0 z M 34.8,6.27 33.93,6.76 v 0 z M 7.2,6.27 6.33,5.78 v 0 z m -4.81,8.46 0.87,0.49 v 0 z m 0,10.53 0.87,-0.49 v 0 z m 4.81,8.47 -0.87,0.49 v 0 z m 27.59,0 -0.87,-0.49 v 0 z m 5.68,-8 a 11.68,11.68 0 0 0 0,-11.52 l -1.74,1 a 9.68,9.68 0 0 1 0,9.54 z m 0,-11.52 -2.4,-4.21 -2.4,-4.23 -1.74,1 2.4,4.23 2.41,4.23 z M 35.67,5.77 A 11.34,11.34 0 0 0 25.81,0 v 2 a 9.34,9.34 0 0 1 8.11,4.76 z M 25.81,0 h -9.62 v 2 h 9.63 z M 16.19,0 A 11.34,11.34 0 0 0 6.33,5.77 l 1.74,1 A 9.34,9.34 0 0 1 16.19,2 Z M 6.33,5.77 3.93,10 1.52,14.24 3.26,15.24 5.67,11 8.07,6.76 Z m -4.81,8.47 a 11.67,11.67 0 0 0 0,11.52 l 1.74,-1 a 9.67,9.67 0 0 1 0,-9.54 z m 0,11.52 2.41,4.24 2.41,4.23 1.74,-1 L 5.67,29 3.26,24.77 Z m 4.81,8.47 A 11.34,11.34 0 0 0 16.19,40 V 38 A 9.34,9.34 0 0 1 8.08,33.24 Z M 16.19,40 h 9.63 v -2 h -9.63 z m 9.63,0 a 11.34,11.34 0 0 0 9.85,-5.77 l -1.74,-1 A 9.34,9.34 0 0 1 25.81,38 Z m 9.85,-5.77 2.4,-4.23 2.41,-4.23 -1.74,-1 -2.41,4.23 -2.41,4.23 z" />
            </g>
          </g>
        </g>
      </g>
      <path
         inkscape:connector-curvature="0"
         id="path4525"
         d="m 123.71484,155.45703 v 0.75 5.72461 l 4.88086,-3.1543 z m 0.79297,1.5 2.65039,1.80274 -2.65039,1.71289 z"
         style="color:#000000;font-style:normal;font-variant:normal;font-weight:normal;font-stretch:normal;font-size:medium;line-height:normal;font-family:sans-serif;font-variant-ligatures:normal;font-variant-position:normal;font-variant-caps:normal;font-variant-numeric:normal;font-variant-alternates:normal;font-feature-settings:normal;text-indent:0;text-align:start;text-decoration:none;text-decoration-line:none;text-decoration-style:solid;text-decoration-color:#000000;letter-spacing:normal;word-spacing:normal;text-transform:none;writing-mode:lr-tb;direction:ltr;text-orientation:mixed;dominant-baseline:auto;baseline-shift:baseline;text-anchor:start;white-space:normal;shape-padding:0;clip-rule:nonzero;display:inline;overflow:visible;visibility:visible;opacity:1;isolation:auto;mix-blend-mode:normal;color-interpolation:sRGB;color-interpolation-filters:linearRGB;solid-color:#000000;solid-opacity:1;vector-effect:none;fill:#ffffff;fill-opacity:1;fill-rule:nonzero;stroke:none;stroke-width:0.79374999;stroke-linecap:butt;stroke-linejoin:miter;stroke-miterlimit:4;stroke-dasharray:none;stroke-dashoffset:0;stroke-opacity:1;color-rendering:auto;image-rendering:auto;shape-rendering:auto;text-rendering:auto;enable-background:accumulate" />
    </g>
    <text
       xml:space="preserve"
       style="font-style:normal;font-variant:normal;font-weight:normal;font-stretch:normal;font-size:5.64444444px;line-height:1.25;font-family:'Graphik LC Web';-inkscape-font-specification:'Graphik LC Web, Normal';font-variant-ligatures:normal;font-variant-caps:normal;font-variant-numeric:normal;font-feature-settings:normal;text-align:start;letter-spacing:0px;word-spacing:0px;writing-mode:lr;text-anchor:start;fill:#ffffff;fill-opacity:1;stroke:none;stroke-width:0.26458332;"
       x="89.526711"
       y="193.53778"
       id="text4519"><tspan
         sodipodi:role="line"
         id="tspan4517"
         x="89.526711"
         y="193.53778"
         style="font-style:normal;font-variant:normal;font-weight:normal;font-stretch:normal;font-size:5.64444444px;font-family:'Graphik LC Web';-inkscape-font-specification:'Graphik LC Web, Normal';font-variant-ligatures:normal;font-variant-caps:normal;font-variant-numeric:normal;font-feature-settings:normal;text-align:start;writing-mode:lr;text-anchor:start;fill:#ffffff;stroke-width:0.26458332;">Video</tspan></text>
    <text
       xml:space="preserve"
       style="font-style:normal;font-variant:normal;font-weight:800;font-stretch:normal;font-size:8.46666667px;line-height:1.25;font-family:Gilroy;-inkscape-font-specification:'Gilroy, Ultra-Bold';font-variant-ligatures:normal;font-variant-caps:normal;font-variant-numeric:normal;font-feature-settings:normal;text-align:start;letter-spacing:0px;word-spacing:0px;writing-mode:lr;text-anchor:start;fill:#ffffff;fill-opacity:1;stroke:none;stroke-width:0.26458332;"
       x="88.952507"
       y="203.01213"
       id="text4525"><tspan
         sodipodi:role="line"
         id="tspan4523"
         x="88.952507"
         y="203.01213"
         style="stroke-width:0.26458332;fill:#ffffff;-inkscape-font-specification:'Gilroy, Ultra-Bold';font-family:Gilroy;font-weight:800;font-style:normal;font-stretch:normal;font-variant:normal;font-size:8.46666667px;text-anchor:start;text-align:start;writing-mode:lr;font-variant-ligatures:normal;font-variant-caps:normal;font-variant-numeric:normal;font-feature-settings:normal;">How to install</tspan></text>
  </g>
</svg>
