<?xml version="1.0" encoding="UTF-8" standalone="no"?>
<!DOCTYPE svg PUBLIC "-//W3C//DTD SVG 1.1//EN" "http://www.w3.org/Graphics/SVG/1.1/DTD/svg11.dtd">
<svg width="100%" height="100%" viewBox="0 0 512 510" version="1.1" xmlns="http://www.w3.org/2000/svg" xmlns:xlink="http://www.w3.org/1999/xlink" xml:space="preserve" xmlns:serif="http://www.serif.com/" style="fill-rule:evenodd;clip-rule:evenodd;stroke-linejoin:round;stroke-miterlimit:1.41421;">
    <g transform="matrix(0.568889,0,0,0.568889,-1476.12,-81.5578)">
        <g transform="matrix(1,0,0,0.985352,2594.75,296)">
            <path d="M900,70.607C900,31.638 868.825,0 830.427,0L69.573,0C31.175,0 0,31.638 0,70.607L0,529.393C0,568.362 31.175,600 69.573,600L830.427,600C868.825,600 900,568.362 900,529.393L900,70.607Z" style="fill:rgb(222,41,16);"/>
        </g>
        <g id="s" transform="matrix(3,0,0,3,2744.75,446)">
            <path d="M0,-30L17.634,24.271L-28.532,-9.271L28.532,-9.271L-17.634,24.271L0,-30Z" style="fill:rgb(255,222,0);fill-rule:nonzero;"/>
        </g>
        <g id="s1" serif:id="s" transform="matrix(0.920258,0.391313,-0.391313,0.920258,2894.75,356)">
            <path d="M0,-30L17.634,24.271L-28.532,-9.271L28.532,-9.271L-17.634,24.271L0,-30Z" style="fill:rgb(255,222,0);fill-rule:nonzero;"/>
        </g>
        <g id="s2" serif:id="s" transform="matrix(0.69629,0.717761,-0.717761,0.69629,2954.75,416)">
            <path d="M0,-30L17.634,24.271L-28.532,-9.271L28.532,-9.271L-17.634,24.271L0,-30Z" style="fill:rgb(255,222,0);fill-rule:nonzero;"/>
        </g>
        <g id="s3" serif:id="s" transform="matrix(0.342916,0.939366,-0.939366,0.342916,2954.75,506)">
            <path d="M0,-30L17.634,24.271L-28.532,-9.271L28.532,-9.271L-17.634,24.271L0,-30Z" style="fill:rgb(255,222,0);fill-rule:nonzero;"/>
        </g>
        <g id="s4" serif:id="s" transform="matrix(0.935692,0.352819,-0.352819,0.935692,2894.75,566)">
            <path d="M0,-30L17.634,24.271L-28.532,-9.271L28.532,-9.271L-17.634,24.271L0,-30Z" style="fill:rgb(255,222,0);fill-rule:nonzero;"/>
        </g>
    </g>
</svg>
