<svg xmlns="http://www.w3.org/2000/svg" viewBox="0 0 512 512" enable-background="new 0 0 512 512"><path d="M397.736 78.378c6.824 0 12.358-5.533 12.358-12.358V27.027C410.094 12.125 397.977 0 383.08 0H121.64c-3.276 0-6.42 1.303-8.738 3.62L10.527 105.995c-2.317 2.317-3.62 5.46-3.62 8.738v370.24C6.907 499.874 19.032 512 33.935 512H383.08c14.896 0 27.013-12.125 27.013-27.027V296.29c0-6.825-5.532-12.36-12.357-12.36-6.824 0-12.358 5.534-12.358 12.36v188.683c0 1.274-1.03 2.31-2.297 2.31H33.937c-1.274 0-2.31-1.036-2.31-2.31v-357.88h75.36c14.897 0 27.015-12.12 27.015-27.017v-75.36h249.08c1.267 0 2.297 1.037 2.297 2.31V66.02c0 6.825 5.534 12.358 12.36 12.358zm-288.45 21.697c0 1.27-1.033 2.3-2.3 2.3h-57.88l60.18-60.18v57.88zM492.865 100.396l-14.54-14.54c-16.305-16.303-42.833-16.3-59.14 0L303.764 201.28H103.56c-6.826 0-12.36 5.533-12.36 12.358s5.534 12.358 12.36 12.358h175.487l-74.38 74.38H103.56c-6.826 0-12.36 5.532-12.36 12.357s5.534 12.358 12.36 12.358h76.39l-.198.2c-1.508 1.508-2.598 3.38-3.17 5.433l-19.087 68.747H103.56c-6.826 0-12.36 5.533-12.36 12.358s5.534 12.358 12.36 12.358h63.33c.002 0 2.71-.306 3.108-.41l77.997-21.642c2.054-.57 3.926-1.662 5.433-3.17L492.866 159.53c16.302-16.302 16.302-42.83 0-59.134zm-308.22 293.677l10.086-36.326 26.24 26.24-36.326 10.086zm60.045-21.32l-38.72-38.722 197.647-197.647 38.722 38.72-197.65 197.65zm230.697-230.7l-15.57 15.572-38.723-38.722 15.57-15.57c6.67-6.67 17.518-6.668 24.182 0l14.54 14.54c6.668 6.667 6.668 17.515 0 24.18z" fill="#fff"/></svg>