<svg xmlns="http://www.w3.org/2000/svg" viewBox="0 0 57 57" enable-background="new 0 0 57 57"><g fill="#fff"><path d="M55.188 41.863l-1.444-.277c-.677-.13-1.21-.573-1.462-1.216-.253-.642-.163-1.33.245-1.885l.907-1.236c.292-.4.25-.95-.1-1.3l-1.96-1.958c-.338-.338-.87-.39-1.267-.12l-1.217.823c-.57.39-1.262.45-1.895.175-.632-.275-1.055-.825-1.16-1.508l-.233-1.515c-.074-.487-.494-.847-.987-.847h-2.77c-.48 0-.892.34-.982.812l-.358 1.865c-.127.662-.558 1.19-1.18 1.448-.626.26-1.302.19-1.86-.19l-1.573-1.063c-.397-.268-.93-.217-1.268.12l-1.96 1.96c-.35.348-.39.9-.1 1.298l.908 1.236c.408.556.498 1.243.245 1.885-.252.644-.785 1.087-1.462 1.217l-1.444.277c-.47.09-.81.502-.81.982v2.77c0 .493.36.913.848.988l1.515.233c.683.105 1.232.528 1.508 1.16.277.633.213 1.323-.174 1.895l-.824 1.217c-.27.395-.218.928.12 1.267l1.96 1.96c.347.348.898.39 1.298.1l1.236-.908c.555-.41 1.244-.498 1.885-.246.644.252 1.087.785 1.217 1.462l.277 1.444c.09.47.502.81.982.81h2.77c.493 0 .913-.36.988-.848l.164-1.065c.105-.688.552-1.256 1.193-1.522.645-.266 1.362-.18 1.922.232l.87.638c.4.293.95.25 1.298-.1l1.958-1.96c.34-.338.39-.87.12-1.267l-.823-1.217c-.387-.57-.45-1.26-.175-1.894.275-.632.825-1.055 1.508-1.16l1.515-.233c.487-.075.847-.495.847-.988v-2.77c0-.48-.34-.89-.812-.982zM54 44.758l-.667.103c-1.354.21-2.49 1.083-3.036 2.338-.548 1.256-.416 2.682.352 3.815l.36.533-.768.768-.177-.13c-1.13-.827-2.575-1.002-3.87-.467-1.293.536-2.19 1.682-2.404 3.065L43.76 55h-1.086l-.12-.633c-.26-1.346-1.176-2.447-2.45-2.947-1.275-.498-2.695-.314-3.8.494l-.544.4-.768-.77.36-.532c.77-1.134.9-2.56.353-3.815s-1.683-2.13-3.036-2.337L32 44.758v-1.086l.633-.12c1.346-.26 2.447-1.176 2.947-2.45.5-1.275.315-2.695-.494-3.8l-.4-.544.77-.768.888.602c1.107.752 2.51.893 3.747.38 1.238-.512 2.128-1.603 2.38-2.918L42.673 33h1.086l.103.667c.21 1.354 1.083 2.49 2.338 3.036 1.256.547 2.682.416 3.815-.352l.533-.36.768.768-.4.544c-.81 1.104-.993 2.524-.493 3.8.5 1.274 1.603 2.19 2.948 2.45l.632.12v1.086zM43 39c-2.757 0-5 2.243-5 5s2.243 5 5 5 5-2.243 5-5-2.243-5-5-5zm0 8c-1.654 0-3-1.346-3-3s1.346-3 3-3 3 1.346 3 3-1.346 3-3 3zM26 41c-.827 0-1.637-.016-2.432-.044-.486-.018-.955-.05-1.43-.077-.292-.018-.594-.03-.882-.05-.63-.045-1.242-.104-1.847-.167-.115-.012-.234-.02-.347-.032-.693-.075-1.368-.162-2.026-.258l-.05-.007c-3.386-.5-6.29-1.263-8.562-2.17-.012-.003-.024-.008-.036-.013-.42-.168-.813-.342-1.187-.52l-.132-.06c-.335-.163-.646-.33-.944-.498-.07-.04-.144-.08-.212-.12-.26-.152-.495-.307-.72-.463-.087-.06-.176-.12-.258-.18-.19-.14-.362-.282-.526-.425-.09-.08-.178-.157-.26-.236-.134-.13-.252-.262-.363-.393-.078-.092-.153-.185-.22-.277-.087-.123-.162-.246-.23-.37-.053-.098-.1-.197-.142-.296-.05-.12-.088-.242-.116-.362-.04-.16-.08-.32-.08-.482v-8.207c.028.026.063.05.092.077.22.19.44.382.69.566C7.55 28.786 15.082 31 26 31c10.873 0 18.386-2.196 22.17-5.028.3-.22.573-.447.83-.678V29c0 .553.447 1 1 1s1-.447 1-1V9c0-.182-.062-.343-.146-.49C49.696 4.22 41.077 0 26 0S2.303 4.22 1.146 8.51C1.062 8.657 1 8.818 1 9v37c0 .16.042.313.115.448 1.14 4.833 10.69 7.68 19.81 8.364.025.002.05.003.076.003.52 0 .958-.4.997-.925.04-.55-.37-1.03-.922-1.072-11.114-.834-17.59-4.218-18.043-6.98-.008-.045-.018-.088-.032-.13v-8.415c.028.026.063.05.092.077.22.19.44.382.69.566C7.55 40.786 15.082 43 26 43c.553 0 1-.447 1-1s-.447-1-1-1zM3.6 13.797c.3.236.625.47.976.696.073.047.155.093.23.14.295.183.606.362.933.538.12.066.24.13.367.194.365.186.748.366 1.15.542.067.03.127.06.193.087.47.2.967.39 1.486.572.143.05.293.1.44.15.412.138.838.27 1.28.4.158.046.314.094.477.14.585.16 1.19.315 1.823.457.087.02.18.037.27.056.558.122 1.138.235 1.734.34.202.036.407.07.613.104.567.093 1.15.18 1.75.257l.457.06c.744.09 1.513.168 2.305.234.195.016.398.028.596.042.634.046 1.28.084 1.943.114.24.01.48.022.727.03.862.03 1.74.05 2.65.05s1.788-.02 2.65-.05c.245-.008.485-.02.727-.03.662-.03 1.31-.068 1.942-.114.197-.015.4-.026.595-.042.79-.065 1.56-.143 2.305-.233.156-.018.303-.04.457-.06.6-.08 1.182-.165 1.75-.258.206-.034.41-.068.613-.104.596-.105 1.176-.218 1.735-.34.088-.02.182-.036.27-.056.633-.142 1.237-.296 1.822-.458.163-.045.32-.092.478-.14.44-.127.867-.26 1.28-.4.146-.05.296-.098.44-.15.517-.183 1.016-.373 1.485-.57.067-.03.127-.06.192-.088.403-.176.786-.356 1.15-.542.126-.064.248-.128.37-.193.326-.174.637-.353.93-.537.077-.047.16-.093.232-.14.35-.227.675-.46.975-.696.074-.06.14-.12.213-.18.13-.108.267-.215.387-.324V21.5c0 .16-.04.323-.08.485-.027.12-.066.24-.115.362-.04.1-.09.198-.143.297-.067.123-.142.246-.23.37-.066.09-.14.184-.22.276-.11.13-.228.262-.362.392-.08.08-.17.157-.26.236-.164.143-.335.285-.526.426-.082.06-.17.12-.257.18-.226.156-.462.31-.72.463l-.213.12c-.297.168-.61.334-.945.497-.044.02-.09.04-.133.062-.375.177-.767.35-1.186.52l-.035.013c-2.27.906-5.176 1.67-8.56 2.168l-.052.007c-.658.097-1.333.184-2.026.26l-.346.03c-.604.064-1.217.122-1.846.168-.288.02-.59.032-.883.05-.473.027-.942.058-1.428.076-.795.024-1.605.04-2.432.04s-1.637-.016-2.432-.044c-.486-.018-.955-.05-1.43-.077-.292-.018-.594-.03-.882-.05-.63-.045-1.242-.104-1.847-.167-.115-.012-.234-.02-.347-.032-.693-.075-1.368-.162-2.026-.258l-.05-.007c-3.386-.5-6.29-1.263-8.562-2.17-.012-.003-.024-.008-.036-.013-.42-.168-.813-.342-1.187-.52l-.132-.06c-.335-.163-.646-.33-.944-.498-.07-.04-.144-.08-.212-.12-.26-.152-.495-.307-.72-.463-.087-.06-.176-.12-.258-.18-.19-.14-.362-.282-.526-.425-.09-.08-.178-.157-.26-.236-.134-.13-.252-.262-.363-.393-.078-.092-.153-.185-.22-.277-.087-.123-.162-.246-.23-.37-.053-.098-.1-.197-.142-.296-.05-.12-.088-.242-.116-.362-.04-.16-.08-.32-.08-.482v-8.207c.12.11.257.216.387.324.072.06.14.12.214.18zM26 2c13.555 0 23 3.952 23 7.5S39.555 17 26 17 3 13.048 3 9.5 12.445 2 26 2z"/></g></svg>