<svg xmlns="http://www.w3.org/2000/svg" viewBox="0 0 57.38 51.47"><defs><style>.cls-1{fill:#ffffff;}</style></defs><title>i2</title><g id="Layer_1-2"><path class="cls-1" d="M52.37 0H40.19a1.26 1.26 0 0 0 0 2.52h12.18A2.5 2.5 0 0 1 54.87 5v31.34a2.5 2.5 0 0 1-2.5 2.5H5a2.5 2.5 0 0 1-2.5-2.5V5A2.5 2.5 0 0 1 5 2.52h36.4a1.26 1.26 0 0 0 0-2.52H5a5 5 0 0 0-5 5v31.34a5 5 0 0 0 5 5h22.43v7.58H17a1.26 1.26 0 1 0 0 2.52h23.42a1.26 1.26 0 1 0 0-2.52H29.94v-7.56h22.42a5 5 0 0 0 5-5V5a5 5 0 0 0-4.99-5zM40.4 17.92l-1.83-.31a10.34 10.34 0 0 0-.74-1.78l1.08-1.51a1.61 1.61 0 0 0-.17-2.08l-1.62-1.62a1.6 1.6 0 0 0-1.12-.47 1.58 1.58 0 0 0-.93.3l-1.52 1.08a10.24 10.24 0 0 0-1.84-.76L31.38 9a1.61 1.61 0 0 0-1.59-1.35h-2.3A1.61 1.61 0 0 0 25.9 9l-.32 1.85a10.09 10.09 0 0 0-1.77.75l-1.5-1.08a1.61 1.61 0 0 0-2.08.17l-1.63 1.59a1.61 1.61 0 0 0-.17 2.08l1.09 1.53a10.1 10.1 0 0 0-.73 1.78L17 18a1.61 1.61 0 0 0-1.35 1.59v2.3A1.61 1.61 0 0 0 17 23.46l1.85.32a10.09 10.09 0 0 0 .75 1.77L18.51 27a1.61 1.61 0 0 0 .17 2.08l1.62 1.62a1.6 1.6 0 0 0 1.14.47 1.58 1.58 0 0 0 .93-.3l1.53-1.09a10.32 10.32 0 0 0 1.72.71l.31 1.83a1.61 1.61 0 0 0 1.59 1.35h2.3a1.61 1.61 0 0 0 1.59-1.35l.31-1.83a10.34 10.34 0 0 0 1.78-.74l1.5 1.13a1.6 1.6 0 0 0 .94.3 1.6 1.6 0 0 0 1.14-.47l1.62-1.62a1.61 1.61 0 0 0 .2-2.09l-1.08-1.52a10.27 10.27 0 0 0 .74-1.78l1.83-.31a1.61 1.61 0 0 0 1.35-1.59v-2.3a1.59 1.59 0 0 0-1.34-1.58zm-.13 3.89a.14.14 0 0 1-.12.14l-2.29.38a.73.73 0 0 0-.59.54 8.73 8.73 0 0 1-.95 2.28.74.74 0 0 0 0 .8l1.35 1.9a.15.15 0 0 1 0 .19l-1.62 1.62a.14.14 0 0 1-.1 0 .13.13 0 0 1-.08 0L34 28.34a.74.74 0 0 0-.8 0 8.73 8.73 0 0 1-2.28.95.72.72 0 0 0-.54.59L30 32.13a.14.14 0 0 1-.14.12h-2.3a.14.14 0 0 1-.14-.12L27 29.84a.73.73 0 0 0-.54-.59 9.06 9.06 0 0 1-2.24-.92.75.75 0 0 0-.37-.1.72.72 0 0 0-.43.14l-1.91 1.36h-.08a.15.15 0 0 1-.1 0l-1.62-1.62a.15.15 0 0 1 0-.19L21.05 26a.75.75 0 0 0 0-.81 8.65 8.65 0 0 1-1-2.28.75.75 0 0 0-.59-.54L17.23 22a.14.14 0 0 1-.12-.14v-2.3a.14.14 0 0 1 .12-.14L19.5 19a.74.74 0 0 0 .59-.55 8.72 8.72 0 0 1 .91-2.24.73.73 0 0 0 0-.8l-1.37-1.91a.15.15 0 0 1 0-.19l1.62-1.62a.14.14 0 0 1 .1 0 .13.13 0 0 1 .08 0L23.34 13a.75.75 0 0 0 .81 0 8.65 8.65 0 0 1 2.28-1 .75.75 0 0 0 .57-.5l.39-2.31a.14.14 0 0 1 .14-.12h2.3a.14.14 0 0 1 .14.12l.38 2.27a.74.74 0 0 0 .55.59 8.85 8.85 0 0 1 2.34 1 .74.74 0 0 0 .8 0l1.88-1.35H36a.15.15 0 0 1 .1 0l1.62 1.62a.15.15 0 0 1 0 .19l-1.35 1.89a.74.74 0 0 0 0 .8 8.73 8.73 0 0 1 .95 2.28.72.72 0 0 0 .59.54l2.29.39a.14.14 0 0 1 .12.14v2.3zM28.69 15a5.63 5.63 0 1 0 5.63 5.63A5.64 5.64 0 0 0 28.69 15zm0 9.79a4.16 4.16 0 1 1 4.16-4.16 4.16 4.16 0 0 1-4.16 4.19z"/></g></svg>