<svg xmlns="http://www.w3.org/2000/svg" viewBox="0 0 496 496" enable-background="new 0 0 496 496"><g fill="#fff"><path d="M464 112.808v-36.12L387.312 0H160v112H40c-22.056 0-40 17.944-40 40v256c0 22.056 17.944 40 40 40h96v32h-32v16h288v-16h-32v-32h96c22.056 0 40-17.944 40-40V152c0-19.312-13.768-35.472-32-39.192zm-80-93.496L444.688 80H384V19.312zM176 16h192v80h80v256H176V16zm168 464H152v-32h192v32zm136-72c0 13.232-10.768 24-24 24H40c-13.232 0-24-10.768-24-24v-8h464v8zm0-24H16V152c0-13.232 10.768-24 24-24h120v240h304V129.472c9.288 3.312 16 12.112 16 22.528v232zM144 200c0-30.872-25.128-56-56-56s-56 25.128-56 56 25.128 56 56 56 56-25.128 56-56zm-48-16c0 4.416-3.584 8-8 8s-8-3.584-8-8 3.584-8 8-8 8 3.584 8 8zm-8 56c-5.56 0-10.856-1.152-15.672-3.216C73.816 229.504 80.28 224 88 224c7.72 0 14.184 5.504 15.672 12.784C98.856 238.848 93.56 240 88 240zm0-32c-13.056 0-24.264 7.872-29.232 19.104C52.144 219.96 48 210.48 48 200c0-20.4 15.408-37.096 35.168-39.512C72.24 162.728 64 172.424 64 184c0 13.232 10.768 24 24 24s24-10.768 24-24c0-11.576-8.24-21.272-19.168-23.512C112.592 162.904 128 179.6 128 200c0 10.48-4.144 19.96-10.768 27.104C112.264 215.872 101.056 208 88 208zM32 312c0 30.872 25.128 56 56 56s56-25.128 56-56-25.128-56-56-56-56 25.128-56 56zm56 40c-5.56 0-10.856-1.152-15.672-3.216C73.816 341.504 80.28 336 88 336c7.72 0 14.184 5.504 15.672 12.784C98.856 350.848 93.56 352 88 352zm8-56c0 4.416-3.584 8-8 8s-8-3.584-8-8 3.584-8 8-8 8 3.584 8 8zm-12.832-23.512C72.24 274.728 64 284.424 64 296c0 13.232 10.768 24 24 24s24-10.768 24-24c0-11.576-8.24-21.272-19.168-23.512C112.592 274.904 128 291.6 128 312c0 10.48-4.144 19.96-10.768 27.104C112.264 327.872 101.056 320 88 320c-13.056 0-24.264 7.872-29.232 19.104C52.144 331.96 48 322.48 48 312c0-20.4 15.408-37.096 35.168-39.512zM288 63.312V48h-80v80h80V82.968l28.648-20.464-9.296-13.016L288 63.312zm-16 11.432l-15.136 10.808-11.208-11.208-11.312 11.312 20.792 20.792L272 94.4V112h-48V64h48v10.744zM288 159.312V144h-80v80h80v-45.032l28.648-20.464-9.296-13.016L288 159.312zm-16 11.432l-15.136 10.808-11.208-11.208-11.312 11.312 20.792 20.792L272 190.4V208h-48v-48h48v10.744zM288 255.312V240h-80v80h80v-45.032l28.648-20.464-9.296-13.008L288 255.312zm-16 11.432l-15.136 10.808-11.208-11.208-11.312 11.312 20.792 20.792L272 286.4V304h-48v-48h48v10.744zM320 112h96v16h-96zM320 208h96v16h-96zM320 304h96v16h-96zM320 272h96v16h-96zM320 176h96v16h-96zM320 80h32v16h-32z"/></g></svg>