<svg xmlns="http://www.w3.org/2000/svg" width="178" height="109"><path fill-rule="evenodd" fill="#fff" d="M144.424 50.673c-11.218 0-20.343-9.06-20.343-20.2 0-11.142 9.126-20.204 20.344-20.204 11.217 0 20.343 9.06 20.343 20.202 0 11.14-9.126 20.2-20.343 20.2zm0-32.326c-6.733 0-12.21 5.44-12.21 12.125 0 6.688 5.477 12.126 12.21 12.126 6.733 0 12.21-5.438 12.21-12.126 0-6.685-5.477-12.125-12.21-12.125zM89 52.134c-14.444 0-26.194-11.667-26.194-26.01C62.806 11.778 74.556.11 89 .11c14.442 0 26.192 11.67 26.192 26.013 0 14.344-11.75 26.01-26.193 26.01zm0-43.946c-9.96 0-18.06 8.046-18.06 17.935 0 9.89 8.1 17.934 18.06 17.934 9.957 0 18.058-8.043 18.058-17.934 0-9.89-8.1-17.935-18.06-17.935zM33.573 50.673c-11.216 0-20.343-9.06-20.343-20.2 0-11.142 9.127-20.204 20.344-20.204 11.218 0 20.344 9.06 20.344 20.202 0 11.14-9.126 20.2-20.344 20.2zm0-32.326c-6.733 0-12.21 5.44-12.21 12.125 0 6.688 5.477 12.126 12.21 12.126 6.733 0 12.21-5.438 12.21-12.126 0-6.685-5.477-12.125-12.21-12.125zm0 40.405c5.52 0 10.995 1.362 15.83 3.94 1.98 1.053 2.724 3.5 1.662 5.465-1.06 1.965-3.525 2.708-5.505 1.65-3.657-1.946-7.802-2.976-11.985-2.976-12.64 0-23.157 9.205-25.11 21.22h25.47c2.247 0 4.067 1.808 4.067 4.038 0 2.23-1.82 4.04-4.066 4.04H4.074c-2.246 0-4.067-1.81-4.067-4.04 0-18.38 15.058-33.336 33.568-33.336zM89 60.212c24.355 0 44.17 19.68 44.17 43.867 0 2.232-1.82 4.038-4.068 4.038H48.896c-2.246 0-4.066-1.806-4.066-4.04 0-24.187 19.814-43.866 44.17-43.866zm35.808 39.827c-2.026-17.84-17.313-31.75-35.81-31.75-18.495 0-33.78 13.91-35.807 31.75h71.618zm19.616-11.99h25.11c-1.953-12.014-12.47-21.22-25.11-21.22-4.184 0-8.33 1.03-11.99 2.978-1.98 1.057-4.443.314-5.504-1.65-1.062-1.963-.317-4.413 1.662-5.466 4.837-2.578 10.312-3.94 15.832-3.94 18.51 0 33.568 14.957 33.568 33.336 0 2.23-1.82 4.04-4.067 4.04h-29.5c-2.248 0-4.068-1.81-4.068-4.04s1.82-4.038 4.067-4.038z"/></svg>