<svg xmlns="http://www.w3.org/2000/svg" viewBox="0 0 512 512" enable-background="new 0 0 512 512"><path fill="#fff" d="M470.573 369.837c-1.95-5.285-7.815-7.988-13.1-6.038L351.4 402.937c-5.284 1.95-7.987 7.815-6.037 13.1 1.52 4.12 5.42 6.67 9.57 6.67 1.172 0 2.365-.203 3.53-.632l106.072-39.14c5.285-1.95 7.988-7.814 6.038-13.1zM335.337 419.738c-1.95-5.286-7.815-7.99-13.1-6.04l-4.492 1.658c-5.284 1.95-7.988 7.815-6.038 13.1 1.52 4.12 5.42 6.67 9.57 6.67 1.172 0 2.365-.203 3.53-.632l4.492-1.657c5.283-1.95 7.987-7.814 6.037-13.1zM470.573 328.276c-1.95-5.285-7.815-7.986-13.1-6.038l-83.825 30.93c-5.285 1.95-7.988 7.815-6.038 13.1 1.52 4.12 5.42 6.67 9.57 6.67 1.172 0 2.365-.203 3.53-.632l83.825-30.93c5.285-1.95 7.988-7.815 6.038-13.1zM470.573 287.147c-1.95-5.285-7.815-7.986-13.1-6.038l-83.825 30.93c-5.285 1.95-7.988 7.814-6.038 13.1 1.52 4.12 5.42 6.67 9.57 6.67 1.172 0 2.365-.204 3.53-.633l83.825-30.93c5.285-1.95 7.988-7.815 6.038-13.1zM505.332 100.528l-245.8-90.696c-2.28-.84-4.784-.84-7.062 0L6.67 100.528l-.003.008c-.805.298-1.58.692-2.3 1.193C1.632 103.636 0 106.76 0 110.096v291.806c0 4.27 2.66 8.09 6.668 9.57l245.8 90.695c1.147.423 2.342.63 3.53.63 1.202 0 2.397-.218 3.53-.636l.003.006 245.802-90.696c4.007-1.48 6.668-5.297 6.668-9.57V110.098c0-4.272-2.66-8.09-6.668-9.57zm-259.53 377.437l-225.404-83.17V124.732l45.896 16.936v123.578c0 4.27 2.66 8.09 6.668 9.57l110.15 40.644c1.147.423 2.342.63 3.53.63 2.06 0 4.1-.623 5.834-1.832 2.736-1.907 4.367-5.032 4.367-8.367V189.84l48.956 18.064v270.063zM176.445 182.31v108.944l-89.753-33.118V149.193l89.753 33.118zm-70.49-47.833l80.69-29.773 80.687 29.773-80.688 29.773-80.688-29.773zM256 189.922l-40-14.76 84.328-31.117c4.007-1.48 6.668-5.297 6.668-9.57s-2.66-8.09-6.668-9.568L190.176 84.263c-2.28-.84-4.782-.84-7.062 0l-106.73 39.384-36.72-13.55L256 30.273l216.337 79.825L256 189.922zm235.602 204.873L266.2 477.965V207.9l225.402-83.17v270.063z"/></svg>