<svg xmlns="http://www.w3.org/2000/svg" viewBox="0 0 512.032 512.032" enable-background="new 0 0 512.032 512.032"><path fill="#fff" d="M512.016 294.048c0-24.562-12.906-46.102-32.28-58.227 7.968-11.202 12.67-24.905 12.67-39.702 0-22.21-10.577-41.945-26.952-54.46 2.656-7.65 4.094-15.868 4.094-24.415 0-41.29-33.47-74.766-74.78-74.766-8.345 0-16.376 1.375-23.876 3.906C363.236 19.603 338.58 0 309.362 0c-22.282 0-41.876 11.375-53.345 28.617C244.547 11.375 224.947 0 202.68 0c-29.233 0-53.882 19.602-61.538 46.383-7.5-2.53-15.53-3.906-23.89-3.906-41.29 0-74.76 33.477-74.76 74.766 0 8.547 1.44 16.766 4.087 24.414-16.384 12.516-26.954 32.25-26.954 54.46 0 14.798 4.695 28.5 12.672 39.704C12.914 247.948.016 269.487.016 294.05c0 21.312 9.727 40.375 24.992 52.953-2.383 8.36-3.656 17.204-3.656 26.33 0 52.53 42.195 95.218 94.54 96 13.405 25.39 40.077 42.702 70.788 42.702 29.64 0 55.516-16.11 69.336-40.078 13.812 23.97 39.688 40.078 69.344 40.078 30.703 0 57.375-17.312 70.78-42.703 52.345-.782 94.532-43.47 94.532-96 0-9.126-1.266-17.97-3.656-26.33 15.266-12.577 25-31.64 25-52.952zM245.352 170.673h-.016c-.164 5.742-4.875 10.367-10.656 10.367-5.89 0-10.664 4.78-10.664 10.672s4.773 10.664 10.664 10.664c3.742 0 7.328-.648 10.672-1.828v87.47c0 17.624-14.36 31.983-32 31.983-5.89 0-10.672 4.782-10.672 10.673s4.78 10.656 10.672 10.656c12.008 0 23.086-3.97 32-10.657v101.36c0 32.343-26.32 58.672-58.672 58.672-32.344 0-58.664-26.328-58.664-58.672 0-16.39 7.203-31.688 18.086-42.344 2-1.94 3.25-4.642 3.25-7.657 0-5.89-4.78-10.672-10.672-10.672-2.906 0-5.547 1.19-7.47 3.063-15.57 14.594-24.53 34.594-24.53 57.61 0 5.266.516 10.422 1.492 15.422-16.47-2-31.703-9.406-43.617-21.312-14.11-14.11-21.875-32.86-21.875-52.812 0-19.937 7.766-38.687 21.875-52.78 14.102-14.11 32.852-21.875 52.797-21.875 6.352 0 12.586.78 18.594 2.312.875.22 1.79.375 2.734.375 5.89 0 10.672-4.78 10.672-10.688 0-5.188-3.734-9.53-8.664-10.47-7.477-1.874-15.29-2.874-23.336-2.874-35.805 0-67.03 19.61-83.53 48.672-7.743-8.422-12.47-19.64-12.47-31.953 0-16.407 8.32-31.423 22.258-40.142l9.797-6.133c2.89-1.906 4.805-5.188 4.805-8.914 0-2.28-.71-4.39-1.93-6.124l-6.61-9.29c-5.702-8.007-8.718-17.452-8.718-27.327 0-13.93 6.07-26.454 15.695-35.095 13.585 18.766 35.663 30.977 60.6 30.977 5.892 0 10.767-4.773 10.767-10.664s-4.836-10.664-10.727-10.664c-29.46 0-53.46-23.97-53.46-53.43s23.96-53.43 53.42-53.43c7.68 0 14.978 1.633 21.587 4.57C141.087 101.68 168.807 128 202.68 128c5.892 0 10.673-4.772 10.673-10.663s-4.78-10.664-10.672-10.664c-23.523-.008-42.664-19.14-42.664-42.672 0-23.522 19.14-42.663 42.664-42.663 23.53 0 42.672 19.14 42.672 42.664v106.673zM478.204 326c-16.5-29.06-47.72-48.67-83.53-48.67-8.032 0-15.86 1-23.33 2.874-4.92.938-8.67 5.28-8.67 10.47 0 5.905 4.78 10.687 10.687 10.687.94 0 1.845-.155 2.72-.374 6-1.53 12.25-2.312 18.594-2.312 19.953 0 38.703 7.766 52.812 21.875 14.094 14.093 21.875 32.843 21.875 52.78 0 19.953-7.78 38.703-21.874 52.812-11.922 11.906-27.156 19.312-43.625 21.312.97-5 1.5-10.156 1.5-15.422 0-23.016-8.968-43.016-24.53-57.61-1.938-1.874-4.562-3.06-7.47-3.06-5.905 0-10.687 4.78-10.687 10.67 0 3.017 1.25 5.72 3.25 7.657 10.89 10.655 18.093 25.952 18.093 42.343 0 32.344-26.312 58.672-58.656 58.672-32.36 0-58.688-26.328-58.688-58.672v-101.36c8.922 6.688 20 10.656 32 10.656 5.906 0 10.688-4.767 10.688-10.657S304.58 320 298.672 320c-17.625 0-32-14.358-32-31.983v-87.47c3.344 1.18 6.938 1.83 10.688 1.83 5.875 0 10.656-4.774 10.656-10.665s-4.78-10.672-10.656-10.672c-5.797 0-10.5-4.625-10.656-10.367h-.03V64c0-23.522 19.155-42.663 42.687-42.663 23.515 0 42.656 19.14 42.656 42.664 0 23.532-19.14 42.665-42.656 42.673-5.906 0-10.688 4.773-10.688 10.664S303.452 128 309.36 128c33.875 0 61.594-26.32 63.844-59.616 6.594-2.938 13.906-4.57 21.562-4.57 29.47 0 53.438 23.97 53.438 53.43s-24 53.43-53.47 53.43c-5.874 0-10.718 4.773-10.718 10.664 0 5.89 4.875 10.664 10.75 10.664 24.938 0 47.03-12.21 60.625-30.977 9.626 8.64 15.69 21.164 15.69 35.094 0 9.874-3.017 19.32-8.72 27.327l-6.61 9.29c-1.218 1.733-1.92 3.843-1.92 6.124 0 3.728 1.905 7.01 4.796 8.915l9.797 6.133c13.938 8.72 22.25 23.734 22.25 40.14 0 12.313-4.72 23.53-12.47 31.953z"/></svg>