<svg xmlns="http://www.w3.org/2000/svg" viewBox="0 0 512 512" enable-background="new 0 0 512 512"><g fill="#fff"><path d="M501.333 202.667c5.896 0 10.667-4.77 10.667-10.667v-85.333C512 83.135 492.865 64 469.333 64H42.667C19.135 64 0 83.135 0 106.667V192c0 5.896 4.77 10.667 10.667 10.667C40.073 202.667 64 226.594 64 256s-23.927 53.333-53.333 53.333C4.77 309.333 0 314.103 0 320v85.333C0 428.865 19.135 448 42.667 448h426.667c23.53 0 42.666-19.135 42.666-42.667V320c0-5.896-4.77-10.667-10.667-10.667C471.927 309.333 448 285.406 448 256s23.927-53.333 53.333-53.333zM426.667 256c0 37.552 27.865 68.72 64 73.906v75.427c0 11.76-9.573 21.333-21.333 21.333H42.667c-11.76 0-21.333-9.573-21.333-21.333v-75.427c36.135-5.188 64-36.354 64-73.906s-27.865-68.72-64-73.906v-75.427c0-11.76 9.573-21.333 21.333-21.333h426.667c11.76 0 21.333 9.573 21.333 21.333v75.427c-36.136 5.187-64 36.354-64 73.906zM138.667 104C132.77 104 128 108.77 128 114.667v24c0 5.896 4.77 10.667 10.667 10.667 5.896 0 10.667-4.77 10.667-10.667v-24c0-5.896-4.77-10.667-10.667-10.667zM138.667 192C132.77 192 128 196.77 128 202.667V224c0 5.896 4.77 10.667 10.667 10.667 5.896 0 10.667-4.77 10.667-10.667v-21.333c0-5.896-4.77-10.667-10.667-10.667zM138.667 277.333c-5.896 0-10.667 4.77-10.667 10.667v21.333c0 5.896 4.77 10.667 10.667 10.667 5.896 0 10.667-4.77 10.667-10.667V288c0-5.896-4.77-10.667-10.667-10.667zM138.667 362.667c-5.896 0-10.667 4.77-10.667 10.667v21.333c0 5.896 4.77 10.667 10.667 10.667 5.896 0 10.667-4.77 10.667-10.667v-21.333c0-5.896-4.77-10.667-10.667-10.667zM357.917 151.125c-4.938-3.27-11.53-1.948-14.792 2.958l-128 192c-3.27 4.906-1.948 11.52 2.958 14.792 1.823 1.208 3.875 1.792 5.906 1.792 3.447 0 6.832-1.667 8.884-4.75l128-192c3.272-4.907 1.95-11.52-2.957-14.792zM277.333 202.667c0-29.406-19.135-53.333-42.667-53.333S192 173.26 192 202.667 211.135 256 234.667 256s42.666-23.927 42.666-53.333zm-64 0c0-17.344 9.77-32 21.333-32s21.333 14.656 21.333 32-9.772 32-21.334 32-21.333-14.657-21.333-32zM341.333 256c-23.53 0-42.667 23.927-42.667 53.333s19.135 53.333 42.667 53.333c23.53 0 42.667-23.927 42.667-53.333S364.865 256 341.333 256zm0 85.333c-11.563 0-21.333-14.656-21.333-32s9.77-32 21.333-32c11.563 0 21.333 14.656 21.333 32s-9.77 32-21.333 32z"/></g></svg>