<svg xmlns="http://www.w3.org/2000/svg" viewBox="0 0 441.82 442"><defs><style>.cls-1{fill:#ffffff;}</style></defs><title>i4</title><g id="Capa_1"><path class="cls-1" d="M215.92 211.81l-120 120a10 10 0 1 0 14.14 14.14l120-120a10 10 0 0 0-14.14-14.14zM403.12 38.77A132.38 132.38 0 0 0 188 185L3 370a10 10 0 0 0-2.93 7L0 431.86v.29a10 10 0 0 0 9.81 9.72.49.49 0 0 1 .15 0l106.23.12a10 10 0 0 0 10-10v-41.66h41.66a10 10 0 0 0 10-10v-41.66h41.66a10 10 0 0 0 10-10v-47.52l27.31-27.31A132.16 132.16 0 0 0 403.12 226c51.61-51.65 51.61-135.62 0-187.23zM389 211.82a112.21 112.21 0 0 1-129.75 21.06 10 10 0 0 0-11.55 1.87l-35.19 35.19a10 10 0 0 0-2.93 7.07v41.67h-41.69a10 10 0 0 0-10 10v41.67h-41.67a10 10 0 0 0-10 10V422l-72.11-.08 47.7-47.7a10 10 0 1 0-14.14-14.14L20 407.69l.06-26.43 187-187a10 10 0 0 0 1.94-11.6 112.38 112.38 0 1 1 180 29.15zM303.29 72.13a47 47 0 1 0 66.47 0 47.06 47.06 0 0 0-66.47 0zm52.33 52.33a27 27 0 0 1-38.18-38.19 27 27 0 1 1 38.18 38.19z"/></g></svg>