<svg xmlns="http://www.w3.org/2000/svg" viewBox="0 0 512 512" enable-background="new 0 0 512 512"><path d="M477.606 128.055C443.43 68.863 388.25 26.52 322.23 8.83 256.207-8.862 187.25.217 128.054 34.394 68.86 68.57 26.52 123.75 8.83 189.772c-17.69 66.02-8.61 134.98 25.564 194.173C68.568 443.137 123.75 485.48 189.77 503.17c22.047 5.908 44.418 8.83 66.647 8.83 44.34 0 88.1-11.63 127.53-34.393 59.19-34.175 101.534-89.355 119.224-155.377 17.692-66.023 8.61-134.98-25.564-194.175zm-.177 187.278c-15.85 59.146-53.78 108.58-106.81 139.197-53.03 30.617-114.807 38.75-173.953 22.903-59.147-15.848-108.58-53.78-139.198-106.81-30.617-53.028-38.75-114.807-22.9-173.954C50.417 137.522 88.35 88.09 141.38 57.47c35.324-20.395 74.523-30.812 114.248-30.812 19.91 0 39.96 2.618 59.702 7.91 59.146 15.847 108.58 53.78 139.197 106.81 30.617 53.028 38.75 114.806 22.902 173.953zM378.778 231.852l-164.526-94.99c-8.73-5.04-19.155-5.04-27.886 0-8.73 5.04-13.944 14.068-13.944 24.15v189.98c0 10.08 5.212 19.108 13.944 24.15 4.365 2.52 9.152 3.78 13.94 3.78 4.79 0 9.58-1.263 13.945-3.782l164.53-94.99c8.73-5.04 13.94-14.07 13.94-24.15 0-10.08-5.212-19.108-13.942-24.148zm-13.326 25.222l-164.527 94.99c-.2.116-.62.357-1.236 0-.62-.358-.62-.84-.62-1.072v-189.98c0-.232 0-.714.62-1.07.24-.14.452-.19.632-.19.28 0 .482.118.605.19l164.526 94.99c.2.115.618.356.618 1.07 0 .714-.418.956-.618 1.072zM413.303 134.44c-31.69-40.938-79.326-68.442-130.698-75.46-7.283-.998-14.01 4.105-15.006 11.398-.996 7.29 4.107 14.01 11.398 15.006 44.512 6.08 85.783 29.91 113.232 65.37 2.626 3.39 6.565 5.167 10.546 5.167 2.85 0 5.72-.908 8.146-2.788 5.82-4.504 6.885-12.873 2.38-18.692z" fill="#009fe3"/></svg>