<svg xmlns="http://www.w3.org/2000/svg" viewBox="0 0 295.238 295.238" enable-background="new 0 0 295.238 295.238"><g fill="#fff"><path d="M276.19 26.19H19.048C8.543 26.19 0 34.73 0 45.236v171.43c0 10.504 8.543 19.047 19.048 19.047h85.714v23.81H71.43v9.524h152.379v-9.524h-33.334v-23.81h85.714c10.505 0 19.048-8.543 19.048-19.048V45.236c0-10.504-8.543-19.047-19.048-19.047zm-95.238 233.333h-66.667v-23.81h66.667v23.81zm104.762-42.857c0 5.252-4.27 9.524-9.524 9.524H19.048c-5.252 0-9.524-4.27-9.524-9.524V45.236c0-5.25 4.27-9.523 9.524-9.523H276.19c5.252 0 9.524 4.27 9.524 9.524v171.43zM19.048 216.666H276.19V45.236H19.048v171.43zM28.57 54.762h238.096v152.38H28.57V54.763z"/><circle cx="42.857" cy="69.048" r="4.762"/><circle cx="57.143" cy="69.048" r="4.762"/><circle cx="71.429" cy="69.048" r="4.762"/><path d="M38.095 140.476h66.667V83.333H38.095v57.143zm9.524-47.62h47.618v38.095h-47.62V92.857zM114.286 140.476h66.667V83.333h-66.667v57.143zm9.524-47.62h47.62v38.095h-47.62V92.857zM190.476 140.476h66.667V83.333h-66.667v57.143zM200 92.856h47.62v38.095H200V92.857zM38.095 150h142.857v9.523H38.095zM38.095 169.047h142.857v9.524H38.095zM38.095 188.094h142.857v9.524H38.095zM195.238 150h61.905v9.523h-61.905zM195.238 169.047h61.905v9.524h-61.905zM195.238 188.094h61.905v9.524h-61.905z"/></g></svg>