<svg id="Слой_1" data-name="Слой 1" xmlns="http://www.w3.org/2000/svg" viewBox="0 0 45 202.94"><title>brace-xs</title><path d="M2.14,396.36a1.5,1.5,0,1,0-.29,3Z" transform="translate(-0.5 -196.53)" fill="#1c1a1a"/><path d="M22.29,317.83l-1.49-.21a1.5,1.5,0,0,0,0,.21h1.5Z" transform="translate(-0.5 -196.53)" fill="#1c1a1a"/><path d="M44,299.5a1.5,1.5,0,0,0,0-3v3Z" transform="translate(-0.5 -196.53)" fill="#1c1a1a"/><path d="M1.86,399.35c7.2,0.69,12.84-1.57,16.59-6.92s5.34-13.17,5.34-23.58h-3c0,10.21-1.69,17.41-4.8,21.87S8.47,397,2.14,396.36Z" transform="translate(-0.5 -196.53)" fill="#1c1a1a"/><rect x="20.29" y="121.3" width="3" height="51.01" fill="#1c1a1a"/><path d="M23.77,318c0.89-6.39,3.06-11,6.34-14S38,299.5,44,299.5v-3c-6.58,0-11.94,1.73-15.91,5.35s-6.33,8.94-7.29,15.78Z" transform="translate(-0.5 -196.53)" fill="#1c1a1a"/><path d="M1.86,196.65a1.5,1.5,0,1,0,.29,3Z" transform="translate(-0.5 -196.53)" fill="#1c1a1a"/><path d="M20.79,278.17a1.5,1.5,0,0,0,0,.21l1.49-.21h-1.5Z" transform="translate(-0.5 -196.53)" fill="#1c1a1a"/><path d="M44,299.5a1.5,1.5,0,0,0,0-3v3Z" transform="translate(-0.5 -196.53)" fill="#1c1a1a"/><path d="M2.14,199.64C8.47,199,13,201,16,205.29s4.8,11.65,4.8,21.87h3c0-10.42-1.7-18.37-5.34-23.58S9.06,196,1.86,196.65Z" transform="translate(-0.5 -196.53)" fill="#1c1a1a"/><rect x="20.29" y="30.62" width="3" height="51.01" fill="#1c1a1a"/><path d="M20.8,278.37c1,6.83,3.33,12.16,7.29,15.78S37.42,299.5,44,299.5v-3c-6,0-10.62-1.58-13.88-4.57s-5.45-7.59-6.34-14Z" transform="translate(-0.5 -196.53)" fill="#1c1a1a"/></svg>