<?xml version="1.0" encoding="UTF-8"?>
<svg width="92px" height="88px" viewBox="0 0 92 88" version="1.1" xmlns="http://www.w3.org/2000/svg" xmlns:xlink="http://www.w3.org/1999/xlink">
    <!-- Generator: Sketch 51.3 (57544) - http://www.bohemiancoding.com/sketch -->
    <title>quil</title>
    <desc>Created with Sketch.</desc>
    <defs></defs>
    <g id="Page-1" stroke="none" stroke-width="1" fill="none" fill-rule="evenodd">
        <g id="Desktop-Copy" transform="translate(-901.000000, -2626.000000)">
            <g id="Github" transform="translate(0.000000, 2381.000000)">
                <g id="quil" transform="translate(903.000000, 247.000000)">
                    <path d="M84.8028984,53.6169008 C89.0657005,46.1800537 89.0657005,37.0174803 84.8028984,29.5806332 L74.7361765,12.0181338 C70.4732641,4.58109425 62.5949943,-0.000222229342 54.0691695,0 L33.9332781,0 C25.4050639,0.000422039328 17.5253065,4.58488047 13.2638235,12.0255295 L3.19710158,29.588029 C-1.06570053,37.0248761 -1.06570053,46.1874495 3.19710158,53.6242965 L13.2638235,71.186796 C17.528417,78.6227006 25.4075885,83.2021194 33.9332781,83.1999993 L54.0667219,83.1999993 C62.5925468,83.2002215 70.4708165,78.618905 74.733729,71.1818655 L84.8028984,53.6169008 Z" id="Path-Copy" stroke="#1C1A1A" stroke-width="4" fill="#FFFFFF" fill-rule="nonzero"></path>
                    <path d="M48.9577465,45.084507 C48.9577465,44.4859644 48.4556655,44 47.8370134,44 L35.8249584,44 C35.2064226,44 34.7042254,44.4859644 34.7042254,45.084507 L34.7042254,47.2535211 C34.7042254,47.8520637 35.2064226,48.3380282 35.8249584,48.3380282 L47.8370134,48.3380282 C48.4556655,48.3380282 48.9577465,47.8520637 48.9577465,47.2535211 L48.9577465,45.084507 Z" id="Shape" stroke="#1A1A1C" stroke-width="2.67"></path>
                    <path d="M50.8169014,50.5070423 C50.8169014,49.6520034 50.1715933,48.9577465 49.3768393,48.9577465 L34.2851326,48.9577465 C33.4903785,48.9577465 32.8450704,49.6520034 32.8450704,50.5070423 C32.8450704,51.3620811 33.4903785,52.056338 34.2851326,52.056338 L49.3768393,52.056338 C50.1715933,52.056338 50.8169014,51.3620811 50.8169014,50.5070423 Z" id="Shape" stroke="#1A1A1C" stroke-width="2.67"></path>
                    <path d="M54.5352113,55.4647887 C54.5352113,53.2416113 52.7195471,51.4366197 50.4832243,51.4366197 L33.7984658,51.4366197 C31.5621431,51.4366197 29.7464789,53.2416113 29.7464789,55.4647887 L29.7464789,63.5211268 C29.7464789,65.744424 31.5621431,67.5492958 33.7984658,67.5492958 L50.4832243,67.5492958 C52.7195471,67.5492958 54.5352113,65.744424 54.5352113,63.5211268 L54.5352113,55.4647887 Z" id="Shape" stroke="#1A1A1C" stroke-width="2.67"></path>
                    <g id="Group" transform="translate(43.380282, 16.112676)" stroke="#1A1A1C" stroke-width="2.67">
                        <path d="M0.61971831,26.7955284 L12.5633085,6.1971831" id="Shape"></path>
                        <path d="M4.87234729,24.3943715 C6.74843592,24.4942421 8.61315648,23.5658108 9.6161528,21.8359385 L17.814434,7.69687602 C19.2365098,5.2443271 18.3912456,2.10353164 15.9281614,0.687538366 C13.4650772,-0.728454904 10.3107899,0.113075945 8.88871403,2.56562487 L0.690432874,16.7048052 C-0.31481338,18.4385687 -0.187040885,20.5162785 0.844257222,22.0854382" id="Shape"></path>
                        <path d="M15.6143357,11.7746479 L11.7746479,12.7990587" id="Shape"></path>
                        <path d="M3.71830986,11.7746479 L4.7471212,15.5979123" id="Shape"></path>
                    </g>
                </g>
            </g>
        </g>
    </g>
</svg>