<?xml version="1.0" encoding="UTF-8"?>
<svg width="60px" height="58px" viewBox="0 0 60 58" version="1.1" xmlns="http://www.w3.org/2000/svg" xmlns:xlink="http://www.w3.org/1999/xlink">
    <!-- Generator: Sketch 51.3 (57544) - http://www.bohemiancoding.com/sketch -->
    <title>hierarchy_multilevel</title>
    <desc>Created with Sketch.</desc>
    <defs></defs>
    <g id="Page-1" stroke="none" stroke-width="1" fill="none" fill-rule="evenodd">
        <g id="Desktop-Copy" transform="translate(-526.000000, -958.000000)" stroke="#1A1A1C" stroke-width="2.67">
            <g id="Learn-about-apla-" transform="translate(101.000000, 871.000000)">
                <g id="Smart-Contract-Copy-3" transform="translate(427.000000, 89.000000)">
                    <g id="hierarchy_multilevel">
                        <g id="Group" transform="translate(20.000000, 0.000000)">
                            <ellipse id="Oval" cx="7.53231818" cy="5.49948936" rx="5.46" ry="5.39546099"></ellipse>
                            <path d="M14.967,17.5911702 C14.967,15.4490213 13.2070909,13.7100496 11.0394545,13.7100496 L4.02518182,13.7100496 C1.85740909,13.7100496 0.0976363636,15.4490213 0.0976363636,17.5911702 L0.0976363636,18.8847872 L14.967,18.8847872 L14.967,17.5911702 Z" id="Shape"></path>
                        </g>
                        <g id="Group" transform="translate(0.000000, 35.000000)">
                            <ellipse id="Oval" cx="7.47804545" cy="5.51610714" rx="5.46" ry="5.434"></ellipse>
                            <path d="M14.9127273,17.6835714 C14.9127273,15.5262571 13.1528182,13.7747286 10.9851818,13.7747286 L3.97090909,13.7747286 C1.80327273,13.7747286 0.0433636364,15.5262571 0.0433636364,17.6835714 L0.0433636364,18.9864286 L14.9127273,18.9864286 L14.9127273,17.6835714 Z" id="Shape"></path>
                        </g>
                        <g id="Group" transform="translate(41.000000, 35.000000)">
                            <ellipse id="Oval" cx="7.45022727" cy="5.51610714" rx="5.46" ry="5.434"></ellipse>
                            <path d="M14.8849091,17.6835714 C14.8849091,15.5262571 13.125,13.7747286 10.9573636,13.7747286 L3.94309091,13.7747286 C1.77531818,13.7747286 0.0155454545,15.5262571 0.0155454545,17.6835714 L0.0155454545,18.9864286 L14.8849091,18.9864286 L14.8849091,17.6835714 Z" id="Shape"></path>
                        </g>
                        <g id="Group" transform="translate(20.000000, 35.000000)">
                            <ellipse id="Oval" cx="7.53231818" cy="5.51610714" rx="5.46" ry="5.434"></ellipse>
                            <path d="M14.967,17.6835714 C14.967,15.5262571 13.2070909,13.7747286 11.0394545,13.7747286 L4.02518182,13.7747286 C1.85740909,13.7747286 0.0976363636,15.5262571 0.0976363636,17.6835714 L0.0976363636,18.9864286 L14.967,18.9864286 L14.967,17.6835714 Z" id="Shape"></path>
                        </g>
                        <path d="M28,22 C28,22 28,23.3268702 28,24.5643894 C28,25.7216721 28.909383,26.6597893 30.0312186,26.6597893 C33.5181462,26.6597893 40.6673717,26.6597893 44.8199039,26.6597893 C46.5761523,26.6597893 48,28.1286269 48,29.9403682 C48,31.0436536 48,32 48,32" id="Shape"></path>
                        <path d="M28,22 C28,22 28,23.3268702 28,24.5643894 C28,25.7216721 27.090617,26.6597893 25.9687814,26.6597893 C22.4818538,26.6597893 15.3326283,26.6597893 11.1800961,26.6597893 C10.3367113,26.6597893 9.52773129,27.005455 8.93147164,27.620693 C8.33507811,28.235931 8,29.0703346 8,29.9403682 C8,31.0436536 8,32 8,32" id="Shape"></path>
                        <path d="M28,30 L28,32" id="Shape"></path>
                    </g>
                </g>
            </g>
        </g>
    </g>
</svg>