<svg id="Layer_1" data-name="Layer 1" xmlns="http://www.w3.org/2000/svg" viewBox="0 0 55.82 49.84"><title>icon-access-rights</title><path id="Rectangle-2-Copy-2" d="M1014.57,1467.14h12.06a1.5,1.5,0,0,1,1.5,1.5h0a1.5,1.5,0,0,1-1.5,1.5h-12.06a1.5,1.5,0,0,1-1.5-1.5h0A1.5,1.5,0,0,1,1014.57,1467.14Z" transform="translate(-980.75 -1441.6)" fill="#1c1a1a"/><path id="Rectangle-2-Copy-4" d="M1014.57,1473.06h12.06a1.5,1.5,0,0,1,1.5,1.5h0a1.5,1.5,0,0,1-1.5,1.5h-12.06a1.5,1.5,0,0,1-1.5-1.5h0A1.5,1.5,0,0,1,1014.57,1473.06Z" transform="translate(-980.75 -1441.6)" fill="#1c1a1a"/><path id="Rectangle-2-Copy-4-2" data-name="Rectangle-2-Copy-4" d="M1014.57,1479h12.06a1.5,1.5,0,0,1,1.5,1.5h0a1.5,1.5,0,0,1-1.5,1.5h-12.06a1.5,1.5,0,0,1-1.5-1.5h0A1.5,1.5,0,0,1,1014.57,1479Z" transform="translate(-980.75 -1441.6)" fill="#1c1a1a"/><rect id="Rectangle-5-Copy" x="1.5" y="13.84" width="52.82" height="34.5" rx="3.57" ry="3.57" fill="none" stroke="#1c1a1a" stroke-width="3"/><path d="M988.75,1484v-1.12a6.9,6.9,0,0,1,6.9-6.9l2.1,3,2.1-3c3.81,0,6.9,3.09,6.9,5.24V1484" transform="translate(-980.75 -1441.6)" fill="none" stroke="#1c1a1a" stroke-width="3"/><path d="M1002.37,1466c0,2.55-2.07,5.58-4.62,5.58s-4.62-3-4.62-5.58A4.62,4.62,0,0,1,1002.37,1466Z" transform="translate(-980.75 -1441.6)" fill="none" stroke="#1c1a1a" stroke-width="3"/><rect x="22.74" y="1.5" width="10.33" height="15.31" fill="#fff" stroke="#000" stroke-linejoin="round" stroke-width="3"/></svg>