<svg id="Layer_1" data-name="Layer 1" xmlns="http://www.w3.org/2000/svg" viewBox="0 0 42.22 49.67"><title>icon-music</title><path id="Rectangle-18-Copy" d="M1163,1038.74h0a1.57,1.57,0,0,1,1.5,1.64V1071a1.57,1.57,0,0,1-1.5,1.64h0a1.57,1.57,0,0,1-1.5-1.64v-30.58A1.57,1.57,0,0,1,1163,1038.74Z" transform="translate(-1147.91 -1027.99)"/><path id="Rectangle-18-Copy-2" data-name="Rectangle-18-Copy" d="M1188.62,1028h0a1.57,1.57,0,0,1,1.5,1.64v30.58a1.57,1.57,0,0,1-1.5,1.64h0a1.57,1.57,0,0,1-1.5-1.64v-30.58A1.57,1.57,0,0,1,1188.62,1028Z" transform="translate(-1147.91 -1027.99)"/><path id="Rectangle" d="M1162.44,1038.83l25.61-10.72a1.5,1.5,0,0,1,2,.8h0a1.5,1.5,0,0,1-.8,2l-25.61,10.72a1.5,1.5,0,0,1-2-.8h0A1.5,1.5,0,0,1,1162.44,1038.83Z" transform="translate(-1147.91 -1027.99)"/><path id="Rectangle-2" data-name="Rectangle" d="M1162.44,1050.49l25.61-10.72a1.5,1.5,0,0,1,2,.8h0a1.5,1.5,0,0,1-.8,2l-25.61,10.72a1.5,1.5,0,0,1-2-.8h0A1.5,1.5,0,0,1,1162.44,1050.49Z" transform="translate(-1147.91 -1027.99)"/><ellipse id="Oval-8" cx="8.31" cy="43.35" rx="6.81" ry="4.82" fill="none" stroke="#000" stroke-width="3"/><ellipse id="Oval-8-2" data-name="Oval-8" cx="33.85" cy="32.53" rx="6.81" ry="4.82" fill="none" stroke="#000" stroke-width="3"/></svg>