<svg xmlns="http://www.w3.org/2000/svg"
     xmlns:xlink="http://www.w3.org/1999/xlink"
     width="17"
     height="17"
     viewBox="0 0 17 17" version="1.1">
    <path xmlns="http://www.w3.org/2000/svg"
          d="M 5.55351 16.6395C 4.71971 16.6395 3.90938 16.3381 3.27285 15.7807L 0.500112 13.349C -0.109288 12.8144 -0.170154 11.8882 0.363712 11.2788C 0.897579 10.6694 1.82451 10.6093 2.43391 11.1431L 5.20665 13.5749C 5.36725 13.7149 5.54105 13.7135 5.63125 13.7003C 5.72145 13.6871 5.88938 13.6387 6.00158 13.459L 13.9817 0.689453C 14.4114 0.00231951 15.3156 -0.205947 16.0035 0.223053C 16.6899 0.652053 16.8989 1.55699 16.4699 2.24412L 8.48758 15.0173C 7.94491 15.8797 7.05905 16.4561 6.05511 16.6028C 5.88791 16.627 5.71998 16.6395 5.55351 16.6395"
          stroke="none" fill="#3AC28B"/>
</svg>
