<svg id="Layer_1" data-name="Layer 1" xmlns="http://www.w3.org/2000/svg" viewBox="0 0 64.06 60.07"><title>icon-user-friendly</title><circle cx="31.89" cy="29.09" r="19.97" fill="none" stroke="#000" stroke-linecap="round" stroke-linejoin="round" stroke-width="3.2"/><path d="M292.63,1538.46v-1.12a6.9,6.9,0,0,1,6.9-6.9h4.2c3.81,0,6.9,3.09,6.9,5.24v2.78" transform="translate(-269.74 -1513.9)" fill="#fff" stroke="#fff" stroke-width="6"/><path d="M305.89,1521.34c0,2.45-1.91,5.37-4.26,5.37s-4.26-2.92-4.26-5.37A4.26,4.26,0,1,1,305.89,1521.34Z" transform="translate(-269.74 -1513.9)" fill="#fff" stroke="#fff" stroke-width="6"/><path d="M292.63,1538.46v-1.12a6.9,6.9,0,0,1,6.9-6.9h4.2c3.81,0,6.9,3.09,6.9,5.24v2.78" transform="translate(-269.74 -1513.9)" fill="none" stroke="#1c1a1a" stroke-width="3.2"/><path d="M305.89,1521.34c0,2.45-1.91,5.37-4.26,5.37s-4.26-2.92-4.26-5.37A4.26,4.26,0,1,1,305.89,1521.34Z" transform="translate(-269.74 -1513.9)" fill="none" stroke="#1c1a1a" stroke-width="3.2"/><path d="M311.91,1572.67v-1.2a7.43,7.43,0,0,1,7.43-7.43h4.53c4.1,0,7.43,3.33,7.43,5.64v3" transform="translate(-269.74 -1513.9)" fill="#fff" stroke="#fff" stroke-width="5"/><path d="M326.19,1554.24c0,2.64-2.05,5.78-4.59,5.78s-4.59-3.14-4.59-5.78A4.59,4.59,0,1,1,326.19,1554.24Z" transform="translate(-269.74 -1513.9)" fill="#fff" stroke="#fff" stroke-width="5"/><path d="M311.91,1572.67v-1.2a7.43,7.43,0,0,1,7.43-7.43h4.53c4.1,0,7.43,3.33,7.43,5.64v3" transform="translate(-269.74 -1513.9)" fill="none" stroke="#1c1a1a" stroke-width="3.2"/><path d="M326.19,1554.24c0,2.64-2.05,5.78-4.59,5.78s-4.59-3.14-4.59-5.78A4.59,4.59,0,1,1,326.19,1554.24Z" transform="translate(-269.74 -1513.9)" fill="none" stroke="#1c1a1a" stroke-width="3.2"/><path d="M272.24,1572.63v-1.2a7.43,7.43,0,0,1,7.43-7.43h4.53c4.1,0,7.43,3.33,7.43,5.64v3" transform="translate(-269.74 -1513.9)" fill="#fff" stroke="#fff" stroke-width="5"/><path d="M286.52,1554.2c0,2.64-2.05,5.78-4.59,5.78s-4.59-3.14-4.59-5.78A4.59,4.59,0,1,1,286.52,1554.2Z" transform="translate(-269.74 -1513.9)" fill="#fff" stroke="#fff" stroke-width="5"/><path d="M272.24,1572.63v-1.2a7.43,7.43,0,0,1,7.43-7.43h4.53c4.1,0,7.43,3.33,7.43,5.64v3" transform="translate(-269.74 -1513.9)" fill="none" stroke="#1c1a1a" stroke-width="3.2"/><path d="M286.52,1554.2c0,2.64-2.05,5.78-4.59,5.78s-4.59-3.14-4.59-5.78A4.59,4.59,0,1,1,286.52,1554.2Z" transform="translate(-269.74 -1513.9)" fill="none" stroke="#1c1a1a" stroke-width="3.2"/></svg>