<?xml version="1.0" encoding="UTF-8"?>
<svg width="35px" height="34px" viewBox="0 0 35 34" version="1.1" xmlns="http://www.w3.org/2000/svg" xmlns:xlink="http://www.w3.org/1999/xlink">
    <!-- Generator: sketchtool 50.2 (55047) - http://www.bohemiancoding.com/sketch -->
    <title>0F028B1D-FC56-4B8F-9900-66835F8E4945@3x</title>
    <desc>Created with sketchtool.</desc>
    <defs></defs>
    <g id="1360" stroke="none" stroke-width="1" fill="none" fill-rule="evenodd">
        <g id="apla-career" transform="translate(-394.000000, -5102.000000)">
            <g id="vacancies" transform="translate(0.000000, 4850.000000)">
                <g id="check-copy" transform="translate(395.000000, 253.000000)">
                    <path d="M31.8535847,20.4347464 C33.3821384,17.6900625 33.3821384,14.3093815 31.8535847,11.5646977 C30.615188,9.34204309 29.1204234,6.65740097 27.8820267,4.43474635 C26.353473,1.69061849 23.5285984,0 20.471491,0 L12.5283749,0 C9.4712675,0 6.64639295,1.69061849 5.11783922,4.43474635 C3.87997887,6.65740097 2.38467789,9.34204309 1.14681754,11.5646977 C-0.382272515,14.3093815 -0.382272515,17.6900625 1.14681754,20.4347464 C2.38467789,22.6579569 3.87997887,25.3420431 5.11783922,27.5652536 C6.64639295,30.3093815 9.4712675,32 12.5283749,32 L20.471491,32 C23.5285984,32 26.353473,30.3093815 27.8820267,27.5652536 C29.1204234,25.3420431 30.615188,22.6579569 31.8535847,20.4347464 Z" id="coursor-copy-2" stroke="#3AC28B" stroke-width="2"></path>
                    <path d="M13.6392693,21.6243853 C13.4927142,21.5675211 13.3574578,21.4751683 13.247157,21.3482817 L8.65605903,16.0668276 C8.29372763,15.650013 8.33789499,15.0183904 8.75470958,14.656059 C9.17152417,14.2937276 9.80314679,14.337895 10.1654782,14.7547096 L14.5632338,19.8137487 L23.6780628,11.6560698 C24.0836903,11.2930374 24.7068123,11.3275675 25.0698448,11.7331949 C25.073012,11.7367338 25.0761537,11.7402956 25.0792695,11.7438799 L25.088685,11.7547112 C25.4473184,12.1672717 25.4082085,12.7913585 25.0008749,13.1559179 L15.19152,21.9351904 C14.7858925,22.2982229 14.1627705,22.2636928 13.799738,21.8580653 C13.7965707,21.8545264 13.7934291,21.8509646 13.7903133,21.8473803 L13.7808978,21.836549 C13.7235627,21.7705925 13.6763934,21.6992297 13.6392693,21.6243853 Z" id="Combined-Shape-Copy" fill="#3AC28B" transform="translate(16.872370, 16.795630) rotate(-5.000000) translate(-16.872370, -16.795630) "></path>
                </g>
            </g>
        </g>
    </g>
</svg>