<?xml version="1.0" encoding="UTF-8"?>
<svg width="47px" height="55px" viewBox="0 0 47 55" version="1.1" xmlns="http://www.w3.org/2000/svg" xmlns:xlink="http://www.w3.org/1999/xlink">
    <!-- Generator: Sketch 51.3 (57544) - http://www.bohemiancoding.com/sketch -->
    <title>security_2</title>
    <desc>Created with Sketch.</desc>
    <defs></defs>
    <g id="Page-1" stroke="none" stroke-width="1" fill="none" fill-rule="evenodd">
        <g id="Desktop-Copy" transform="translate(-533.000000, -1047.000000)" stroke="#1A1A1C" stroke-width="2.67">
            <g id="Learn-about-apla-" transform="translate(101.000000, 871.000000)">
                <g id="Permissions" transform="translate(434.000000, 178.000000)">
                    <g id="security_2">
                        <path d="M42.083047,8.22216329 C42.0153267,6.71221685 40.8578698,5.4844254 39.3714853,5.34582719 C39.3712465,5.34582719 39.3710076,5.34570625 39.3707687,5.34570625 C36.320844,5.06113245 33.4151984,3.89864905 30.9968527,1.99564487 C30.8289253,1.86345653 30.6632672,1.7330823 30.5019088,1.60609441 C29.179152,0.565156565 27.5514745,0 25.8761419,0 C23.3223555,0 19.4403183,0 16.9037307,0 C15.2582572,0 13.6576917,0.544112858 12.3456842,1.54973598 C11.9794926,1.83056062 11.5879805,2.13061485 11.1931242,2.43320884 C8.89051224,4.19809858 6.12842898,5.24254371 3.24690944,5.43798412 C3.24679,5.43798412 3.24655113,5.43798412 3.24643169,5.43798412 C1.98840942,5.52324741 0.994460754,6.55160741 0.937131343,7.82692861 C0.746391614,12.0773946 0.323348333,21.5015889 0.0157999279,28.3509527 C-0.20862083,33.3516147 1.96846357,38.1535709 5.85969736,41.2409488 C9.40480484,44.05367 13.766737,47.5145132 16.9616573,50.0493124 C19.5556937,52.1073627 23.1989778,52.1178846 25.8044801,50.0747099 C29.0404865,47.5371291 33.4725278,44.061773 37.0717399,41.2393766 C41.0045375,38.155385 43.2100477,33.3269428 42.9841937,28.295199 C42.6860808,21.6559094 42.2808335,12.6267079 42.083047,8.22216329 Z" id="Shape"></path>
                        <path d="M34.6285714,20 L34.6285714,17.50013 C34.5810948,16.3465093 34.5403481,15.3585511 34.5107364,14.6417469 C34.4814918,13.9309599 33.9547214,13.3521652 33.2775676,13.2868731 C31.1141995,13.0783227 29.0536159,12.2265816 27.3385838,10.8321485 C27.2875587,10.7905408 27.2371453,10.7497013 27.1878333,10.7095019 C26.4855952,10.1385166 25.6217163,9.82857143 24.7325084,9.82857143 C23.2390747,9.82857143 20.8443192,9.82857143 19.1969535,9.82857143 C18.0210504,9.82857143 16.8772062,10.2304375 15.9395428,10.9731025 C15.789037,11.0922924 15.6336367,11.2153231 15.4770127,11.339378 C14.0153933,12.4969675 12.2621841,13.1818938 10.4331102,13.3100454 C9.69526465,13.3617669 9.1128194,13.985754 9.08100516,14.7583764 C9.02471843,16.1249004 8.93160061,18.383877 8.82857143,20.8857143" id="Shape"></path>
                        <path d="M8.60476231,24 C8.5416312,25.5777823 8.65211064,29.9567085 8.60476231,31.1386819 C8.53362203,32.9159539 9.26292766,34.6210647 10.5633578,35.7183215 C13.2211068,37.96052 17.7586552,41.7887442 20.0352618,43.7094509 C20.8519617,44.3984704 21.998922,44.4018946 22.819273,43.7179479 C25.1195539,41.7999044 29.7207045,37.9631833 32.4136702,35.7176874 C33.7281164,34.6216988 34.9049086,32.9242753 35,31.1386819 C35.1138951,29 35.1138951,26.8470087 35,24" id="Shape"></path>
                        <path d="M22.1142857,18.4285714 L22.1142857,30.7142857" id="Shape"></path>
                        <path d="M28.0285714,24.5714286 L15.7428571,24.5714286" id="Shape"></path>
                    </g>
                </g>
            </g>
        </g>
    </g>
</svg>