<?xml version="1.0" encoding="UTF-8"?>
<svg width="48px" height="60px" viewBox="0 0 48 60" version="1.1" xmlns="http://www.w3.org/2000/svg" xmlns:xlink="http://www.w3.org/1999/xlink">
    <!-- Generator: sketchtool 50.2 (55047) - http://www.bohemiancoding.com/sketch -->
    <title>00B959D5-704F-4CBE-99AF-44B037581AC6</title>
    <desc>Created with sketchtool.</desc>
    <defs></defs>
    <g id="1360" stroke="none" stroke-width="1" fill="none" fill-rule="evenodd" stroke-linecap="round" stroke-linejoin="round">
        <g id="developers" transform="translate(-408.000000, -2795.000000)" stroke="#FFFFFF" stroke-width="3">
            <g id="benefits" transform="translate(0.000000, 1995.000000)">
                <g id="Documentation" transform="translate(410.000000, 802.000000)">
                    <polygon id="Stroke-1" points="7.05609091 38.8070727 43.82 38.8070727 43.82 0.272618182 7.05609091 0.272618182"></polygon>
                    <g id="Group-14" transform="translate(13.000000, 7.000000)">
                        <path d="M23.828299,15.1200947 C24.9697941,13.0892206 24.9697941,10.5877731 23.828299,8.55695042 C22.9039098,6.91238556 21.787244,4.92593137 20.8624042,3.28136651 C19.7209092,1.25095511 17.6113234,0 15.3283333,0 L9.39694423,0 C7.11390407,0 5.00391783,1.25095511 3.86242278,3.28136651 C2.93803355,4.92593137 1.82136775,6.91238556 0.896928466,8.55695042 C-0.244566584,10.5877731 -0.244566584,13.0892206 0.896928466,15.1200947 C1.82136775,16.7650709 2.93803355,18.7510624 3.86242278,20.3960899 C5.00391783,22.4265013 7.11390407,23.677405 9.39694423,23.677405 L15.3283333,23.677405 C17.6113234,23.677405 19.7209092,22.4265013 20.8624042,20.3960899 C21.787244,18.7510624 22.9039098,16.7650709 23.828299,15.1200947 Z" id="Stroke-1"></path>
                        <path d="M18.0332557,13.5958373 C18.6930735,12.422247 18.6930735,10.9761685 18.0332557,9.8025783 C17.671414,9.15882192 17.2361955,8.38478431 16.8743538,7.74134176 C16.2148034,6.56743768 14.9953972,5.84459459 13.6757235,5.84459459 L11.3582253,5.84459459 C10.0385516,5.84459459 8.81914537,6.56743768 8.15959497,7.74134176 C7.79775326,8.38478431 7.362573,9.15882192 7.00069309,9.8025783 C6.34087532,10.9761685 6.34087532,12.422247 7.00069309,13.5958373 C7.362573,14.2395936 7.79775326,15.0136312 8.15959497,15.6570738 C8.81914537,16.8309779 10.0385516,17.5538602 11.3582253,17.5538602 L13.6757235,17.5538602 C14.9953972,17.5538602 16.2148034,16.8309779 16.8743538,15.6570738 C17.2361955,15.0136312 17.671414,14.2395936 18.0332557,13.5958373 Z" id="Stroke-2"></path>
                    </g>
                    <path d="M43.82,38.8070727 C41.2796,38.8070727 39.2171273,40.8695455 39.2171273,43.4099455 C39.2171273,45.9503455 41.2795455,48.0128182 43.82,48.0128727 L31.3731091,48.0128727" id="Stroke-2"></path>
                    <path d="M21.4755859,48.0128727 L5.61876284,48.0128727 C2.58095221,48.0128727 0.114690909,45.7820182 0.114690909,43.0342909" id="Stroke-3"></path>
                    <path d="M7.05609091,0.272727273 C3.22504284,0.272727273 0.114690909,2.41598182 0.114690909,5.05598182 L0.114690909,43.5904364 C0.114690909,40.9504364 3.22504284,38.8045774 7.05609091,38.8045774 L7.05609091,0.272727273 Z" id="Stroke-4"></path>
                    <polygon id="Stroke-5" points="30.6547818 45 22 45 22 56.1314727 26.2852545 53.4100909 30.6325273 56.3002364"></polygon>
                    <path d="M13.3873818,43.3057636 L9.05609091,43.3057636" id="Stroke-6"></path>
                    <path d="M39.2182727,43.3057636 L19.5,43.3057636" id="Stroke-8"></path>
                </g>
            </g>
        </g>
    </g>
</svg>