<?xml version="1.0" encoding="UTF-8"?>
<svg width="54px" height="55px" viewBox="0 0 54 55" version="1.1" xmlns="http://www.w3.org/2000/svg" xmlns:xlink="http://www.w3.org/1999/xlink">
    <!-- Generator: sketchtool 50.2 (55047) - http://www.bohemiancoding.com/sketch -->
    <title>7B53968C-08CC-4734-AB9D-FCFE01304C95</title>
    <desc>Created with sketchtool.</desc>
    <defs></defs>
    <g id="1360" stroke="none" stroke-width="1" fill="none" fill-rule="evenodd" stroke-linecap="round" stroke-linejoin="round">
        <g id="developers" transform="translate(-400.000000, -2426.000000)" stroke="#FFFFFF" stroke-width="3">
            <g id="benefits" transform="translate(0.000000, 1995.000000)">
                <g id="system" transform="translate(402.000000, 433.000000)">
                    <path d="M34.2262755,3.01944235 C34.2262755,1.49347449 32.9831633,0.254251701 31.4520408,0.254251701 L18.5057143,0.254251701 C16.9745918,0.254251701 15.7315306,1.49347449 15.7315306,3.01944235 L15.7315306,15.9226145 C15.7315306,17.4486332 16.9745918,18.6875509 18.5057143,18.6875509 L31.4520408,18.6875509 C32.9831633,18.6875509 34.2262755,17.4486332 34.2262755,15.9226145 L34.2262755,3.01944235 Z" id="Stroke-1"></path>
                    <path d="M18.7498469,35.7667054 C18.7498469,34.216126 17.4867857,32.957275 15.9310204,32.957275 L3.07392857,32.957275 C1.51816327,32.957275 0.255102041,34.216126 0.255102041,35.7667054 L0.255102041,48.5809403 C0.255102041,50.1315197 1.51816327,51.3903707 3.07392857,51.3903707 L15.9310204,51.3903707 C17.4867857,51.3903707 18.7498469,50.1315197 18.7498469,48.5809403 L18.7498469,35.7667054 Z" id="Stroke-2"></path>
                    <path d="M49.7026531,35.7222114 C49.7026531,34.1961927 48.4595918,32.957275 46.9284694,32.957275 L33.9821429,32.957275 C32.4510204,32.957275 31.2079082,34.1961927 31.2079082,35.7222114 L31.2079082,48.6253835 C31.2079082,50.1514531 32.4510204,51.3903707 33.9821429,51.3903707 L46.9284694,51.3903707 C48.4595918,51.3903707 49.7026531,50.1514531 49.7026531,48.6253835 L49.7026531,35.7222114 Z" id="Stroke-3"></path>
                    <path d="M40.4553061,32.957275 C40.4553061,32.957275 40.4553061,30.915227 40.4553061,29.0027457 C40.4553061,27.1977621 38.9871429,25.7345435 37.1761224,25.7345435 C31.2286735,25.7345435 18.7290816,25.7345435 12.7816327,25.7345435 C10.9706122,25.7345435 9.5025,27.1977621 9.5025,29.0027457 C9.5025,30.915227 9.5025,32.957275 9.5025,32.957275" id="Stroke-4"></path>
                    <path d="M24.9788776,18.6875509 L24.9788776,25.7345435" id="Stroke-5"></path>
                </g>
            </g>
        </g>
    </g>
</svg>