<?xml version="1.0" encoding="UTF-8"?>
<svg width="45px" height="47px" viewBox="0 0 45 47" version="1.1" xmlns="http://www.w3.org/2000/svg" xmlns:xlink="http://www.w3.org/1999/xlink">
    <!-- Generator: sketchtool 50.2 (55047) - http://www.bohemiancoding.com/sketch -->
    <title>A5902487-2EBE-42D2-8D2E-2F70A26ED6A8</title>
    <desc>Created with sketchtool.</desc>
    <defs></defs>
    <g id="1360" stroke="none" stroke-width="1" fill="none" fill-rule="evenodd" stroke-linecap="round" stroke-linejoin="round">
        <g id="developers" transform="translate(-408.000000, -2968.000000)" stroke="#FFFFFF" stroke-width="3">
            <g id="benefits" transform="translate(0.000000, 1995.000000)">
                <g id="Template-applications-Template-applications-template" transform="translate(410.000000, 975.000000)">
                    <path d="M40.8791411,1.49492106 C40.8791411,0.669861818 40.2100211,0 39.38583,0 L1.49326556,0 C0.66912,0 0,0.669861818 0,1.49492106 L0,41.0228795 C0,41.8479388 0.66912,42.5178006 1.49326556,42.5178006 L39.38583,42.5178006 C40.2100211,42.5178006 40.8791411,41.8479388 40.8791411,41.0228795 L40.8791411,1.49492106 Z" id="Stroke-1"></path>
                    <path d="M40.8791411,10.4893939 L0,10.4893939" id="Stroke-2"></path>
                    <path d="M13.05358,25.9954545 L0,25.9954545" id="Stroke-3"></path>
                    <path d="M34.25755,17.330303 L19.5888889,17.330303" id="Stroke-4"></path>
                    <path d="M34.25755,29.5768717 L19.5888889,29.5768717" id="Stroke-5"></path>
                    <path d="M34.25755,23.5407754 L19.5888889,23.5407754" id="Stroke-6"></path>
                    <path d="M34.25755,35.6129679 L19.5888889,35.6129679" id="Stroke-7"></path>
                    <path d="M13.2111111,41.8468442 L13.2111111,10.4893939" id="Stroke-8"></path>
                </g>
            </g>
        </g>
    </g>
</svg>