<svg enable-background="new 0 0 130 63" height="63px" version="1.1" viewBox="0 0 130 63" width="130px" x="0px" y="0px">
    <defs></defs>
    <g fill="none" fill-rule="evenodd" id="Page-1" stroke="none" stroke-width="1">
        <g fill="#FFF" fill-rule="nonzero" id="gp-logo">
            <g id="gazprom_-logo">
                <path d="M40.2951594,62.1445054 L44.5946301,62.1445054 L44.5946301,43.3110309 L48.4956453,43.3110309 L48.4956453,40.6448053 L40.2951594,40.6448053 L40.2951594,62.1445054 Z M50.8380379,40.6452746 L48.5956112,62.1449747 L52.8040332,62.1449747 L53.2034273,56.4319023 L55.2304346,56.4319023 L55.6298287,62.1449747 L59.8377814,62.1449747 L57.5953547,40.6452746 L50.8380379,40.6452746 Z M53.3564267,54.0669822 L54.0937336,43.3100923 L54.3391897,43.3100923 L55.0760273,54.0669822 L53.3564267,54.0669822 Z M68.4522105,40.6452746 L64.8877001,40.6452746 C61.8774604,40.6452746 61.6930164,42.9792193 61.6930164,44.4848085 L61.6930164,47.5250848 L65.9924871,47.5250848 L65.9924871,44.0178318 C65.9924871,43.4654383 66.4228565,43.3115002 66.6683126,43.3115002 C67.0681761,43.3115002 67.3441382,43.6498823 67.3441382,44.0178318 L67.3441382,48.2928977 C67.3441382,49.6135734 66.9137687,49.8895355 65.6855497,49.8895355 L63.8734924,49.8895355 L63.8734924,52.2544556 L65.6240683,52.2544556 C67.2207061,52.2544556 67.3441382,52.9912932 67.3441382,53.6671187 L67.3441382,58.6672891 C67.3441382,59.0366465 67.0677068,59.37409 66.6683126,59.37409 C66.4228565,59.37409 65.9924871,59.2201519 65.9924871,58.6672891 L65.9924871,54.6189064 L61.6930164,54.6189064 L61.6930164,58.3049715 C61.6930164,59.809622 61.8774604,62.1445054 64.8877001,62.1445054 L68.4522105,62.1445054 C71.4633887,62.1445054 71.6473635,59.809622 71.6473635,58.3049715 L71.6473635,53.9740562 C71.6473635,53.2067126 71.6168574,50.9947919 68.7295805,51.0567426 L68.7295805,50.8413232 C70.019281,50.9028045 71.6473635,50.257485 71.6473635,47.9235402 L71.6473635,44.4838698 C71.6468941,42.97875 71.4633887,40.6452746 68.4522105,40.6452746 Z M74.474567,62.1445054 L78.775915,62.1445054 L78.775915,43.3110309 L80.1285047,43.3110309 L80.1285047,62.1445054 L84.4279754,62.1445054 L84.4279754,40.6448053 L74.474567,40.6448053 L74.474567,62.1445054 L74.474567,62.1445054 Z M94.0110878,40.6452746 L87.2542403,40.6452746 L87.2542403,62.1449747 L91.555119,62.1449747 L91.555119,54.8347951 L94.0110878,54.8347951 C97.0213274,54.8347951 97.2057714,52.500381 97.2057714,50.9957305 L97.2057714,44.4848085 C97.2057714,42.97875 97.0217967,40.6452746 94.0110878,40.6452746 Z M92.9058314,51.3946553 C92.9058314,52.0704809 92.568388,52.469875 92.1079818,52.469875 L91.555119,52.469875 L91.555119,43.3110309 L92.1079818,43.3110309 C92.568388,43.3110309 92.9058314,43.710425 92.9058314,44.3857813 L92.9058314,51.3946553 Z M106.790292,40.6452746 L103.227659,40.6452746 C100.217888,40.6452746 100.032975,42.9792193 100.032975,44.4848085 L100.032975,58.3054408 C100.032975,59.8100913 100.217888,62.1449747 103.227659,62.1449747 L106.790292,62.1449747 C109.800062,62.1449747 109.984037,59.8100913 109.984037,58.3054408 L109.984037,44.4848085 C109.984037,42.97875 109.800062,40.6452746 106.790292,40.6452746 Z M105.685035,58.6672891 C105.685035,59.0366465 105.409073,59.37409 105.009679,59.37409 C104.763754,59.37409 104.333854,59.2201519 104.333854,58.6672891 L104.333854,44.0173625 C104.333854,43.464969 104.763754,43.3110309 105.009679,43.3110309 C105.409543,43.3110309 105.685035,43.649413 105.685035,44.0173625 L105.685035,58.6672891 Z M123.99099,40.6452746 L121.19664,55.756546 L118.400881,40.6452746 L112.810771,40.6452746 L112.810771,62.1449747 L117.11118,62.1449747 L117.11118,48.6617858 L117.265588,48.6617858 L119.4761,62.1449747 L122.91624,62.1449747 L125.127692,48.6617858 L125.28116,48.6617858 L125.28116,62.1449747 L129.5811,62.1449747 L129.5811,40.6452746 L123.99099,40.6452746 Z M26.1812,33.0356667 C27.1855518,35.4470498 28.6920796,38.0269199 29.6720266,39.2959701 C31.1076866,37.4299407 34.4098453,31.8661131 35.4381326,24.59301 C36.0116457,20.5507284 36.0360505,17.0110921 34.7205373,11.2459248 C33.4040855,5.48122676 30.1042734,0.793625691 29.6490298,0.0276900744 C28.9314345,1.10337907 26.2985308,5.24187188 24.9604901,9.83560828 C23.5004253,14.9540481 23.2854753,19.4970976 23.7890592,23.9716259 C24.2907658,28.4452156 26.1812,33.0356667 26.1812,33.0356667 Z M29.6494991,37.8607795 C29.003241,36.6414776 27.9988891,34.3244285 27.9031472,30.7406758 C27.878273,27.272846 29.2665313,24.3057841 29.6720266,23.6844001 C30.0334056,24.3057841 31.2278334,26.8903475 31.3700383,30.4299838 C31.4676576,33.894059 30.3192235,36.6170728 29.6494991,37.8607795 Z M25.0088304,18.7809103 C25.1242839,15.7946062 25.8216983,12.7285171 26.2051355,11.3177312 C27.6633229,6.60525605 29.3153409,3.59266982 29.6255636,3.11442938 C29.9362557,3.59313914 32.0167658,7.30079317 33.0952708,11.1999311 C34.1690825,15.0971917 34.3854405,18.8292506 34.3385082,21.0303768 C34.2896985,23.2300951 34.0264082,25.5494908 33.6913113,26.9377491 C33.8119274,24.5465469 33.5251709,21.1739898 32.9746547,18.5420247 C32.4241384,15.910529 30.8692704,11.5096845 29.6255636,9.47563732 C28.4780682,11.4139425 27.0654051,15.2178078 26.3252822,18.5176199 C25.5814048,21.8197786 25.5598159,25.8132505 25.5598159,27.0104942 C25.3631695,26.0005105 24.8675641,22.4012702 25.0088304,18.7809103 Z M21.8732815,47.3565977 C21.8817293,47.3472112 21.8892385,47.3378248 21.8981556,47.3284383 C24.2565052,44.9700888 28.08149,44.9700888 30.4407782,47.3284383 C32.7991278,49.6872572 32.7991278,53.5127114 30.4407782,55.8715302 C30.4309224,55.8809167 30.420128,55.8888952 30.4098029,55.8992203 C30.4098029,55.8996896 30.4098029,55.9006283 30.4093335,55.9015669 C30.3980698,55.9123614 30.3853981,55.9212785 30.373665,55.9325423 C28.0218859,58.2688336 24.9468797,59.4374486 21.8728121,59.4374486 C18.7851342,59.4374486 15.6969869,58.2594472 13.3414533,55.9043829 C9.18981943,51.752749 8.69796862,45.330529 11.8626156,40.6387041 C12.2896998,40.0051176 12.7815506,39.4015679 13.3414533,38.8416652 C15.6974562,36.4866009 18.7851342,35.3114154 21.8728121,35.3114154 L21.8728121,19.1634088 C10.0069113,19.1634088 0.387661041,28.7821897 0.387661041,40.6387041 C0.387661041,52.503197 10.0069113,62.1224472 21.8728121,62.1224472 C28.0594318,62.1224472 33.6326459,59.5064392 37.5533727,55.322422 L37.5533727,40.6387041 L21.8728121,40.6387041 L21.8728121,47.3565977 L21.8732815,47.3565977 Z" id="Shape"></path>
            </g>
        </g>
    </g>
</svg>