<?xml version="1.0" encoding="utf-8"?>
<!-- Generator: Adobe Illustrator 21.0.0, SVG Export Plug-In . SVG Version: 6.00 Build 0)  -->
<svg version="1.1" id="Layer_1" xmlns="http://www.w3.org/2000/svg" xmlns:xlink="http://www.w3.org/1999/xlink" x="0px" y="0px"
	 viewBox="0 0 286.8 105.6" style="enable-background:new 0 0 286.8 105.6;" xml:space="preserve">
<style type="text/css">
	.st0{fill:#9BD3B1;}
	.st1{fill:#42B762;}
	.st2{fill:#AFD2EF;}
	.st3{fill:#7199C8;}
	.st4{fill:#5CB7E7;}
	.st5{fill:#288CC4;}
	.st6{fill:#000000;}
</style>
<g>
	<polygon class="st0" points="75,69.7 59.7,43.2 101.2,43.2 116.5,69.7 75,69.7 	"/>
	<polygon class="st1" points="59.7,96.2 75,69.7 75,69.7 116.5,69.7 101.2,96.2 	"/>
	<polygon class="st2" points="36,69.7 66.6,69.7 45.9,105.6 15.3,105.6 36,69.7 	"/>
	<polygon class="st3" points="20.7,43.2 36,69.7 36,69.7 15.3,105.6 0,79.1 	"/>
	<polygon class="st4" points="55.5,35.9 40.2,62.4 19.5,26.5 34.8,0 55.5,35.9 	"/>
	<polygon class="st5" points="86.1,35.9 55.5,35.9 55.5,35.9 34.8,0 65.4,0 	"/>
</g>
<g>
	<path class="st6" d="M147,69.1c0,0.4-0.2,0.6-0.6,0.6h-4.7c-0.4,0-0.6-0.2-0.6-0.6V49.5h-2.6c-0.4,0-0.6-0.2-0.6-0.6v-4
		c0-0.4,0.2-0.6,0.6-0.6h7.8c0.4,0,0.6,0.2,0.6,0.6V69.1z M147,35.2c0,2.3-1.3,3.6-3.5,3.6s-3.5-1.3-3.5-3.6c0-2.2,1.3-3.5,3.5-3.5
		S147,33,147,35.2z"/>
	<path class="st6" d="M158.5,47c0.2,0.6,0.6,0.5,1,0.1c2-2.3,4.5-3.2,7.3-3.2c6.9,0,11,5.1,11,13.2c0,8.2-4.4,13.3-11.7,13.3
		c-1.9,0-3.2-0.3-4.8-1l-1.4-0.6v11.7c0,0.4-0.2,0.6-0.6,0.6h-4.7c-0.4,0-0.6-0.2-0.6-0.6V44.9c0-0.4,0.2-0.6,0.6-0.6h2.6
		c0.4,0,0.6,0.2,0.6,0.5L158.5,47z M161.4,64.1c1.3,0.6,2.7,0.9,4.3,0.9c4,0,6.3-3,6.3-8c0-5-2.3-8-6.2-8c-3.9,0-6,3.2-6,7.8v6.5
		L161.4,64.1z"/>
	<path class="st6" d="M200,69.6c-1.9,0.5-3.7,0.7-5.3,0.7c-7.9,0-12.4-5.1-12.4-13.3c0-8.2,4.5-13.3,12.2-13.3
		c6.3,0,10.1,3.1,10.1,8.3c0,4-2.5,6.3-7.7,7.1l-8.2,1.3c0.6,2.8,2.7,4.5,6,4.5c1.5,0,3-0.2,4.1-0.5l2.3-0.6
		c0.4-0.1,0.6,0.1,0.7,0.4l1,3.9c0.1,0.4-0.1,0.6-0.4,0.7L200,69.6z M196,54.7c1.8-0.3,2.8-1.2,2.8-2.5c0-2.1-1.6-3.2-4.5-3.2
		c-3.5,0-5.8,2.1-6.2,7L196,54.7z"/>
	<path class="st6" d="M227,63.6c0,0.9,0.4,1.4,1,1.4c0.2,0,0.3,0,0.4,0c0.4-0.1,0.6-0.1,0.7,0.3l1.6,3.7c0.2,0.4,0.1,0.6-0.3,0.8
		c-0.7,0.3-1.6,0.5-2.4,0.5c-4.3,0-6.9-2.5-6.9-6.7V32.7c0-0.4,0.2-0.6,0.6-0.6h4.7c0.4,0,0.6,0.2,0.6,0.6V63.6z"/>
	<path class="st6" d="M239.3,44.5c1.8-0.5,3.6-0.8,5.7-0.8c7.1,0,11.4,3.7,11.4,10v15.4c0,0.4-0.2,0.6-0.6,0.6h-2.6
		c-0.4,0-0.6-0.2-0.7-0.5l-0.4-1.6c-0.3-0.7-0.6-0.7-1.3-0.1c-1.6,1.8-4,2.8-7.2,2.8c-5.8,0-9.1-3-9.1-7.9s3.4-8.1,9.5-8.1h6.6V54
		c0-3.2-2-4.9-5.9-4.9c-1.5,0-2.8,0.2-4.1,0.5l-1.9,0.6c-0.4,0.1-0.6-0.1-0.7-0.4l-1.2-3.9c-0.1-0.4,0.1-0.6,0.4-0.7L239.3,44.5z
		 M244.1,58.8c-2.6,0-3.8,1.2-3.8,3c0,2,1.4,3.3,3.9,3.3c4.1,0,6.4-2,6.4-5.9v-0.4H244.1z"/>
	<path class="st6" d="M268.9,40.3c0,2.5-0.2,4-0.8,5.9c-0.3,0.7,0.2,1.1,0.8,0.5c1.6-1.9,3.9-3,6.9-3c6.9,0,11,5.1,11,13.2
		c0,8.2-4.6,13.3-12.1,13.3c-2.3,0-4.5-0.4-6.6-1.3l-4.6-1.9c-0.3-0.2-0.5-0.4-0.5-0.7V32.7c0-0.4,0.2-0.6,0.6-0.6h4.7
		c0.4,0,0.6,0.2,0.6,0.6V40.3z M270.4,64.1c1.2,0.5,2.7,0.9,4.3,0.9c4,0,6.3-3,6.3-8c0-5-2.3-8-6.1-8c-4.2,0-6.1,3.4-6.1,7.8v6.5
		L270.4,64.1z"/>
</g>
</svg>
