<?xml version="1.0" encoding="iso-8859-1"?>
<!-- Generator: Adobe Illustrator 19.0.0, SVG Export Plug-In . SVG Version: 6.00 Build 0)  -->
<svg 
 xmlns="http://www.w3.org/2000/svg"
 xmlns:xlink="http://www.w3.org/1999/xlink"
 width="178px" height="109px">
<path fill-rule="evenodd"  fill="rgb(255, 255, 255)"
 d="M144.424,50.673 C133.206,50.673 124.081,41.612 124.081,30.472 C124.081,19.331 133.206,10.269 144.424,10.269 C155.641,10.269 164.767,19.331 164.767,30.472 C164.767,41.612 155.641,50.673 144.424,50.673 ZM144.424,18.347 C137.691,18.347 132.214,23.787 132.214,30.472 C132.214,37.160 137.691,42.598 144.424,42.598 C151.157,42.598 156.634,37.160 156.634,30.472 C156.634,23.787 151.157,18.347 144.424,18.347 ZM88.999,52.134 C74.556,52.134 62.806,40.467 62.806,26.123 C62.806,11.779 74.556,0.110 88.999,0.110 C103.442,0.110 115.192,11.779 115.192,26.123 C115.192,40.467 103.442,52.134 88.999,52.134 ZM88.999,8.188 C79.041,8.188 70.940,16.234 70.940,26.123 C70.940,36.014 79.041,44.057 88.999,44.057 C98.957,44.057 107.058,36.014 107.058,26.123 C107.058,16.234 98.957,8.188 88.999,8.188 ZM33.574,50.673 C22.358,50.673 13.231,41.612 13.231,30.472 C13.231,19.331 22.357,10.269 33.574,10.269 C44.792,10.269 53.918,19.331 53.918,30.472 C53.918,41.612 44.792,50.673 33.574,50.673 ZM33.574,18.347 C26.841,18.347 21.365,23.787 21.364,30.472 C21.364,37.160 26.841,42.598 33.574,42.598 C40.307,42.598 45.784,37.160 45.784,30.472 C45.784,23.787 40.307,18.347 33.574,18.347 ZM33.575,58.752 C39.094,58.752 44.569,60.114 49.405,62.692 C51.384,63.745 52.128,66.192 51.066,68.157 C50.006,70.122 47.541,70.865 45.561,69.808 C41.903,67.861 37.758,66.831 33.575,66.831 C20.934,66.831 10.418,76.035 8.465,88.050 L33.935,88.050 C36.182,88.050 38.002,89.858 38.002,92.088 C38.002,94.319 36.182,96.127 33.936,96.127 L4.074,96.127 C1.828,96.127 0.007,94.319 0.007,92.088 C0.007,73.707 15.065,58.752 33.575,58.752 ZM88.999,60.212 C113.355,60.212 133.169,79.891 133.169,104.079 C133.169,106.312 131.349,108.118 129.102,108.118 L48.896,108.118 C46.650,108.118 44.830,106.312 44.830,104.079 C44.830,79.891 64.644,60.212 88.999,60.212 ZM124.808,100.039 C122.782,82.199 107.495,68.289 88.999,68.289 C70.503,68.289 55.217,82.199 53.191,100.039 L124.808,100.039 ZM144.424,88.050 L169.534,88.050 C167.581,76.036 157.065,66.831 144.424,66.831 C140.240,66.831 136.095,67.861 132.435,69.808 C130.455,70.865 127.991,70.122 126.930,68.157 C125.868,66.195 126.613,63.745 128.592,62.692 C133.429,60.114 138.904,58.752 144.424,58.752 C162.933,58.752 177.992,73.709 177.992,92.088 C177.992,94.319 176.171,96.127 173.925,96.127 L144.424,96.127 C142.177,96.127 140.357,94.319 140.357,92.088 C140.357,89.858 142.177,88.050 144.424,88.050 Z"/>
</svg>