<?xml version="1.0" encoding="iso-8859-1"?>
<!-- Generator: Adobe Illustrator 19.0.0, SVG Export Plug-In . SVG Version: 6.00 Build 0)  -->
<svg version="1.1" id="Layer_1" xmlns="http://www.w3.org/2000/svg" xmlns:xlink="http://www.w3.org/1999/xlink" x="0px" y="0px"
	 viewBox="0 0 512 512" style="enable-background:new 0 0 512 512;" xml:space="preserve">
<g>
	<g>
		<g>
			<path fill="rgb(255, 255, 255)" d="M116.426,100.182h195.57c6.3,0,11.408-5.107,11.408-11.408s-5.107-11.408-11.408-11.408h-195.57
				c-6.3,0-11.408,5.107-11.408,11.408S110.125,100.182,116.426,100.182z"/>
			<path fill="rgb(255, 255, 255)" d="M68.513,100.182h2.852c6.3,0,11.408-5.107,11.408-11.408s-5.107-11.408-11.408-11.408h-2.852
				c-6.3,0-11.408,5.107-11.408,11.408S62.213,100.182,68.513,100.182z"/>
			<path fill="rgb(255, 255, 255)" d="M68.513,145.813h243.482c6.3,0,11.408-5.107,11.408-11.408s-5.107-11.408-11.408-11.408H68.513
				c-6.3,0-11.408,5.107-11.408,11.408S62.213,145.813,68.513,145.813z"/>
			<path fill="rgb(255, 255, 255)" d="M68.513,191.444h243.482c6.3,0,11.408-5.107,11.408-11.408s-5.107-11.408-11.408-11.408H68.513
				c-6.3,0-11.408,5.107-11.408,11.408S62.213,191.444,68.513,191.444z"/>
			<path fill="rgb(255, 255, 255)" d="M184.302,214.259h-4.562c-6.3,0-11.408,5.107-11.408,11.408c0,6.3,5.107,11.408,11.408,11.408h4.562
				c6.3,0,11.408-5.107,11.408-11.408C195.709,219.367,190.601,214.259,184.302,214.259z"/>
			<path fill="rgb(255, 255, 255)" d="M68.513,237.075h71.583c6.3,0,11.408-5.107,11.408-11.408c0-6.3-5.107-11.408-11.408-11.408H68.513
				c-6.3,0-11.408,5.107-11.408,11.408C57.106,231.967,62.213,237.075,68.513,237.075z"/>
			<path fill="rgb(255, 255, 255)" d="M505.696,41.443c-3.155-11.773-10.705-21.613-21.26-27.707c-21.791-12.58-49.753-5.088-62.333,16.702l-46.322,80.234
				V11.408c0-6.3-5.107-11.408-11.408-11.408H16.137C9.837,0,4.73,5.107,4.73,11.408v401.345c0,3.025,1.202,5.927,3.341,8.066
				l87.839,87.839c2.139,2.139,5.041,3.341,8.066,3.341h260.395c6.3,0,11.408-5.107,11.408-11.408V293.194L501.137,76.069
				C507.232,65.513,508.85,53.216,505.696,41.443z M92.569,473.052l-48.891-48.891h48.891V473.052z M352.967,489.185h-0.002h-237.58
				v-76.432c0-6.3-5.107-11.408-11.408-11.408H27.545V22.815h325.419v127.373l-36.992,64.07h-90.89
				c-6.3,0-11.408,5.107-11.408,11.408c0,6.3,5.107,11.408,11.408,11.408H302.8l-13.172,22.815H68.513
				c-6.3,0-11.408,5.107-11.408,11.408s5.107,11.408,11.408,11.408h207.942l-13.172,22.815H68.513
				c-6.3,0-11.408,5.107-11.408,11.408c0,6.301,5.107,11.408,11.408,11.408H250.11l-24.791,42.94
				c-0.904,1.565-1.38,3.255-1.492,4.943c-0.002,0.029-0.014,0.048-0.015,0.078l-4.585,76.388
				c-0.259,4.313,1.942,8.403,5.683,10.562c1.461,0.844,3.062,1.316,4.682,1.463c0.274,0.042,83.807,0.066,83.807,0.066
				c6.301,0,11.408-5.107,11.408-11.408s-5.107-11.408-11.408-11.408h-44.803l32.165-21.238c0.026-0.017,0.039-0.04,0.064-0.057
				c1.434-0.962,2.651-2.236,3.531-3.759l48.61-84.196V489.185z M272.785,411.853l-29.418,19.423l2.113-35.188L272.785,411.853z
				 M290.3,395.619l-19.759-11.408l-19.759-11.408L396.229,120.88l39.517,22.815L290.3,395.619z M447.155,123.938l-39.517-22.815
				l14.26-24.699l39.517,22.815L447.155,123.938z M481.378,64.661l-8.556,14.82l-39.517-22.815l8.556-14.82
				c6.29-10.894,20.271-14.64,31.167-8.35c5.277,3.047,9.053,7.967,10.63,13.854C485.235,53.235,484.425,59.383,481.378,64.661z"/>
		</g>
	</g>
</g>
<g>
</g>
<g>
</g>
<g>
</g>
<g>
</g>
<g>
</g>
<g>
</g>
<g>
</g>
<g>
</g>
<g>
</g>
<g>
</g>
<g>
</g>
<g>
</g>
<g>
</g>
<g>
</g>
<g>
</g>
</svg>
