<svg xmlns="http://www.w3.org/2000/svg" viewBox="0 0 441.82 442"><defs><style>.cls-1{fill:#ffffff;}</style></defs><title>i4</title><g id="Layer_2" data-name="Layer 2"><g id="Capa_1" data-name="Capa 1"><path class="cls-1" d="M215.92,211.81l-120,120a10,10,0,1,0,14.14,14.14l120-120a10,10,0,0,0-14.14-14.14Z"/><path class="cls-1" d="M403.12,38.77A132.38,132.38,0,0,0,188,185L3,370a10,10,0,0,0-2.93,7L0,431.86c0,.1,0,.19,0,.29H0a10,10,0,0,0,9.81,9.72h0a.49.49,0,0,1,.15,0l106.23.12h0a10,10,0,0,0,10-10V390.33h41.66a10,10,0,0,0,10-10V338.67h41.66a10,10,0,0,0,10-10V281.15l27.31-27.31A132.16,132.16,0,0,0,403.12,226C454.73,174.35,454.73,90.38,403.12,38.77ZM389,211.82a112.21,112.21,0,0,1-129.75,21.06,10,10,0,0,0-11.55,1.87l-35.19,35.19a10,10,0,0,0-2.93,7.07v41.67H167.89a10,10,0,0,0-10,10v41.67H116.22a10,10,0,0,0-10,10V422l-72.11-.08,47.7-47.7a10,10,0,1,0-14.14-14.14L20,407.69l.06-26.43,187-187A10,10,0,0,0,209,182.66a112.38,112.38,0,1,1,180,29.15Z"/><path class="cls-1" d="M303.29,72.13h0a47,47,0,1,0,66.47,0A47.06,47.06,0,0,0,303.29,72.13Zm52.33,52.33a27,27,0,0,1-38.18-38.19h0a27,27,0,1,1,38.18,38.19Z"/></g></g></svg>