<svg id="Слой_1" data-name="Слой 1" xmlns="http://www.w3.org/2000/svg" viewBox="0 0 45 334.84"><title>brace-small</title><g id="Canvas"><g id="Group_2" data-name="Group 2"><g id="Path_3_Copy_2" data-name="Path 3 Copy 2"><path id="path0_stroke" data-name="path0 stroke" d="M1.86,132.32a1.5,1.5,0,0,0,.29,3ZM22.29,278.16h-1.5a1.5,1.5,0,0,0,0,.21ZM44,299.5a1.5,1.5,0,0,0,0-3v3ZM2,133.82c0.14,1.49.14,1.49,0.14,1.49H2.85a14.67,14.67,0,0,1,2.08.19A16,16,0,0,1,11.31,138c4.54,3,9.48,9.74,9.48,24.86h3c0-15.82-5.21-23.62-10.81-27.36a19,19,0,0,0-7.57-3,17.67,17.67,0,0,0-2.51-.22h-1S1.86,132.32,2,133.82Zm18.79,29V278.14h3V162.83h-3Zm1.5,115.34-1.49.21h0v0.07l0,0.19c0,0.16.07,0.39,0.13,0.68,0.12,0.58.31,1.39,0.6,2.37a30.34,30.34,0,0,0,3.19,7.18A21.52,21.52,0,0,0,44,299.5v-3a18.53,18.53,0,0,1-16.68-9.2,27.37,27.37,0,0,1-2.86-6.46c-0.26-.88-0.44-1.62-0.54-2.12-0.05-.25-0.09-0.45-0.11-0.58l0-.14v0h0Z" transform="translate(-0.5 -124.22)" fill="#1c1a1a"/></g><g id="Path_3_Copy_3" data-name="Path 3 Copy 3"><path id="path1_stroke" data-name="path1 stroke" d="M2.14,456a1.5,1.5,0,1,0-.29,3ZM22.29,317.83l-1.49-.21a1.5,1.5,0,0,0,0,.21h1.5ZM44,299.5a1.5,1.5,0,0,0,0-3v3ZM1.86,458.94c7.2,0.69,12.84-1.57,16.59-6.92s5.34-13.17,5.34-23.58h-3c0,10.21-1.69,17.41-4.8,21.87S8.47,456.55,2.14,456Zm21.93-30.5V317.83h-3v110.6h3Zm0-110.39c0.89-6.39,3.06-11,6.34-14S38,299.5,44,299.5v-3c-6.58,0-11.94,1.73-15.91,5.35s-6.33,8.94-7.29,15.78Z" transform="translate(-0.5 -124.22)" fill="#1c1a1a"/></g></g></g></svg>