<?xml version="1.0" encoding="UTF-8"?>
<svg width="55px" height="61px" viewBox="0 0 55 61" version="1.1" xmlns="http://www.w3.org/2000/svg" xmlns:xlink="http://www.w3.org/1999/xlink">
    <!-- Generator: Sketch 51.3 (57544) - http://www.bohemiancoding.com/sketch -->
    <title>register_citizen</title>
    <desc>Created with Sketch.</desc>
    <defs></defs>
    <g id="Page-1" stroke="none" stroke-width="1" fill="none" fill-rule="evenodd">
        <g id="Desktop-Copy" transform="translate(-125.000000, -958.000000)">
            <g id="Learn-about-apla-" transform="translate(101.000000, 871.000000)">
                <g id="Smart-Contract-Copy" transform="translate(26.000000, 89.000000)">
                    <g id="register_citizen">
                        <path d="M2,54.0083501 C2.42662445,55.7246233 4.00446438,57 5.88334415,57 L44.4344648,57 C47.506049,57 50,54.5518252 50,51.5363134 L50,30" id="Shape" stroke="#1A1A1C" stroke-width="2.67"></path>
                        <path d="M50,9 L50,7.89541165 C50,5.57458301 49.1546801,3.61399656 48,3" id="Shape" stroke="#1A1A1C" stroke-width="2.67"></path>
                        <path d="M45,2.55038221 C45,1.14273801 43.9105252,0 42.5684915,0 L2.43150846,0 C1.08960731,0 0,1.14273801 0,2.55038221 L0,51.4496178 C0,52.857262 1.08960731,54 2.43150846,54 L42.5684915,54 C43.9105252,54 45,52.857262 45,51.4496178 L45,2.55038221 Z" id="Shape" stroke="#1A1A1C" stroke-width="2.67"></path>
                        <path d="M51,10.2250998 C51,9.54900562 50.327919,9 49.5000437,9 L45,9 L45,16 L49.5000437,16 C50.327919,16 51,15.451137 51,14.7750428 L51,10.2250998 Z" id="Shape" stroke="#1A1A1C" stroke-width="2.67"></path>
                        <path d="M51,17.2249572 C51,16.548863 50.327919,16 49.5000437,16 L45,16 L45,23 L49.5000437,23 C50.327919,23 51,22.4509944 51,21.7749002 L51,17.2249572 Z" id="Shape" stroke="#1A1A1C" stroke-width="2.67"></path>
                        <path d="M51,23.2249822 C51,22.5488742 50.327919,22 49.5000437,22 L45,22 L45,29 L49.5000437,29 C50.327919,29 51,28.4511258 51,27.7750178 L51,23.2249822 Z" id="Shape" stroke="#1A1A1C" stroke-width="2.67"></path>
                        <path d="M10,36 L34,36" id="Shape" stroke="#1A1A1C" stroke-width="2.67"></path>
                        <g id="Logo" transform="translate(9.272727, 3.843988)" fill-rule="nonzero" stroke="#1C1A1A" stroke-width="2">
                            <path d="M25.0486632,15.7100986 L25.0486532,15.7101159 C26.1716611,13.7715876 26.1716611,11.3836785 25.0486509,9.44514629 L21.9724793,4.13502473 C20.8487933,2.19532605 18.7712392,0.999942001 16.5223764,1 L10.3693296,0.999999999 C8.11986267,1.00011015 6.04191682,2.19631365 4.91843212,4.13725693 L1.84225592,9.4473864 C0.719248028,11.3859147 0.719248028,13.7738238 1.84225821,15.712356 L4.91831088,21.0222723 C6.04244032,22.9616756 8.12023293,24.1565649 10.3692806,24.1560115 L16.5216542,24.1560115 C18.7704912,24.1560695 20.8480454,22.9606855 21.9717514,21.0209522 L25.0486632,15.7100986 Z M25.0486632,15.7100986 L25.0486732,15.7100813 L25.0486632,15.7100986 Z" id="Path"></path>
                            <path d="M21.0339822,14.4446269 L21.0339718,14.4446443 C21.726897,13.2878033 21.726897,11.86772 21.0339694,10.7108749 L18.950112,7.23183114 C18.2498393,6.06272341 16.9460918,5.33720808 15.5298209,5.3372434 L11.3616422,5.3372434 C9.94500242,5.33731049 8.64101542,6.06331966 7.94079945,7.23329222 L5.85693732,10.712344 C5.1640121,11.869185 5.1640121,13.2892683 5.8569397,14.4461134 L7.94067314,17.9249503 C8.64122617,19.0938866 9.94512981,19.8191052 11.3615948,19.8187682 L15.5293392,19.8187682 C16.9455851,19.8188035 18.2493327,19.0932882 18.9496263,17.9241456 L21.0339822,14.4446269 Z M21.0339822,14.4446269 L21.0339927,14.4446095 L21.0339822,14.4446269 Z" id="Path-Copy-2"></path>
                            <circle id="Oval-4" cx="13.4454545" cy="12.5780059" r="2.90351906"></circle>
                        </g>
                        <path d="M10,43 L34,43" id="Shape" stroke="#1A1A1C" stroke-width="2.67"></path>
                    </g>
                </g>
            </g>
        </g>
    </g>
</svg>