<svg id="Layer_1" data-name="Layer 1" xmlns="http://www.w3.org/2000/svg" viewBox="0 0 206.64 128.44"><title>icon-wv</title><path id="Page-1" d="M240.17,1554.27h0a24.11,24.11,0,0,0,0-24.25l-6-10.35-6-10.35A24.46,24.46,0,0,0,207,1497.18H182.9a24.46,24.46,0,0,0-21.16,12.13l-12,20.71a24.11,24.11,0,0,0,0,24.25l12,20.71a24.46,24.46,0,0,0,21.16,12.13H207A24.46,24.46,0,0,0,228.13,1575l6-10.35Z" transform="translate(-94.78 -1495.68)" fill="none" stroke="#fff" stroke-width="3"/><path id="Rectangle-3-Copy-2" d="M187.49,1524h0a1.66,1.66,0,0,0-1.66,1.66v32.42a1.66,1.66,0,0,0,1.66,1.66h0a1.66,1.66,0,0,0,1.66-1.66V1525.7A1.66,1.66,0,0,0,187.49,1524Z" transform="translate(-94.78 -1495.68)" fill="#fff"/><path id="Rectangle-3-Copy-2-2" data-name="Rectangle-3-Copy-2" d="M186.11,1524.76h0a1.66,1.66,0,0,0,.44,2.31l24,16.37a1.66,1.66,0,0,0,2.31-.44h0a1.66,1.66,0,0,0-.44-2.31l-24-16.37A1.66,1.66,0,0,0,186.11,1524.76Z" transform="translate(-94.78 -1495.68)" fill="#fff"/><path id="Rectangle-3-Copy-2-3" data-name="Rectangle-3-Copy-2" d="M212.84,1541.3h0a1.66,1.66,0,0,0-2.31-.44l-24,16.35a1.66,1.66,0,0,0-.44,2.31h0a1.66,1.66,0,0,0,2.31.44l24-16.35A1.66,1.66,0,0,0,212.84,1541.3Z" transform="translate(-94.78 -1495.68)" fill="#fff"/><path d="M99.41,1623.78L94.78,1607h4l2.9,11.76L105,1607h3.12l3.24,11.76,2.9-11.76h4l-4.63,16.8h-4.37l-2.74-9.91-2.74,9.91H99.41Z" transform="translate(-94.78 -1495.68)" fill="#fff"/><path d="M129.65,1623.78l-0.84-2.64h-6.24l-0.84,2.64h-4.2l5.71-16.8h4.9l5.71,16.8h-4.2Zm-5.93-6.24h3.94l-2-6.17Z" transform="translate(-94.78 -1495.68)" fill="#fff"/><path d="M145.37,1607v3.7h-4.32v13.1h-3.84v-13.1h-4.32V1607h12.48Z" transform="translate(-94.78 -1495.68)" fill="#fff"/><path d="M154.11,1624.11a8.74,8.74,0,1,1,0-17.47,8.6,8.6,0,0,1,4.18,1,7.89,7.89,0,0,1,3,2.84l-3.31,1.92a3.79,3.79,0,0,0-1.58-1.52,4.89,4.89,0,0,0-2.3-.54,4.75,4.75,0,0,0-3.56,1.37,5.6,5.6,0,0,0,0,7.25,4.75,4.75,0,0,0,3.56,1.37,4.88,4.88,0,0,0,2.32-.55,3.74,3.74,0,0,0,1.57-1.51l3.31,1.92a7.72,7.72,0,0,1-3,2.84A8.64,8.64,0,0,1,154.11,1624.11Z" transform="translate(-94.78 -1495.68)" fill="#fff"/><path d="M172.23,1607h3.84v16.8h-3.84v-6.67h-5.28v6.67h-3.84V1607h3.84v6.43h5.28V1607Z" transform="translate(-94.78 -1495.68)" fill="#fff"/><path d="M196.23,1607v3.7h-4.32v13.1h-3.84v-13.1h-4.32V1607h12.48Z" transform="translate(-94.78 -1495.68)" fill="#fff"/><path d="M207,1607h3.84v16.8H207v-6.67h-5.28v6.67h-3.84V1607h3.84v6.43H207V1607Z" transform="translate(-94.78 -1495.68)" fill="#fff"/><path d="M217.59,1620.08h6.72v3.7H213.75V1607h10.44v3.7h-6.6v2.78h6v3.65h-6v3Z" transform="translate(-94.78 -1495.68)" fill="#fff"/><path d="M236.5,1623.78L231,1607h4.2l3.72,12.36,3.72-12.36h4.2l-5.47,16.8h-4.9Z" transform="translate(-94.78 -1495.68)" fill="#fff"/><path d="M248.31,1607h3.84v16.8h-3.84V1607Z" transform="translate(-94.78 -1495.68)" fill="#fff"/><path d="M261.75,1607a7.78,7.78,0,0,1,5.82,2.41,8.83,8.83,0,0,1,0,12,7.78,7.78,0,0,1-5.82,2.41H255V1607h6.72Zm0,13.1a4.28,4.28,0,0,0,3.23-1.28,5.35,5.35,0,0,0,0-6.84,4.28,4.28,0,0,0-3.23-1.28h-2.88v9.41h2.88Z" transform="translate(-94.78 -1495.68)" fill="#fff"/><path d="M275.91,1620.08h6.72v3.7H272.07V1607h10.44v3.7h-6.6v2.78h6v3.65h-6v3Z" transform="translate(-94.78 -1495.68)" fill="#fff"/><path d="M298.87,1621.59a8.87,8.87,0,1,1,2.54-6.22A8.47,8.47,0,0,1,298.87,1621.59Zm-9.68-2.62a5.08,5.08,0,0,0,7,0,5.32,5.32,0,0,0,0-7.2,5.08,5.08,0,0,0-7,0A5.32,5.32,0,0,0,289.19,1619Z" transform="translate(-94.78 -1495.68)" fill="#fff"/></svg>