<?xml version="1.0" encoding="UTF-8"?>
<svg width="52px" height="54px" viewBox="0 0 52 54" version="1.1" xmlns="http://www.w3.org/2000/svg" xmlns:xlink="http://www.w3.org/1999/xlink">
    <!-- Generator: sketchtool 51.3 (57544) - http://www.bohemiancoding.com/sketch -->
    <title>538B75C2-6A92-4B09-989E-03A7F8A9B062</title>
    <desc>Created with sketchtool.</desc>
    <defs></defs>
    <g id="Page-1" stroke="none" stroke-width="1" fill="none" fill-rule="evenodd">
        <g id="apla-main-1360-copy" transform="translate(-131.000000, -649.000000)" stroke="#FFFFFF" stroke-width="3">
            <g id="Page-1" transform="translate(131.000000, 649.000000)">
                <g id="Group-5">
                    <path d="M26.1024947,19.7120925 C22.0109158,19.7120925 18.6815474,22.9959675 18.6815474,27.0331425 C18.6815474,31.0703175 22.0109158,34.3541925 26.1024947,34.3541925 C30.1940737,34.3541925 33.5234421,31.0703175 33.5234421,27.0331425 C33.5234421,22.9959675 30.1940737,19.7120925 26.1024947,19.7120925" id="Path"></path>
                    <path d="M23.3957579,52.5000675 L28.8092316,52.5000675 C30.2696943,52.5000675 31.4521263,51.3332868 31.4521263,49.9122675 L31.4521263,44.4991058 L32.44376,44.1418898 C34.4283205,43.4269919 36.2603344,42.388699 37.8934664,41.0528386 L38.6906458,40.4007662 L39.5855636,40.9104873 L43.4507565,43.1119977 C44.0680757,43.4632321 44.7803223,43.5557763 45.4691732,43.3740342 C46.1559397,43.1922918 46.7215153,42.7641067 47.0742417,42.1614892 L49.781244,37.5371051 C50.5000511,36.3076048 50.0710567,34.7288327 48.8161879,34.013957 L44.0933329,31.3238136 L44.285096,30.2769271 C44.4820966,29.2014482 44.5821263,28.1099713 44.5821263,27.0331425 C44.5821263,26.1600263 44.5171148,25.2774846 44.3888601,24.4092396 L44.2389436,23.3943509 L45.1303963,22.8866242 L48.9618556,20.7044174 C49.5741409,20.3556159 50.0051293,19.8012713 50.1870477,19.1322228 C50.3679195,18.4670233 50.2762524,17.7802831 49.9259477,17.1818031 L47.2193854,12.5570013 C46.4926839,11.3159158 44.8624462,10.8846487 43.5970239,11.6060353 L39.1761336,14.1237594 L38.3730535,13.4198067 C36.6242435,11.8868592 34.6315265,10.7124119 32.4441924,9.9252259 L31.4521263,9.56819745 L31.4521263,4.1540175 C31.4521263,2.73320433 30.2698999,1.5668925 28.8092316,1.5668925 L23.3957579,1.5668925 C21.934884,1.5668925 20.7521789,2.73341048 20.7521789,4.1540175 L20.7521789,9.56809678 L19.7602397,9.92518026 C17.3879016,10.7791869 15.2517266,12.0850205 13.4021615,13.8115468 L12.5951745,14.5648506 L11.6360045,14.0183276 L8.17825056,12.0481427 C6.912535,11.3272703 5.28184937,11.75862 4.55545837,12.9987458 L1.84869667,17.6245633 C1.12973767,18.8531615 1.55854131,20.4322148 2.81278501,21.1465535 L7.84982954,24.0161136 L7.73854586,24.9987403 C7.66184987,25.6759602 7.62286316,26.360739 7.62286316,27.0331425 C7.62286316,28.0807626 7.71699557,29.1400853 7.90264077,30.1804051 L8.08870726,31.2230858 L7.16838275,31.7473058 L3.27323917,33.9659926 C2.66054383,34.3150276 2.2291574,34.869594 2.04760041,35.5373123 C1.86685838,36.2036248 1.95851849,36.8903127 2.30919521,37.4886892 L5.01579292,42.1142265 C5.74184681,43.3545198 7.3718131,43.7854467 8.63866644,43.0644252 L13.4384537,40.3304848 L14.2366503,40.9901601 C15.8916158,42.3579183 17.7490845,43.4175204 19.75999,44.1410149 L20.7521789,44.49799 L20.7521789,49.9122675 C20.7521789,51.3330807 21.9350896,52.5000675 23.3957579,52.5000675 Z" id="Path"></path>
                </g>
            </g>
        </g>
    </g>
</svg>