<?xml version="1.0" encoding="UTF-8" standalone="no"?>
<svg
   xmlns:dc="http://purl.org/dc/elements/1.1/"
   xmlns:cc="http://creativecommons.org/ns#"
   xmlns:rdf="http://www.w3.org/1999/02/22-rdf-syntax-ns#"
   xmlns:svg="http://www.w3.org/2000/svg"
   xmlns="http://www.w3.org/2000/svg"
   xmlns:sodipodi="http://sodipodi.sourceforge.net/DTD/sodipodi-0.dtd"
   xmlns:inkscape="http://www.inkscape.org/namespaces/inkscape"
   id="Layer_1"
   data-name="Layer 1"
   viewBox="0 0 72.36 79.98"
   version="1.1"
   sodipodi:docname="icon-lock-white.svg"
   inkscape:version="0.92.1 r15371">
  <metadata
     id="metadata4502">
    <rdf:RDF>
      <cc:Work
         rdf:about="">
        <dc:format>image/svg+xml</dc:format>
        <dc:type
           rdf:resource="http://purl.org/dc/dcmitype/StillImage" />
        <dc:title>icon-lock</dc:title>
      </cc:Work>
    </rdf:RDF>
  </metadata>
  <defs
     id="defs4500" />
  <sodipodi:namedview
     pagecolor="#ffffff"
     bordercolor="#666666"
     borderopacity="1"
     objecttolerance="10"
     gridtolerance="10"
     guidetolerance="10"
     inkscape:pageopacity="0"
     inkscape:pageshadow="2"
     inkscape:window-width="2560"
     inkscape:window-height="1377"
     id="namedview4498"
     showgrid="false"
     inkscape:zoom="5.339991"
     inkscape:cx="49.074105"
     inkscape:cy="23.10158"
     inkscape:window-x="-8"
     inkscape:window-y="-8"
     inkscape:window-maximized="1"
     inkscape:current-layer="Layer_1" />
  <title
     id="title4485">icon-lock</title>
  <path
     d="M983,321.69h-4V307.46a11.8,11.8,0,0,0-23.55,0v14.22h-4v-14.4a15.8,15.8,0,0,1,31.55,0v14.4Z"
     transform="translate(-938.02 -292.4)"
     id="path4487"
     style="fill:#ffffff" />
  <path
     d="M984.26,362.4a12,12,0,0,1-10.37,6H960.62a12,12,0,0,1-10.37-6l-6.63-11.49a12,12,0,0,1,0-12l6.63-11.49a12,12,0,0,1,10.37-6h13.27a12,12,0,0,1,10.37,6l0.35,0.61h4.62l-1.51-2.61a16,16,0,0,0-13.83-8H960.62a16,16,0,0,0-13.83,8l-6.63,11.49a16,16,0,0,0,0,16l6.63,11.49a16,16,0,0,0,13.83,8h13.27a16,16,0,0,0,13.83-8l5.46-9.45h-4.62Z"
     transform="translate(-938.02 -292.4)"
     id="path4489"
     style="fill:#ffffff" />
  <path
     d="M967.57,360.58a6,6,0,0,1-6-6v-5.33a10,10,0,1,1,12-.47v5.81A6,6,0,0,1,967.57,360.58Zm-0.31-25.45a6,6,0,0,0-2.75,11.23l1.07,0.56v7.67a2,2,0,0,0,4,0v-7.91l0.92-.59A6,6,0,0,0,967.25,335.13Z"
     transform="translate(-938.02 -292.4)"
     id="path4491"
     style="fill:#ffffff" />
  <path
     d="M994.5,356.73a15.88,15.88,0,1,1,15.88-15.88A15.89,15.89,0,0,1,994.5,356.73Zm0-27.75a11.88,11.88,0,1,0,11.88,11.88A11.89,11.89,0,0,0,994.5,329Z"
     transform="translate(-938.02 -292.4)"
     id="path4493"
     style="fill:#ffffff" />
  <path
     d="M993.48,346.49a4.71,4.71,0,0,1-3.11-1.17L986.58,342a2,2,0,1,1,2.64-3l3.78,3.32a0.72,0.72,0,0,0,1.08-.16L1005,324.74a2,2,0,0,1,3.39,2.12l-10.88,17.42A4.72,4.72,0,0,1,993.48,346.49Z"
     transform="translate(-938.02 -292.4)"
     id="path4495"
     style="fill:#ffffff" />
</svg>
