<svg id="Layer_1" data-name="Layer 1" xmlns="http://www.w3.org/2000/svg" viewBox="0 0 54 54"><title>icon-survey</title><g id="Style-Guide"><g id="Apla-StyleGuide-Exportable"><g id="icon-digital-voting"><rect id="Rectangle-5-Copy" x="1.5" y="1.5" width="51" height="51" rx="4" ry="4" fill="none" stroke="#000" stroke-width="3"/><path id="Rectangle-2-Copy" d="M996.79,1228.35h21a1.5,1.5,0,0,1,1.5,1.5h0a1.5,1.5,0,0,1-1.5,1.5h-21a1.5,1.5,0,0,1-1.5-1.5h0A1.5,1.5,0,0,1,996.79,1228.35Z" transform="translate(-973.29 -1218.35)"/><path id="Rectangle-2-Copy-2" d="M996.79,1243.35h21a1.5,1.5,0,0,1,1.5,1.5h0a1.5,1.5,0,0,1-1.5,1.5h-21a1.5,1.5,0,0,1-1.5-1.5h0A1.5,1.5,0,0,1,996.79,1243.35Z" transform="translate(-973.29 -1218.35)"/><path id="Rectangle-2-Copy-3" d="M996.79,1258.35h21a1.5,1.5,0,0,1,1.5,1.5h0a1.5,1.5,0,0,1-1.5,1.5h-21a1.5,1.5,0,0,1-1.5-1.5h0A1.5,1.5,0,0,1,996.79,1258.35Z" transform="translate(-973.29 -1218.35)"/><g id="Rectangle-4-Copy"><rect id="path-1" x="6" y="5" width="13" height="13" fill="none"/><rect x="7.5" y="6.5" width="10" height="10" fill="none" stroke="#000" stroke-width="3"/></g><g id="Rectangle-4-Copy-2"><rect id="path-2" x="6" y="20" width="13" height="13" fill="none"/><rect x="7.5" y="21.5" width="10" height="10" fill="none" stroke="#000" stroke-width="3"/></g><g id="Rectangle-4-Copy-3"><rect id="path-3" x="6" y="35" width="13" height="13" fill="none"/><rect x="7.5" y="36.5" width="10" height="10" fill="none" stroke="#000" stroke-width="3"/></g></g></g></g></svg>