<svg id="Layer_1" data-name="Layer 1" xmlns="http://www.w3.org/2000/svg" viewBox="0 0 35 56"><title>icon-own-blockchain</title><path d="M502.23,1165.9v2.42a0.69,0.69,0,0,0,1.09.55,5.38,5.38,0,0,1,1.16-.67v-2.38a2.31,2.31,0,0,1,1.8-2.3,2.25,2.25,0,0,1,2.7,2.21v5.15a2.33,2.33,0,0,1-1.45,2.19,2.16,2.16,0,0,1-1.26.1,0.68,0.68,0,0,0-.8.58,8,8,0,0,0-.08.94,0.7,0.7,0,0,0,.57.71,4.55,4.55,0,0,0,1.45,0,4.6,4.6,0,0,0,3.82-4.6v-5.1a4.51,4.51,0,0,0-5.09-4.46A4.61,4.61,0,0,0,502.23,1165.9Z" transform="translate(-489.23 -1146.12)"/><path d="M509,1176.55v1.86a2.31,2.31,0,0,1-1.8,2.3,2.25,2.25,0,0,1-2.7-2.21v-5.16a2.31,2.31,0,0,1,1.8-2.3,2.25,2.25,0,0,1,2.7,2.21v1.64a4.57,4.57,0,0,0,2-3.06,4.5,4.5,0,0,0-4.78-3.05,4.61,4.61,0,0,0-4,4.64v4.92a4.61,4.61,0,0,0,3.91,4.62,4.51,4.51,0,0,0,5.09-4.46v-2a0.69,0.69,0,0,0-1.08-.57A5.48,5.48,0,0,1,509,1176.55Z" transform="translate(-489.23 -1146.12)"/><rect id="Rectangle-16" x="1.5" y="1.5" width="32" height="53" rx="4" ry="4" fill="none" stroke="#000" stroke-width="3"/><path id="Rectangle" d="M492.73,1187.12h30a1.5,1.5,0,0,1,1.5,1.5h0a1.5,1.5,0,0,1-1.5,1.5h-30a1.5,1.5,0,0,1-1.5-1.5h0A1.5,1.5,0,0,1,492.73,1187.12Z" transform="translate(-489.23 -1146.12)"/><path id="Rectangle-Copy" d="M492.73,1154.12h30a1.5,1.5,0,0,1,1.5,1.5h0a1.5,1.5,0,0,1-1.5,1.5h-30a1.5,1.5,0,0,1-1.5-1.5h0A1.5,1.5,0,0,1,492.73,1154.12Z" transform="translate(-489.23 -1146.12)"/><circle id="Oval" cx="17" cy="48" r="2"/></svg>