<svg id="Layer_1" data-name="Layer 1" xmlns="http://www.w3.org/2000/svg" viewBox="0 0 43.41 73.66"><title>icon-lightning</title><path d="M268.74,372.24a2.86,2.86,0,0,1-1.35-.34,2.8,2.8,0,0,1-1.35-3.38l10.24-30.82a2.16,2.16,0,0,0-2-2.89h-3.81a6.1,6.1,0,0,1-5.85-7.86l6.88-21.91a9.05,9.05,0,0,1,8.72-6.47h10.08a5.86,5.86,0,0,1,5.41,8.1l-6.57,15.87a1.19,1.19,0,0,0,1.1,1.65h13a4.57,4.57,0,0,1,3.62,7.34l-36,39.72A2.62,2.62,0,0,1,268.74,372.24Zm1-2.47h0Zm-1.85-1.16-0.12.13Zm12.26-66.09a5.15,5.15,0,0,0-5,3.69l-6.88,21.91a2.16,2.16,0,0,0,2.08,2.76h3.81A6.1,6.1,0,0,1,280,339l-8.55,25.75L303.77,329a0.66,0.66,0,0,0-.6-0.88h-13a5.13,5.13,0,0,1-4.74-7.09L292,305.17a1.92,1.92,0,0,0-1.78-2.66H280.19Z" transform="translate(-264.32 -298.58)"/></svg>