<svg id="Layer_1" data-name="Layer 1" xmlns="http://www.w3.org/2000/svg" viewBox="0 0 72.36 79.98"><title>icon-lock</title><path d="M983,321.69h-4V307.46a11.8,11.8,0,0,0-23.55,0v14.22h-4v-14.4a15.8,15.8,0,0,1,31.55,0v14.4Z" transform="translate(-938.02 -292.4)"/><path d="M984.26,362.4a12,12,0,0,1-10.37,6H960.62a12,12,0,0,1-10.37-6l-6.63-11.49a12,12,0,0,1,0-12l6.63-11.49a12,12,0,0,1,10.37-6h13.27a12,12,0,0,1,10.37,6l0.35,0.61h4.62l-1.51-2.61a16,16,0,0,0-13.83-8H960.62a16,16,0,0,0-13.83,8l-6.63,11.49a16,16,0,0,0,0,16l6.63,11.49a16,16,0,0,0,13.83,8h13.27a16,16,0,0,0,13.83-8l5.46-9.45h-4.62Z" transform="translate(-938.02 -292.4)"/><path d="M967.57,360.58a6,6,0,0,1-6-6v-5.33a10,10,0,1,1,12-.47v5.81A6,6,0,0,1,967.57,360.58Zm-0.31-25.45a6,6,0,0,0-2.75,11.23l1.07,0.56v7.67a2,2,0,0,0,4,0v-7.91l0.92-.59A6,6,0,0,0,967.25,335.13Z" transform="translate(-938.02 -292.4)"/><path d="M994.5,356.73a15.88,15.88,0,1,1,15.88-15.88A15.89,15.89,0,0,1,994.5,356.73Zm0-27.75a11.88,11.88,0,1,0,11.88,11.88A11.89,11.89,0,0,0,994.5,329Z" transform="translate(-938.02 -292.4)"/><path d="M993.48,346.49a4.71,4.71,0,0,1-3.11-1.17L986.58,342a2,2,0,1,1,2.64-3l3.78,3.32a0.72,0.72,0,0,0,1.08-.16L1005,324.74a2,2,0,0,1,3.39,2.12l-10.88,17.42A4.72,4.72,0,0,1,993.48,346.49Z" transform="translate(-938.02 -292.4)"/></svg>