<?xml version="1.0" encoding="UTF-8"?>
<svg width="36px" height="42px" viewBox="0 0 36 42" version="1.1" xmlns="http://www.w3.org/2000/svg" xmlns:xlink="http://www.w3.org/1999/xlink">
    <!-- Generator: sketchtool 51.3 (57544) - http://www.bohemiancoding.com/sketch -->
    <title>7630753D-0688-40D5-BC54-0B3A987B2F08</title>
    <desc>Created with sketchtool.</desc>
    <defs></defs>
    <g id="Page-1" stroke="none" stroke-width="1" fill="none" fill-rule="evenodd" stroke-linecap="round" stroke-linejoin="round">
        <g id="resources" transform="translate(-531.000000, -392.000000)" stroke="#1A1A1C" stroke-width="2.4">
            <g id="Group-16" transform="translate(495.000000, 357.000000)">
                <g id="documentation-download" transform="translate(38.000000, 37.000000)">
                    <path d="M6.85714286,11.4 L25.1428571,11.4" id="Stroke-1"></path>
                    <path d="M6.85714286,17.48 L25.1428571,17.48" id="Stroke-3"></path>
                    <path d="M6.85714286,23.56 L25.1428571,23.56" id="Stroke-5"></path>
                    <path d="M6.85714286,29.64 L25.1428571,29.64" id="Stroke-7"></path>
                    <path d="M0,12.7390918 L0,36.0183354 C0,37.1120438 0.883214333,38 1.97108208,38 L30.0289641,38 C31.1168318,38 32,37.1120438 32,36.0183354 L32,13.3940723" id="Stroke-9"></path>
                    <path d="M32,15.2 L32,6.25251784 L25.6679346,0 L1.97108208,0 C0.883214333,0 0,0.872118814 0,1.94632006 L0,14.4971484" id="Stroke-11"></path>
                    <polygon id="Stroke-23" points="31.2380952 6.08 25.1428571 0 25.1428571 6.08"></polygon>
                </g>
            </g>
        </g>
    </g>
</svg>