<svg id="Layer_1" data-name="Layer 1" xmlns="http://www.w3.org/2000/svg" viewBox="0 0 49 56.5"><title>icon-rad</title><path id="Rectangle-15" d="M495.48,997.41a6.5,6.5,0,0,1-.27-1.85h0a6.5,6.5,0,0,1,6.5-6.5h0a6.5,6.5,0,0,1,6.5,6.5h0a6.5,6.5,0,0,1-.27,1.85" transform="translate(-477.21 -987.55)" fill="none" stroke="#000" stroke-width="3"/><circle id="Oval-7" cx="24.5" cy="32" r="23" fill="none" stroke="#000" stroke-width="3"/><path id="Rectangle-14" d="M479.77,1000.61h0a1.5,1.5,0,0,1,2.12,0l2.83,2.83a1.5,1.5,0,0,1,0,2.12h0a1.5,1.5,0,0,1-2.12,0l-2.83-2.83A1.5,1.5,0,0,1,479.77,1000.61Z" transform="translate(-477.21 -987.55)"/><path id="Rectangle-14-Copy" d="M523.72,1000.61h0a1.5,1.5,0,0,0-2.12,0l-2.83,2.83a1.5,1.5,0,0,0,0,2.12h0a1.5,1.5,0,0,0,2.12,0l2.83-2.83A1.5,1.5,0,0,0,523.72,1000.61Z" transform="translate(-477.21 -987.55)"/><path id="Rectangle-14-Copy-2" d="M512.23,1008.61h0a1.5,1.5,0,0,0-2.12,0l-6.34,6.34a1.5,1.5,0,0,0,0,2.12h0a1.5,1.5,0,0,0,2.12,0l6.34-6.34A1.5,1.5,0,0,0,512.23,1008.61Z" transform="translate(-477.21 -987.55)"/><path id="Rectangle-14-Copy-3" d="M501.71,995.55h0a1.5,1.5,0,0,0-1.5,1.5v4.07a1.5,1.5,0,0,0,1.5,1.5h0a1.5,1.5,0,0,0,1.5-1.5v-4.07A1.5,1.5,0,0,0,501.71,995.55Z" transform="translate(-477.21 -987.55)"/><path id="Rectangle-14-Copy-4" d="M502.21,1035.55h0a1.5,1.5,0,0,0-1.5,1.5v4.07a1.5,1.5,0,0,0,1.5,1.5h0a1.5,1.5,0,0,0,1.5-1.5v-4.07A1.5,1.5,0,0,0,502.21,1035.55Z" transform="translate(-477.21 -987.55)"/><path id="Rectangle-14-Copy-5" d="M517.71,1020.05h0a1.5,1.5,0,0,0,1.5,1.5h4.07a1.5,1.5,0,0,0,1.5-1.5h0a1.5,1.5,0,0,0-1.5-1.5h-4.07A1.5,1.5,0,0,0,517.71,1020.05Z" transform="translate(-477.21 -987.55)"/><path id="Rectangle-14-Copy-6" d="M478.71,1020.05h0a1.5,1.5,0,0,0,1.5,1.5h4.07a1.5,1.5,0,0,0,1.5-1.5h0a1.5,1.5,0,0,0-1.5-1.5h-4.07A1.5,1.5,0,0,0,478.71,1020.05Z" transform="translate(-477.21 -987.55)"/><circle id="Oval" cx="24.5" cy="32" r="4" fill="none" stroke="#000" stroke-width="3"/></svg>