<?xml version="1.0" encoding="UTF-8"?>
<svg width="49px" height="51px" viewBox="0 0 49 51" version="1.1" xmlns="http://www.w3.org/2000/svg" xmlns:xlink="http://www.w3.org/1999/xlink">
    <!-- Generator: Sketch 51.3 (57544) - http://www.bohemiancoding.com/sketch -->
    <title>interface copy 3</title>
    <desc>Created with Sketch.</desc>
    <defs></defs>
    <g id="Page-1" stroke="none" stroke-width="1" fill="none" fill-rule="evenodd">
        <g id="Desktop-Copy" transform="translate(-127.000000, -1051.000000)" stroke="#1C1A1A">
            <g id="Learn-about-apla-" transform="translate(101.000000, 871.000000)">
                <g id="UI" transform="translate(27.000000, 181.000000)">
                    <g id="interface-copy-3">
                        <rect id="Rectangle-8" stroke-width="2" fill="#FFFFFF" fill-rule="nonzero" x="1" y="1" width="44.5647051" height="40.8395287"></rect>
                        <path d="M40.7556306,42.8395287 L44.9468847,42.8395287 C45.8397908,42.8395287 46.5647051,42.1333781 46.5647051,41.2634651 L46.5647051,1.5760636 C46.5647051,0.706150649 45.8397908,0 44.9468847,0 L1.61794243,0 C0.724914335,0 0,0.706150649 0,1.5760636 L0,41.2634651 C0,42.1333781 0.724914335,42.8395287 1.61794243,42.8395287 L27.4448761,42.8395287" id="Shape" stroke-width="1.67"></path>
                        <path d="M36.1226373,39.1143523 L39.5674977,39.1143523 C41.3734416,39.1143523 42.8395287,37.8625311 42.8395287,36.3205227 C42.8395287,34.7785143 41.3734416,33.5265877 39.5674977,33.5265877 L21.8980365,33.5265877 C20.0920927,33.5265877 18.6258821,34.7785143 18.6258821,36.3205227 C18.6258821,37.8625311 20.0920927,39.1143523 21.8980365,39.1143523 L29.7458495,39.1143523" id="Shape" stroke-width="1.67"></path>
                        <rect id="Rectangle-path" stroke-width="1.67" x="18.6258821" y="3.72517641" width="24.2136467" height="24.2136467"></rect>
                        <path d="M13.0381174,5.58776462 L3.72517641,5.58776462" id="Shape" stroke-width="1.67"></path>
                        <path d="M13.0381174,11.1755292 L3.72517641,11.1755292" id="Shape" stroke-width="1.67"></path>
                        <path d="M13.0381174,14.9007056 L3.72517641,14.9007056" id="Shape" stroke-width="1.67"></path>
                        <polygon id="Shape" stroke-width="1.67" points="39.1143523 41.3979233 35.5736805 41.7946387 38.6325605 46.8552839 35.7820197 48.4272933 32.7231397 43.3666482 30.5931 46.097127 29.8014113 35.3891759 39.1143523 41.3979233"></polygon>
                    </g>
                </g>
            </g>
        </g>
    </g>
</svg>