<?xml version="1.0" encoding="UTF-8" standalone="no"?>
<!-- Creator: CorelDRAW X7 -->

<svg
   xmlns:dc="http://purl.org/dc/elements/1.1/"
   xmlns:cc="http://creativecommons.org/ns#"
   xmlns:rdf="http://www.w3.org/1999/02/22-rdf-syntax-ns#"
   xmlns:svg="http://www.w3.org/2000/svg"
   xmlns="http://www.w3.org/2000/svg"
   xmlns:sodipodi="http://sodipodi.sourceforge.net/DTD/sodipodi-0.dtd"
   xmlns:inkscape="http://www.inkscape.org/namespaces/inkscape"
   xml:space="preserve"
   width="120"
   height="120"
   version="1.0"
   style="clip-rule:evenodd;fill-rule:evenodd;image-rendering:optimizeQuality;shape-rendering:geometricPrecision;text-rendering:geometricPrecision"
   viewBox="0 0 120 120"
   id="svg4523"
   sodipodi:docname="linux.svg"
   inkscape:version="0.92.1 r15371"><metadata
     id="metadata4527"><rdf:RDF><cc:Work
         rdf:about=""><dc:format>image/svg+xml</dc:format><dc:type
           rdf:resource="http://purl.org/dc/dcmitype/StillImage" /><dc:title></dc:title></cc:Work></rdf:RDF></metadata><sodipodi:namedview
     pagecolor="#ffffff"
     bordercolor="#666666"
     borderopacity="1"
     objecttolerance="10"
     gridtolerance="10"
     guidetolerance="10"
     inkscape:pageopacity="0"
     inkscape:pageshadow="2"
     inkscape:window-width="1920"
     inkscape:window-height="1137"
     id="namedview4525"
     showgrid="false"
     inkscape:zoom="6.3209716"
     inkscape:cx="69.325559"
     inkscape:cy="64.692406"
     inkscape:window-x="-8"
     inkscape:window-y="-8"
     inkscape:window-maximized="1"
     inkscape:current-layer="svg4523" /><defs
     id="defs4517"><style
       type="text/css"
       id="style4515"><![CDATA[
    .fil0 {fill:#2B2A29}
   ]]></style></defs><rect
     style="opacity:1;fill:#ffffff;fill-opacity:0.00392157;stroke:none;stroke-width:0.06533363;stroke-linecap:round;stroke-linejoin:round;stroke-miterlimit:4;stroke-dasharray:none;stroke-opacity:1"
     id="rect5072"
     width="120"
     height="120"
     x="0"
     y="0" /><g
     id="Слой_x0020_1"
     transform="matrix(0.02002083,0,0,0.02002083,20.749085,13.844273)"><metadata
       id="CorelCorpID_0Corel-Layer" /><path
       class="fil0"
       d="m 1361,3926 c 165,-17 187,-192 109,-268 -64,-63 -417,-325 -509,-428 -43,-48 -101,-71 -125,-125 -57,-124 -96,-300 -25,-427 13,-23 22,-13 12,35 -57,270 119,491 158,378 27,-78 2,-218 17,-329 25,-197 204,-575 283,-597 -122,-224 142,-400 139,-598 -2,-128 112,158 228,219 129,67 270,-128 471,-227 57,-28 130,-60 125,-84 -23,-116 -264,142 -479,151 -98,4 -134,-20 -172,-56 -114,-111 12,-18 182,-49 76,-14 101,-26 181,-59 81,-32 172,-80 263,-105 63,-17 58,-65 33,-79 -14,-8 -35,-7 -51,21 -39,68 -223,107 -280,124 -73,23 -154,44 -262,39 -164,-6 -126,-82 -243,-149 -35,-19 -25,-71 20,-117 24,-24 90,-37 122,-92 5,-8 47,-51 80,-74 11,-8 12,-208 -91,-212 -87,-4 -112,64 -108,131 4,68 39,123 63,123 46,-1 3,50 -22,58 -38,13 -90,-150 -84,-228 6,-81 48,-225 151,-222 93,3 160,119 156,319 0,34 150,-16 201,37 36,38 -123,-355 231,-382 93,18 183,49 220,264 -14,22 23,172 -34,189 -71,22 -114,-3 -73,-70 28,-67 0,-238 -142,-228 -142,10 -123,263 -84,268 39,5 137,75 205,88 226,44 60,173 89,329 33,177 150,130 254,597 22,29 108,56 193,415 76,323 -32,558 151,538 41,-4 101,-16 127,-107 68,-239 -34,-524 -138,-717 -60,-112 -117,-188 -147,-214 119,70 270,293 305,460 46,218 79,310 9,541 41,20 140,62 140,110 -104,-85 -422,-101 -430,104 -54,1 -95,5 -130,47 -128,151 -9,456 -22,620 -12,144 -52,286 -74,431 -76,-3 -69,-59 -44,-137 21,-69 56,-156 58,-239 2,-75 -6,-121 -25,-133 -19,-12 -48,12 -89,78 -88,141 -277,202 -454,225 -176,22 -341,4 -428,-93 -29,-34 -79,9 -85,18 -8,11 29,35 57,85 40,74 78,187 -17,238 1,-261 -81,-276 -166,-435 z m -63,-7 c 63,100 287,519 -105,574 -130,18 -341,-76 -545,-126 -184,-45 -370,-72 -474,-101 -63,-18 -89,-40 -94,-66 -15,-70 76,-168 80,-250 5,-83 -30,-126 -58,-193 -29,-67 -36,-118 -13,-147 17,-22 53,-32 112,-26 74,7 164,-8 212,-37 81,-50 119,-151 83,-273 0,119 -40,164 -138,219 -92,52 -235,10 -301,67 -79,69 28,246 19,376 -6,100 -111,212 -64,312 47,101 265,112 492,160 323,67 512,185 661,190 218,9 251,-215 593,-218 100,-5 198,-8 295,-10 111,-1 221,0 334,3 228,5 150,124 297,200 125,64 349,38 403,-13 72,-69 267,-235 416,-310 186,-94 623,-255 306,-452 -74,-46 -249,-94 -264,-430 -66,59 -58,371 126,433 207,70 335,186 -48,317 -254,87 -297,113 -498,280 -203,170 -505,102 -452,-254 27,-185 43,-339 -3,-500 -22,-79 -34,-180 -18,-251 30,-138 104,-179 177,-47 46,83 62,180 227,188 258,13 309,-249 392,-261 55,-8 110,-164 68,-416 -45,-270 -204,-696 -407,-912 -170,-180 -276,-337 -343,-562 -57,-189 -88,-372 -77,-548 C 2705,607 2578,290 2377,141 2251,48 2054,-2 1876,0 c -101,1 -195,16 -267,55 -298,162 -340,393 -335,657 4,248 12,530 40,799 -33,124 -207,358 -318,501 -149,147 -224,432 -321,682 -52,132 -139,192 -146,363 -2,48 0,172 45,136 175,-135 394,206 724,726 z M 2205,347 c -9,28 -48,52 -24,71 25,20 39,-27 89,-45 13,-5 72,2 83,-26 5,-13 -31,-27 -52,-47 -21,-20 -42,-38 -62,-37 -51,3 -26,59 -34,84 z m 304,1027 c 18,-19 28,34 77,65 40,25 78,7 88,57 7,36 -16,75 -46,70 -52,-9 -174,-134 -119,-192 z m -820,-317 c -82,-6 -87,53 -60,52 27,-1 10,-46 60,-52 z M 1549,906 c 10,-2 23,15 19,38 -6,32 -3,52 19,52 4,0 8,-1 9,-9 11,-64 -23,-111 -36,-114 -31,-8 -28,37 -11,33 z m 595,-27 c 21,7 41,43 45,81 0,4 27,-5 27,-14 2,-62 -51,-92 -65,-90 -32,3 -23,19 -7,23 z m -305,186 c 74,-34 100,19 75,27 -27,9 -27,-40 -75,-27 z M 941,2331 c -35,-4 11,-30 30,-64 21,-36 17,-82 39,-75 22,7 10,32 -5,74 -13,36 -51,67 -64,65 z"
       id="path4520"
       inkscape:connector-curvature="0"
       style="fill:#2b2a29" /></g></svg>