<?xml version="1.0" standalone="no"?>
<!DOCTYPE svg PUBLIC "-//W3C//DTD SVG 20010904//EN"
 "http://www.w3.org/TR/2001/REC-SVG-20010904/DTD/svg10.dtd">
<svg version="1.0" xmlns="http://www.w3.org/2000/svg"
 width="600.000000pt" height="600.000000pt" viewBox="0 0 600.000000 600.000000"
 preserveAspectRatio="xMidYMid meet">
<metadata>
Created by potrace 1.11, written by Peter Selinger 2001-2013
</metadata>
<g transform="translate(0.000000,600.000000) scale(0.100000,-0.100000)"
fill="#000000" stroke="none">
<path d="M2147 5799 c-265 -30 -518 -124 -747 -276 -145 -97 -347 -295 -436
-428 -67 -99 -740 -1258 -797 -1370 -103 -205 -167 -483 -167 -725 0 -242 64
-520 167 -725 57 -112 730 -1271 797 -1370 87 -130 291 -331 429 -423 238
-159 485 -250 762 -282 120 -13 1570 -13 1690 0 277 32 519 121 755 277 144
96 346 293 436 428 87 129 760 1293 809 1400 205 441 205 949 0 1390 -49 107
-722 1271 -809 1400 -90 135 -292 332 -436 428 -236 156 -478 245 -755 277
-106 12 -1594 12 -1698 -1z m1768 -468 c303 -68 564 -239 739 -484 50 -71 709
-1203 766 -1317 37 -75 77 -188 102 -290 8 -36 13 -120 13 -240 0 -120 -5
-204 -13 -240 -25 -102 -65 -215 -102 -290 -58 -115 -716 -1246 -768 -1319
-174 -244 -437 -416 -742 -483 -105 -23 -106 -23 -905 -23 -726 0 -808 2 -887
18 -175 35 -325 98 -473 196 -86 57 -236 204 -297 291 -51 72 -709 1204 -765
1315 -83 164 -113 289 -120 495 -7 231 24 384 117 570 49 97 707 1231 758
1307 189 278 522 474 868 512 44 5 423 8 844 7 751 -2 767 -3 865 -25z"/>
<path d="M2435 4864 c-347 -61 -661 -261 -858 -544 -51 -74 -391 -658 -443
-762 -175 -348 -175 -794 0 -1148 58 -117 398 -700 454 -779 173 -244 449
-431 749 -507 157 -40 273 -46 738 -41 463 5 504 9 683 68 249 82 508 272 653
479 57 80 396 664 454 780 93 186 130 350 130 575 0 176 -14 264 -65 417 -39
116 -61 158 -278 533 -214 372 -266 447 -383 565 -187 188 -444 320 -708 364
-130 22 -1003 22 -1126 0z m1065 -450 c172 -32 305 -101 433 -223 44 -42 96
-101 117 -131 49 -73 364 -617 405 -700 68 -137 89 -244 83 -418 -8 -199 -30
-252 -277 -679 -113 -194 -227 -380 -254 -413 -109 -135 -292 -248 -470 -290
-83 -20 -111 -21 -565 -18 -541 4 -525 2 -697 88 -117 59 -205 126 -278 214
-53 65 -428 700 -473 803 -42 94 -65 211 -65 330 0 157 22 255 86 383 42 86
358 629 406 700 125 184 343 322 567 360 26 4 239 8 473 9 350 1 442 -2 509
-15z"/>
<path d="M2835 3946 c-209 -34 -385 -124 -536 -275 -314 -315 -386 -773 -181
-1164 159 -304 445 -496 784 -526 505 -46 935 259 1070 757 30 111 30 344 0
454 -105 388 -386 665 -755 744 -99 21 -284 26 -382 10z m340 -468 c133 -43
247 -145 313 -281 40 -80 51 -133 52 -234 0 -237 -168 -459 -395 -518 -76 -19
-214 -19 -290 0 -250 66 -426 326 -394 585 10 86 30 140 84 226 69 111 151
177 271 219 95 34 262 35 359 3z"/>
</g>
</svg>
