<svg viewBox="0 0 512 510" xmlns="http://www.w3.org/2000/svg" xmlns:serif="http://www.serif.com/" fill-rule="evenodd" clip-rule="evenodd"><path d="M512.105 126.444c0-21.862-17.74-39.61-39.587-39.61H39.592c-21.848 0-39.587 17.748-39.587 39.61v257.378c0 21.862 17.74 39.61 39.587 39.61h432.926c21.848 0 39.587-17.748 39.587-39.61V126.444z" fill="#de2910"/><path d="M85.338 120.957l30.1 92.64-78.804-57.256h97.408L55.237 213.6l30.1-92.64z" fill="#ffde00"/><path d="M177.36 105.247l-2.86 32.37-16.712-27.87 29.9 12.725-31.67 7.28 21.343-24.505z" fill="#ffde00" serif:id="s"/><path d="M217.045 143.22l-15.16 28.686-4.596-32.118 22.596 23.282-31.967-5.553 29.125-14.297z" fill="#ffde00" serif:id="s"/><path d="M220.825 200.45l-25.542 20 8.91-31.194 11.126 30.472-26.914-18.112 32.42-1.166z" fill="#ffde00" serif:id="s"/><path d="M176.7 224.473l-1.526 32.417-17.82-27.124 30.36 11.47-31.303 8.565 20.29-25.327z" fill="#ffde00" serif:id="s"/></svg>