<svg viewBox="0 0 512 510" xmlns="http://www.w3.org/2000/svg" xmlns:serif="http://www.serif.com/" fill-rule="evenodd" clip-rule="evenodd"><g transform="scale(.4 .637)"><path fill="none" d="M0 0h1280v800H0z"/><clipPath id="a"><path d="M0 0h1280v800H0z"/></clipPath><g clip-path="url(#a)"><path d="M1279.8 269.74c0-72.688-94.083-131.7-209.966-131.7H209.968C94.085 138.04 0 197.05 0 269.74V603.79c0 33.693 43.612 61.047 97.328 61.047h1081.69c55.623 0 100.783-28.327 100.783-63.217V269.74z"/><path fill="#fff" d="M0 313.726h1279.8v175.6H0z"/><path d="M1279.8 199.5c0-33.922-43.905-61.46-97.983-61.46H97.382c-53.746 0-97.38 27.37-97.38 61.08v114.52h1279.8V199.5z" fill="#ce1126"/><path d="M450.81 302.4l68.488 63.58-4.876-115.47c-.716-17.5-15.924-13.486-26.97-7.173-11.192 7.172-23.96 7.172-37.447 2.437-13.485 4.735-26.253 4.735-37.444-2.437-11.045-6.313-26.25-10.328-26.97 7.172l-4.878 115.47 70.098-63.58z" fill="#fff" stroke="#c09300" stroke-width="1.27" transform="matrix(1.398 0 0 .879 9.884 138.037)"/><g fill="#c09300"><path d="M559.955 354.702l-6.618 98.73-11.233 6.3 6.82-101.498c3.208-1.388 8.826-3.53 11.03-3.53v-.002zM573.404 361.77l-5.616 82.585-11.23 7.226 6.82-95.362c2.207 1.386 8.826 4.79 10.026 5.547v.004zM585.636 368.07l-4.41 68.88-9.024 5.547 5.617-78.587c2.2 1.387 6.613 3.405 7.816 4.16zM598.875 371.605l-4.412 58.706-8.825 4.5 4.412-65.348c2.207.63 6.62 2.143 8.825 2.143zM611.108 371.605l-3.21 48.922-9.025 5.55 3.41-53.84c2.203-.002 7.82-.002 8.825-.632z"/></g><g serif:id="w" fill="#c09300"><path d="M719.14 354.457l6.63 98.617 11.248 6.294-6.83-101.383c-3.213-1.385-8.84-3.527-11.047-3.527zM705.673 361.516l5.624 82.493 11.245 7.216-6.828-95.254c-2.21 1.384-8.84 4.785-10.04 5.54v.004zM693.423 367.812l4.416 68.8 9.037 5.54-5.625-78.497c-2.204 1.386-6.624 3.402-7.83 4.157zM680.165 371.34l4.418 58.64 8.84 4.495-4.42-65.274c-2.21.63-6.63 2.14-8.838 2.14zM667.915 371.34l3.216 48.868 9.038 5.543-3.415-53.778c-2.206 0-7.83 0-8.838-.63z"/></g><path d="M453.16 315.06l9.613 43.755-3.158 3.155-3.3-2.44-5.45-39.017 2.294 39.018-3.157 4.017-3.157-4.016 2.297-39.017-5.45 39.018-3.303 2.44-3.155-3.155 9.61-43.755h6.315z" fill="#c09300" stroke="#c09300" stroke-width="1.07" transform="matrix(1.398 0 0 .879 9.884 138.037)"/><g stroke="#c09300"><path d="M428.48 295.84l-19.08 67.705 26.255 4.018 11.188-50.924-18.363-20.8z" fill="#fff" stroke-width="1.19" transform="matrix(1.398 0 0 .879 9.884 138.037)"/><path d="M422.17 318.94l2.296 5.593 12.405-11.848M430.76 304.92l2.596 24.346 7.89-10.328M438.09 322.95l4.31 14.875M444.09 332.36l-8.718 13.24m2.72 13.217l-2.79-13.198-2.437-13.424-5.84 7.91-2.562-9.12-8.174 8.385 4.156 15.252 5.738-9.435 3.156 9.612 5.89-9.163M414.99 361.97l5.3-7.444 3.453 11.457 4.734-8.032 3.157 9.615" stroke-width="1.27" fill="none" transform="matrix(1.398 0 0 .879 9.884 138.037)"/></g><g serif:id="b" stroke="#c09300"><path d="M428.48 295.84l-19.08 67.705 26.255 4.018 11.188-50.924-18.363-20.8z" fill="#fff" stroke-width="1.19" transform="matrix(-1.398 0 0 .879 1268.084 138.037)"/><path d="M422.17 318.94l2.296 5.593 12.405-11.848M430.76 304.92l2.596 24.346 7.89-10.328M438.09 322.95l4.31 14.875M444.09 332.36l-8.718 13.24m2.72 13.217l-2.79-13.198-2.437-13.424-5.84 7.91-2.562-9.12-8.174 8.385 4.156 15.252 5.738-9.435 3.156 9.612 5.89-9.163M414.99 361.97l5.3-7.444 3.453 11.457 4.734-8.032 3.157 9.615" stroke-width="1.27" fill="none" transform="matrix(-1.398 0 0 .879 1268.084 138.037)"/></g><path d="M450 393.81c19.943 0 39.024-1.578 50.213-4.734 4.735-.86 4.735-3.298 4.735-6.455 4.736-1.577 2.295-7.17 5.595-7.17-3.3.863-4.016-5.594-8.033-4.73 0-5.598-5.596-6.314-10.33-4.74-9.47 3.16-26.255 3.876-42.18 3.876-15.924-.717-32.567-.717-42.18-3.875-4.733-1.574-10.326-.858-10.326 4.74-4.018-.864-4.736 5.593-8.034 4.73 3.3 0 .86 5.593 5.594 7.17 0 3.158 0 5.597 4.878 6.456 11.045 3.156 30.128 4.734 50.068 4.734z" fill="#fff" stroke="#c09300" stroke-width="2.38" stroke-linecap="round" transform="matrix(1.398 0 0 .879 9.884 138.037)"/><path d="M422.89 363.54c6.454.86 13.628 1.578 19.225.86 3.153 0 5.45 5.452-.863 6.314-5.593.715-14.345 0-19.08-.862-4.017-.718-12.768-2.295-18.364-3.876-5.594-2.436-1.576-7.168 1.578-6.452 4.88 1.577 11.192 3.157 17.505 4.016zM477.12 363.54c-6.457.86-13.628 1.578-19.08.86-3.302 0-5.597 5.452.716 6.314 5.596.715 14.347 0 19.078-.862 4.02-.718 12.77-2.295 18.364-3.876 5.597-2.436 1.58-7.168-1.577-6.452-4.877 1.577-11.19 3.157-17.5 4.016zM403.09 360.39c-4.877-.86-7.172 4.732-5.593 7.887.717-1.578 4.017-1.578 4.735-3.155.858-2.437-.718-2.437.858-4.732zM422.17 375.06c0-3.153 3.155-2.765 3.155-5.92 0-1.578-.86-4.02-2.437-4.02-1.58 0-3.158 1.58-3.158 3.157-.717 3.157 2.44 3.63 2.44 6.783zM444.88 365.98c4.73 0 4.262 6.314 1.966 9.47 0-2.295-4.017-3.156-4.017-4.732 0-2.442 3.625-2.442 2.05-4.738zM496.91 360.39c4.878-.86 7.174 4.732 5.595 7.887-.718-1.578-4.017-1.578-4.734-3.155-.86-2.437.72-2.437-.86-4.732zM477.83 375.06c0-3.153-3.153-2.765-3.153-5.92 0-1.578.86-4.02 2.438-4.02 1.577 0 3.156 1.58 3.156 3.157.72 3.157-2.44 3.63-2.44 6.783zM455.12 365.98c-4.732 0-4.263 6.314-1.967 9.47 0-2.295 4.015-3.156 4.015-4.732 0-2.442-3.626-2.442-2.048-4.738z" fill="#fff" stroke="#c09300" stroke-width="1.27" stroke-linecap="round" transform="matrix(1.398 0 0 .879 9.884 138.037)"/><g fill="#fff" stroke="#c09300" stroke-width=".89" stroke-linecap="round"><path d="M575.613 456.21c2.208 0 5.617.63 6.62 1.385l-6.627-1.39.007.004zM586.63 458.353c1.204 0 5.616.63 7.822 1.385l-7.83-1.39.007.005zM626.75 461.122c-2.205 0-6.617 0-7.818.63l7.815-.634.005.004zM614.52 461.122c-1.202-.757-5.615-.757-7.82 0h7.82zM702.37 456.21c-2.207 0-5.418.63-6.62 1.385l6.62-1.386zM691.34 458.353c-1.203 0-5.617.63-7.823 1.385l7.83-1.39-.008.005zM651.216 461.122c2.208 0 6.62 0 7.822.63l-7.828-.634.006.004zM663.45 461.122c1.2-.757 5.616-.757 7.82 0h-7.828.007z"/></g><g fill="#c09300"><path d="M573.753 467.293c-.746-.09-1.14-.462-.95-.9.23-.536.91-.842 1.554-.7.41.092 1.16.568 1.163.738.005.197-.39.662-.562.664-.074 0-.188.04-.254.09-.14.104-.577.154-.95.11zM650.545 470.74c-.278-.067-.72-.457-.72-.638.003-.34.803-.895 1.3-.897.244 0 .915.218 1.165.38.455.298.355.786-.215 1.063-.28.136-1.12.186-1.53.09zM651.05 472.918c-.588-.124-.804-.305-.85-.715-.052-.426.016-.493.733-.738l.51-.176.485.135c.67.188.97.39.993.674.026.305-.335.618-.894.775-.492.14-.522.14-.977.043zM579.92 463.346c-.485-.01-1.15.27-1.53.412-.908.134-1.964.485-2.84.11-.863-.168-2.01-.036-2.14.63.22.574 1.497.902 2.27.523.574-.47 2.142-.748 2.316.057-.64.608-.566 1.414-1.092 2.06-.085.402-.352.784-.7 1.126-.644.04-1.332-.007-1.877.247-.876.03-1.77.303-2.272.77-.564.507-1.103 1.023-1.267 1.647.15.638 1.31.82 2.184.852.932.16 1.866.372 2.796.55 1.518.212 2.938.557 4.457.768 2.214.42 4.54.612 6.772.99.233.047.453.09.7.108.924.12 1.406-.512 1.483-.988.46-1.02.81-2.056 1.267-3.077.314-.41.695-1.332-.568-1.125-.72.27-1.332.68-2.23.714-1.22.044-.523.83-.042 1.153.106.516-.154 1.132-.7 1.538-.726.29-1.638-.05-2.403-.164-.802.01-2.408-.25-1.66-.934.267-.507.29-1.062.612-1.566.41-.54.47-1.13.656-1.703-.505-.682-1.37.226-2.054.303-.474.206-2.245.293-1.31.823.803.384.186 1.052.042 1.538-.05.677-1.17.838-2.053.686-.88-.026-2.1-.437-1.356-1.043.17-.505.45-1 .612-1.51.332-.614.61-1.198.96-1.813.153-.545.463-1.06.874-1.538.026-.604.67-1.122.656-1.732-.066-.298-.277-.406-.568-.412zm-177.194-86.883c.114-.013.195-.002.306.027.35.093.36.272 0 .467-.157.085-.336.168-.393.165-.655-.035-.848-.097-.875-.247-.024-.133.042-.17.48-.302.218-.065.367-.098.48-.11zM573.446 474.13c-.694-.408-.582-.707.443-1.188.438-.206.705-.183 1.205.106.773.443.804.723.122 1.103-.337.188-.484.227-.877.23-.41.002-.525-.03-.894-.25zM577.71 474.94c-.678-.105-1.068-.534-.87-.956.18-.382.282-.42 1.174-.425 1-.007 1.193.098 1.203.65.005.313-.032.385-.28.53-.29.168-.846.26-1.227.2zM702.285 475.01c-.317-.166-.38-.24-.384-.452-.003-.36.327-.626 1.044-.83.953-.27 1.342-.234 1.7.163.478.53.454.746-.118 1.102-.314.197-.374.208-1.096.213-.71.002-.79-.01-1.145-.195zM583.372 476.02c-.51-.084-.772-.324-.78-.708-.005-.294.03-.34.355-.5.212-.105.546-.194.81-.216.372-.033.508-.012.808.12.77.34.934.677.488 1.004-.475.348-.925.428-1.68.3zM614.016 476.883c-.114-.09-.362-.14-.388-.253.045-.487.082-.98.33-1.448.133-.46.016-.94.27-1.388.262-.815.262-1.654.562-2.464.014-.417.077-.834.27-1.236.22-.634.018-1.297.316-1.924-.032-.236.398-.865.777-.492.55.507 1.275.918 1.987 1.332.612.222.05.55-.372.66-.582.143-.723.545-.68.898-.082.364-.315.708-.34 1.08-.12.548-.097 1.103-.21 1.65-.255.535-.158 1.108-.242 1.66.01.35-.255.668-.218 1.02-.067.356-.092.785-.57 1.03-.46.145-1.123.12-1.492-.125zM655.536 468.27c-.674.32-1.277.697-1.88 1.07-.826.395.682.624.875.962.22.515.208 1.063.264 1.592.25.486.36 1 .305 1.51-.073.548-1.208.433-1.704.743-.688.182-.962.607-1.486.907-.344.424-.436.945-.48 1.428.05.394-.423.834 0 1.18.054.05.12.117.174.166.142.127.48.025.7.055.703-.025 1.437.04 2.096-.138 1.69-.184 3.4-.2 5.112-.247 1.047.02 2.055-.208 3.1-.192.822.114 1.19-.445 1.18-.85-.463-.576-.062-1.257-.435-1.842-.33-.592-.2-1.255-.35-1.868-.02-.482-.994-.66-1.486-.302-.476.303-1.247.364-1.615.742-.415.53.877.53 1.092.933.246.408.165.86.218 1.29.16.522-.74.55-1.31.605-.75.177-1.803.295-2.228-.275-.267-.42-.23-.873-.307-1.318-.018-.785-.317-1.555-.392-2.335-.072-.964-.337-1.922-.437-2.884-.012-.4-.098-1.053-1.004-.934zm-194.57-85.328l.436.027.088.658-.567.11c-.3.056-.565.084-.57.083-.003 0-.122-.046-.26-.11-.308-.14-.23-.338.174-.604.228-.15.334-.178.7-.164zM612.77 467.363c-.53.12-1.204.61-1.746.605-1.23.054-1.058.808-.175 1.07.115.23.006.517.043.77.172.694-.525 1.252-.393 1.95-.062.765-.43 1.51-.48 2.28-.346.794-.35 1.61-.57 2.418-.144.723-.977.468-1.703.274-.006-.313-.038-.62-.043-.934.302-.718-.617-.928-1.53-1.016-.96.057-1.43-.46-1.223-.99.413-.307 1.45-.222 2.098-.274 1.372.18 1.317-.977.612-1.373-.482-.56-1.676-.8-2.01-1.374.134-.762-.67-1.523-1.66-1.896-1.522-.067-2.67.76-3.233 1.566-.632.115-1.264.234-1.88.385-.99.155-2.402 1.236-1.047 1.648.762.132 3.077.464 2.053 1.126-.576.62-1.68.63-2.664.466-1.013 0-2.14-.31-2.098-1.044-.207-.66-.172-1.37-.656-1.978-.207-.738-1.54-.565-1.616.11-1.025.47-.89 1.228-.175 1.786.446.64.004 1.386-.436 1.977-.268.77-1.617.796-2.58 1.044-.47.116-2.276-.068-1.615.578 1.053.233 2.31.444 3.407.274 1.15-.09 2.15-.584 2.71-1.208.77-.492 2.1-.235 3.1-.247 1.08-.002 2.185.476 3.234.164.303-.495 1.708-1.313 2.14-.466-.074.76.99 1.166 2.097 1.072 1.208-.043.76.537.742.99.08.82.923 1.25 2.01 1.592.37.063.763.042 1.136 0 1.047-.207 2.173-.5 2.49-1.236.426-.6.435-1.275.744-1.895.248-.994.568-1.987.61-2.994.387-.914.277-1.878.57-2.803.185-.687.322-1.373.437-2.06-.128-.367-.38-.428-.7-.357h.002zm-191-89.05c.21.017.33.18.35.467.022.32.288.58.61.632.256.04.234.21-.043.33-.16.07-.45.11-.96.11-.808-.003-1.31-.135-1.748-.413l-.264-.165.393-.166c.198-.095.557-.292.786-.44.4-.255.662-.373.874-.357zM695.603 464.093c-.793.023-1.59.104-2.315.22-1.454-.057-2.185.903-.787 1.374.842 1.348 2.155-.28 3.496-.165 2.01.246 2.18 1.61 2.49 2.637.113 1.016.58 2.005 1.05 2.965 1.344.94-1.008 1.53-2.01.797-.855-.584-2.685-1.3-3.714-.494-1.264.335-1.315 1.397-2.36 1.702-1.69.324-1.902-.983-2.796-1.538-.82-.724-2.39-.788-3.67-1.043-.6-.765-.286-2.063-1.527-2.584-1.044.268-2.957 1.496-1.356 2.06 1.56.845-.682 1.232-1.398 1.814-1.023.715-1.187 1.702-1.355 2.61-1.76.61-2.1-.693-2.314-1.51-.137-.98-1.448-.692-2.36-.33-1.33.337-1.996 1.133-2.926 1.757-.112.57.052 1.192.044 1.785.302.713 1.68.378 2.533.33 1.368-.36 1.93.55.83 1.07-.743.596-3.103.284-2.884 1.237.76.055 1.553.037 2.317 0 1.523-.263 3.16-.94 3.32-2.006.2-.93 2.33-.76 3.495-.96 1.454-.265 3.207-.333 3.538.822.99.655 3.143 1.393 4.238.495 1.112-.425 1.645-1.175 1.573-1.977-.226-.69 1.774-.714 2.272-.33.728.755 3.007.533 4.107.11 1.17-.542 1.422-1.498 3.1-1.51 2.494-.47 5.083-.74 7.515-1.32 1.973-.27-.293-1.052-.785-1.51-1.502-.467-2.807 1.443-4.5.495-1.31-.63-1.22-1.826-1.705-2.747-.33-1.193-.247-2.568-1.616-3.515-.938-.628-2.216-.78-3.537-.742zm-214.626-84.83c.175-.002.373.052.7.165.61.212 1.047.565 1.047.85 0 .19-.077.2-.524.33-.277.08-.59.167-.7.166-.252-.002-.873-.314-.873-.44 0-.052-.082-.252-.174-.41-.165-.284-.14-.28.086-.468.143-.122.26-.19.437-.193zm11.84 1.448c.52-.02.83.08 1.05.33.253.29.08.51-.57.687-.283.078-.568.14-.61.138-.043-.003-.277-.09-.524-.193-.378-.155-.434-.232-.438-.41-.004-.28.49-.526 1.093-.55zm-15.093.125c.152-.015.292.035.48.138.252.135.332.244.393.52.045.193.038.442 0 .55-.067.2-.074.19-.785.193-.896.005-.98-.056-.962-.577.01-.332.017-.42.306-.606.224-.142.415-.204.568-.22zm-4.132 1.275c.28.04.542.173.612.384.09.28.012.406-.35.522-.31.1-1.025.133-1.222.056-.065-.026-.196-.09-.263-.166-.096-.106-.078-.157.042-.22.085-.042.176-.105.175-.136 0-.033.095-.144.22-.247.203-.17.507-.234.785-.193zm15.12 1.217c.25 0 .46.054.613.138.258.143.25.352-.044.494-.19.09-1.218.083-1.57 0-.16-.038-.22-.088-.22-.193-.004-.124.052-.2.393-.302.286-.086.58-.137.83-.138zM663.952 479.344c-.134-.055-.332-.103-.133-.195.24-.267.724-.36 1.153-.457.765-.21 1.426-.564 1.92-.984.07-.294.592-.452.59-.758.003-.417.044-.845-.118-1.253-.18-.376-.632-.662-1.156-.857-.36-.178-.944-.227-1.075-.54-.074-.302.354-.53.503-.8.312-.37.575-.76.91-1.12.362-.254.922-.014 1.11.23.263.244.498.507.63.79.422.29.796.633.95 1.02.206.273.534.53.515.85 0 .365.328.69.307 1.06.02.493.018 1.006-.267 1.47-.196.26-.588.414-.848.645-.446.26-.937.51-1.51.647-.404.08-.64.375-1.145.303-.72.008-1.45.07-2.163-.003.045.047-.218-.08-.175-.05zM654.376 479.74c-.34-.22-.412-.313-.417-.528-.005-.218.062-.304.394-.515.613-.39.913-.398 1.97-.062 1.01.32 1.353.35 1.444.123.086-.22.668-.42 1.22-.422.35-.002.55.04.83.178.35.172.367.2.376.598.006.407-.002.422-.406.647-.388.213-.45.226-.93.196-.61-.038-.98-.215-1.078-.517-.07-.22-.194-.274-.286-.124-.03.048-.18.107-.335.132-.286.044-.768.235-1.11.44-.13.076-.357.112-.726.114-.496.003-.566-.016-.948-.263zM626.668 471.916c-.93.007-1.93.498-2.054 1.072.212.66 1.086 1.31.524 2.005.39.89-1.064 1.228-2.053.714-.597-.854-.9-1.79-1.79-2.555-1.125-.2-1.615.93-2.404 1.32.392.662 1.533 1.258 1.66 2.086.274.805-.503 1.698-1.615 2.115-.96.576-2.273.37-3.45.495-1.433.527 1.05.72 1.703.742 1.463.093 2.985-.028 4.062-.715 1.075-.322.993-1.49 2.272-1.62 2.22-.062 4.422.214 6.64.247 1.188.18 3.024-.088 3.845.467.003.972 1.316 1.573 2.578 1.95.696.12 1.432-.422 2.14-.523 1.35-.27.94-1.32 1.748-1.73 2.307-.078 4.636-.062 6.947-.083.44.007.57-.386.873-.55-.05-.56-.084-1.117-.22-1.675-.444-.71.073-1.622-.742-2.225-1.16-.2-2.146.47-3.32.522-1.293.362-2.384 1.114-2.445 2.032-.766.787-1.995-.14-1.573-.797-.048-.286.1-.62-.043-.88-.71-.534-1.952-.36-2.93-.44-1.422.037-2.812-.156-4.236-.136-1.25-.06-2.547.07-3.757-.137-1.442-.027-1.244-.913-1.486-1.538-.254-.12-.562-.167-.872-.166zm-182.682-88.835c.48.008.932.047 1.398.083.603.063 1.244-.13 1.836 0 1.364.146 2.73.112 4.106.193.363-.004.623.163.873.302.002.6 0 1.213 0 1.813-.043.228.105.527-.22.687-.104.046-.22.095-.348.11-.38-.06-.78-.217-.962-.44-.057-.313.025-.618.043-.933-.01-.08.057-.208 0-.275-.296-.133-.633-.22-1.004-.22-1.19-.026-2.352-.08-3.54-.11-.987-.04-2.004.053-2.97-.11-.376-.086-.864-.057-1.093-.302-.327-.24.145-.525.48-.632.446-.127.92-.17 1.4-.165zm14.975.667c.223-.002.293.045.394.302.064.164.14.366.174.44.052.102-.03.136-.26.19-.692.165-1.38.15-1.617-.054-.108-.092.018-.382.22-.494.403-.228.852-.384 1.09-.385z"/></g><path d="M449.98 327.23c32.642-25.106 29.843-61.883 29.843-61.883-.86.172-1.68.258-2.54.258-6.848 0-23.18-3.917-26.99-8.892-4.08 4.503-20.77 8.892-27.573 8.892-.86 0-1.722-.086-2.54-.258 0 0-2.843 36.776 29.8 61.883z" fill="#fff" stroke="#c09300" stroke-width="1.15" transform="matrix(1.398 0 0 .879 9.884 138.037)"/><path d="M477.22 268.04c-.28.018-.563.026-.848.026-6.205 0-20.62-3.183-26.175-7.957-5.82 4.41-20.47 7.956-26.576 7.956-.285 0-.568-.035-.848-.086-.015 1.39.058 2.832.144 4.144.323 4.9 1.183 9.82 2.488 14.552 4.108 14.895 12.516 27.553 24.572 37.155 12.066-9.61 20.484-22.28 24.6-37.185 1.308-4.732 2.17-9.65 2.496-14.55.086-1.285.157-2.692.148-4.055z" fill="#fff" stroke="#c09300" stroke-width=".92" transform="matrix(1.398 0 0 .879 9.884 138.037)"/><path d="M624.137 370.998c-8.21 1.622-17.096 2.665-22.018 2.665-.4 0-.788-.037-1.18-.083-.02 1.223.097 2.502.218 3.654.45 4.307 1.626 8.613 3.45 12.773 3.866 8.812 10.495 16.73 19.53 23.54v-42.55zM652.964 370.92v43.29c9.498-6.963 16.403-15.124 20.402-24.227 1.828-4.16 2.996-8.466 3.452-12.773.12-1.128.232-2.373.218-3.57-.393.015-.78.027-1.18.027-5.214 0-14.567-1.03-22.892-2.747z" fill="#c09300"/><g transform="matrix(1.398 0 0 .879 9.884 138.037)"><path d="M462.31 253.09c.667.04-.902-3.568-.902-3.568 1.765 1.804 8.43 2.235 8.43 2.235-4-1.766-7.998-15.096-7.528-25.72.432-10.665-1.528-14.86-3.097-16.43-2-2-8.43-3.763-12.664-3.998-2.393-.12-2 1.802-2 1.802-4.43-1.137-8.86-1.568-10.862-.235-1.882 1.255-2.274 7.528-.9 6.43 3.33-2.666 6.233-.235 8.232 2.666 1.764 2.55 1.647 9.763-.902 18.192-2.666 8.86-9.96 17.722-9.96 17.722 3.96 0 9.53-3.528 9.53-3.528l-1.334 5.527c4.195-2 7.528-5.097 7.528-5.097l4 4.195c1.332-1.764 3.998-4.195 3.998-4.195s3.333 3.53 8.43 4z" fill="#fff" stroke="#c09300" stroke-width="1.22"/><path d="M446.12 227.57s-2.235 16.428-6.43 21.094M449.65 227.14s-.863 16.623-3.764 21.956M452.78 227.81s0 18.192 1.098 21.29M456.74 228.71s.902 15.29 4.666 20.82" stroke="#c09300" stroke-width="1.27" fill="none"/><path d="M442.08 219.61c-.196-1.45-.55-2.588-1.06-3.333-1.998-2.9-4.9-5.332-8.232-2.666 0 0 1.137-3.528 3.568-3.645 1.882-.118 6.155 1.41 9.92 7.84 0 0-2.784-.626-3.45-.038-1.255 1.098-.746 1.843-.746 1.843zM432.44 209.26c.274-.902.706-1.725 1.255-2.078 2-1.333 6.43-.902 10.86.235 0 0-.392-1.92 2-1.803 4.234.235 10.664 2 12.663 4 .47.51 1.02 1.254 1.49 2.39h-.078c-.98-1.372-3.764-1.293-4.43-1.215-1.06.117-1.726.077-3.138.43-.666.157-1.686.353-2.234.784-.432.353-.785 1.647-1.45 1.647-1.06 0-.98-.273-1.256-.587-.353-.43-.55-1.06-.902-1.02-1.097.197-2.862-.666-5.096-2.43-2.235-1.765-3.098-2.196-6-2-2.86.235-3.763 1.843-3.763 1.843l.08-.196z" fill="#c09300" stroke="#c09300" stroke-width=".35"/><circle cx="448.824" cy="210.672" r="1.176" fill="#fff"/></g></g></g></svg>