<svg xmlns="http://www.w3.org/2000/svg" viewBox="0 0 512 512" enable-background="new 0 0 512 512"><path d="M473.655 88.276H38.345C17.167 88.276 0 105.443 0 126.62v258.76c0 21.177 17.167 38.345 38.345 38.345h435.31c21.177 0 38.345-17.167 38.345-38.345V126.62c0-21.177-17.167-38.344-38.345-38.344z" fill="#F5F5F5"/><g fill="#FF4B55"><path d="M2.11 114.08h507.78c-5.196-15.017-19.452-25.804-36.235-25.804H38.345c-16.784 0-31.04 10.787-36.236 25.804zM0 191.49h512v25.803H0zM0 139.88h512v25.803H0zM0 260.074c0 4.875 3.953 8.828 8.828 8.828H512v-25.804H0v16.976zM0 346.32h512v25.804H0zM509.89 397.92H2.11c5.196 15.017 19.452 25.804 36.235 25.804h435.31c16.784 0 31.04-10.787 36.236-25.804zM0 294.71h512v25.803H0z"/></g><path d="M8.828 268.902h220.69c4.875 0 8.828-3.953 8.828-8.828V97.104c0-4.877-3.953-8.83-8.828-8.83H38.345C17.167 88.277 0 105.445 0 126.622v133.454c0 4.876 3.953 8.828 8.828 8.828z" fill="#41479B"/><g fill="#F5F5F5"><path d="M24.79 108.537l1.953 5.86 6.177.047c.8.007 1.13 1.027.488 1.502l-4.97 3.67 1.865 5.888c.242.762-.627 1.394-1.278.928L24 122.842l-5.025 3.59c-.65.467-1.518-.165-1.278-.927l1.864-5.89-4.968-3.668c-.643-.476-.312-1.496.488-1.502l6.177-.047 1.954-5.86c.253-.76 1.325-.76 1.58 0zM24.79 139.19l1.953 5.86 6.177.048c.8.007 1.13 1.026.488 1.502l-4.97 3.67 1.865 5.89c.242.76-.627 1.393-1.278.927L24 153.497l-5.025 3.59c-.65.466-1.518-.165-1.278-.927l1.864-5.89-4.968-3.67c-.643-.475-.312-1.494.488-1.5l6.177-.048 1.954-5.86c.253-.76 1.325-.76 1.58 0zM24.79 169.846l1.953 5.86 6.177.047c.8.007 1.13 1.026.488 1.502l-4.97 3.67 1.865 5.89c.242.76-.627 1.393-1.278.927L24 184.152l-5.025 3.59c-.65.466-1.518-.164-1.278-.927l1.864-5.89-4.968-3.67c-.643-.475-.312-1.494.488-1.5l6.177-.048 1.954-5.86c.253-.76 1.325-.76 1.58 0zM24.79 200.5l1.953 5.86 6.177.047c.8.007 1.13 1.027.488 1.502l-4.97 3.67 1.865 5.888c.242.762-.627 1.394-1.278.928L24 214.806l-5.025 3.59c-.65.466-1.518-.165-1.278-.927l1.864-5.89-4.968-3.67c-.643-.474-.312-1.495.488-1.502l6.177-.047 1.954-5.86c.253-.76 1.325-.76 1.58 0zM24.79 231.154l1.953 5.86 6.177.047c.8.008 1.13 1.027.488 1.503l-4.97 3.67 1.865 5.89c.242.76-.627 1.393-1.278.927L24 245.46l-5.025 3.59c-.65.466-1.518-.165-1.278-.927l1.864-5.89-4.968-3.67c-.643-.475-.312-1.494.488-1.5l6.177-.048 1.954-5.86c.253-.76 1.325-.76 1.58 0zM48.582 123.566l1.954 5.86 6.177.047c.8.007 1.13 1.027.488 1.502l-4.968 3.67 1.864 5.89c.242.76-.627 1.393-1.278.927l-5.025-3.592-5.025 3.592c-.65.465-1.518-.166-1.278-.928l1.864-5.89-4.97-3.67c-.642-.475-.31-1.494.49-1.5l6.176-.048 1.954-5.86c.252-.758 1.325-.758 1.578 0zM48.582 154.22l1.954 5.86 6.177.048c.8.007 1.13 1.027.488 1.502l-4.968 3.67 1.864 5.89c.242.76-.627 1.393-1.278.927l-5.025-3.592-5.025 3.592c-.65.465-1.518-.165-1.278-.928l1.864-5.89-4.97-3.67c-.642-.474-.31-1.495.49-1.502l6.176-.047 1.954-5.86c.252-.758 1.325-.758 1.578 0zM48.582 184.875l1.954 5.86 6.177.047c.8.007 1.13 1.026.488 1.502l-4.968 3.67 1.864 5.89c.242.76-.627 1.393-1.278.927l-5.025-3.59-5.025 3.59c-.65.466-1.518-.165-1.278-.927l1.864-5.89-4.97-3.67c-.642-.475-.31-1.494.49-1.5l6.176-.048 1.954-5.86c.252-.76 1.325-.76 1.578 0zM48.582 215.53l1.954 5.86 6.177.046c.8.007 1.13 1.026.488 1.502l-4.968 3.67 1.864 5.89c.242.76-.627 1.393-1.278.927l-5.025-3.592-5.025 3.592c-.65.466-1.518-.166-1.278-.928l1.864-5.89-4.97-3.67c-.642-.475-.31-1.494.49-1.5l6.176-.048 1.954-5.86c.252-.76 1.325-.76 1.578 0zM72.375 108.537l1.954 5.86 6.176.047c.8.007 1.13 1.027.488 1.502l-4.97 3.67 1.865 5.888c.24.762-.628 1.394-1.28.928l-5.024-3.592-5.025 3.592c-.65.466-1.517-.166-1.277-.928l1.864-5.89-4.97-3.668c-.642-.476-.31-1.496.49-1.502l6.176-.047 1.954-5.86c.252-.76 1.325-.76 1.578 0zM72.375 139.19l1.954 5.86 6.176.048c.8.007 1.13 1.026.488 1.502l-4.97 3.67 1.865 5.89c.24.76-.628 1.393-1.28.927l-5.024-3.592-5.025 3.592c-.65.465-1.517-.166-1.277-.928l1.864-5.89-4.97-3.67c-.642-.476-.31-1.495.49-1.502l6.176-.047 1.954-5.86c.252-.757 1.325-.757 1.578 0zM72.375 169.846l1.954 5.86 6.176.047c.8.007 1.13 1.026.488 1.502l-4.97 3.67 1.865 5.89c.24.76-.628 1.393-1.28.927l-5.024-3.592-5.025 3.592c-.65.465-1.517-.165-1.277-.928l1.864-5.89-4.97-3.67c-.642-.475-.31-1.494.49-1.5l6.176-.048 1.954-5.86c.252-.76 1.325-.76 1.578 0zM72.375 200.5l1.954 5.86 6.176.047c.8.007 1.13 1.027.488 1.502l-4.97 3.67 1.865 5.888c.24.762-.628 1.394-1.28.928l-5.024-3.592-5.025 3.592c-.65.465-1.517-.166-1.277-.928l1.864-5.89-4.97-3.67c-.642-.473-.31-1.494.49-1.5l6.176-.048 1.954-5.86c.252-.76 1.325-.76 1.578 0zM72.375 231.154l1.954 5.86 6.176.047c.8.008 1.13 1.027.488 1.503l-4.97 3.67 1.865 5.89c.24.76-.628 1.393-1.28.927l-5.024-3.592-5.025 3.592c-.65.465-1.517-.166-1.277-.928l1.864-5.89-4.97-3.67c-.642-.475-.31-1.494.49-1.5l6.176-.048 1.954-5.86c.252-.758 1.325-.758 1.578 0zM96.17 123.566l1.953 5.86 6.177.047c.8.007 1.13 1.027.488 1.502l-4.97 3.67 1.865 5.89c.242.76-.627 1.393-1.278.927l-5.025-3.592-5.025 3.592c-.65.465-1.518-.166-1.278-.928l1.864-5.89-4.968-3.67c-.643-.475-.312-1.494.488-1.5l6.177-.048 1.954-5.86c.252-.758 1.326-.758 1.58 0zM96.17 154.22l1.953 5.86 6.177.048c.8.007 1.13 1.027.488 1.502l-4.97 3.67 1.865 5.89c.242.76-.627 1.393-1.278.927l-5.025-3.592-5.025 3.592c-.65.465-1.518-.165-1.278-.928l1.864-5.89-4.968-3.67c-.643-.474-.312-1.495.488-1.502l6.177-.047 1.954-5.86c.252-.758 1.326-.758 1.58 0zM96.17 184.875l1.953 5.86 6.177.047c.8.007 1.13 1.026.488 1.502l-4.97 3.67 1.865 5.89c.242.76-.627 1.393-1.278.927l-5.025-3.59-5.025 3.59c-.65.466-1.518-.165-1.278-.927l1.864-5.89-4.968-3.67c-.643-.475-.312-1.494.488-1.5l6.177-.048 1.954-5.86c.252-.76 1.326-.76 1.58 0zM96.17 215.53l1.953 5.86 6.177.046c.8.007 1.13 1.026.488 1.502l-4.97 3.67 1.865 5.89c.242.76-.627 1.393-1.278.927l-5.025-3.592-5.025 3.592c-.65.466-1.518-.166-1.278-.928l1.864-5.89-4.968-3.67c-.643-.475-.312-1.494.488-1.5l6.177-.048 1.954-5.86c.252-.76 1.326-.76 1.58 0zM119.962 108.537l1.954 5.86 6.177.047c.8.007 1.13 1.027.488 1.502l-4.968 3.67 1.864 5.888c.242.762-.627 1.394-1.278.928l-5.026-3.59-5.025 3.59c-.65.467-1.518-.165-1.278-.927l1.863-5.89-4.97-3.668c-.642-.476-.31-1.496.49-1.502l6.176-.047 1.953-5.86c.253-.76 1.326-.76 1.58 0zM119.962 139.19l1.954 5.86 6.177.048c.8.007 1.13 1.026.488 1.502l-4.968 3.67 1.864 5.89c.242.76-.627 1.393-1.278.927l-5.026-3.592-5.025 3.592c-.65.465-1.518-.166-1.278-.928l1.863-5.89-4.97-3.67c-.642-.476-.31-1.495.49-1.502l6.176-.047 1.953-5.86c.253-.757 1.326-.757 1.58 0zM119.962 169.846l1.954 5.86 6.177.047c.8.007 1.13 1.026.488 1.502l-4.968 3.67 1.864 5.89c.242.76-.627 1.393-1.278.927l-5.026-3.593-5.025 3.59c-.65.466-1.518-.165-1.278-.927l1.863-5.89-4.97-3.67c-.642-.475-.31-1.494.49-1.5l6.176-.048 1.953-5.86c.253-.758 1.326-.758 1.58 0zM119.962 200.5l1.954 5.86 6.177.047c.8.007 1.13 1.027.488 1.502l-4.968 3.67 1.864 5.888c.242.762-.627 1.394-1.278.928l-5.026-3.592-5.025 3.592c-.65.465-1.518-.166-1.278-.928l1.863-5.89-4.97-3.67c-.642-.473-.31-1.494.49-1.5l6.176-.048 1.953-5.86c.253-.76 1.326-.76 1.58 0zM119.962 231.154l1.954 5.86 6.177.047c.8.008 1.13 1.027.488 1.503l-4.968 3.67 1.864 5.89c.242.76-.627 1.393-1.278.927l-5.026-3.592-5.025 3.592c-.65.465-1.518-.166-1.278-.928l1.863-5.89-4.97-3.67c-.642-.475-.31-1.494.49-1.5l6.176-.048 1.953-5.86c.253-.758 1.326-.758 1.58 0zM143.755 123.566l1.954 5.86 6.176.047c.8.007 1.13 1.027.488 1.502l-4.97 3.67 1.865 5.89c.24.76-.628 1.393-1.28.927l-5.024-3.592-5.025 3.592c-.65.465-1.517-.166-1.277-.928l1.864-5.89-4.97-3.67c-.642-.475-.31-1.494.49-1.5l6.176-.048 1.954-5.86c.253-.758 1.325-.758 1.578 0zM143.755 154.22l1.954 5.86 6.176.048c.8.007 1.13 1.027.488 1.502l-4.97 3.67 1.865 5.89c.24.76-.628 1.393-1.28.927l-5.024-3.592-5.025 3.592c-.65.465-1.517-.165-1.277-.928l1.864-5.89-4.97-3.67c-.642-.474-.31-1.495.49-1.502l6.176-.047 1.954-5.86c.253-.758 1.325-.758 1.578 0zM143.755 184.875l1.954 5.86 6.176.047c.8.007 1.13 1.026.488 1.502l-4.97 3.67 1.865 5.89c.24.76-.628 1.393-1.28.927l-5.024-3.59-5.025 3.59c-.65.466-1.517-.165-1.277-.927l1.864-5.89-4.97-3.67c-.642-.475-.31-1.494.49-1.5l6.176-.048 1.954-5.86c.253-.76 1.325-.76 1.578 0zM143.755 215.53l1.954 5.86 6.176.046c.8.007 1.13 1.026.488 1.502l-4.97 3.67 1.865 5.89c.24.76-.628 1.393-1.28.927l-5.024-3.592-5.025 3.592c-.65.466-1.517-.166-1.277-.928l1.864-5.89-4.97-3.67c-.642-.475-.31-1.494.49-1.5l6.176-.048 1.954-5.86c.253-.76 1.325-.76 1.578 0zM167.55 108.537l1.953 5.86 6.177.047c.8.007 1.13 1.027.488 1.502l-4.97 3.67 1.865 5.888c.242.762-.627 1.394-1.278.928l-5.025-3.592-5.025 3.592c-.65.466-1.518-.166-1.278-.928l1.864-5.89-4.968-3.668c-.643-.476-.312-1.496.488-1.502l6.177-.047 1.954-5.86c.252-.76 1.326-.76 1.58 0zM167.55 139.19l1.953 5.86 6.177.048c.8.007 1.13 1.026.488 1.502l-4.97 3.67 1.865 5.89c.242.76-.627 1.393-1.278.927l-5.025-3.592-5.025 3.592c-.65.465-1.518-.166-1.278-.928l1.864-5.89-4.968-3.67c-.643-.476-.312-1.495.488-1.502l6.177-.047 1.954-5.86c.252-.757 1.326-.757 1.58 0zM167.55 169.846l1.953 5.86 6.177.047c.8.007 1.13 1.026.488 1.502l-4.97 3.67 1.865 5.89c.242.76-.627 1.393-1.278.927l-5.025-3.592-5.025 3.592c-.65.465-1.518-.165-1.278-.928l1.864-5.89-4.968-3.67c-.643-.475-.312-1.494.488-1.5l6.177-.048 1.954-5.86c.252-.76 1.326-.76 1.58 0zM167.55 200.5l1.953 5.86 6.177.047c.8.007 1.13 1.027.488 1.502l-4.97 3.67 1.865 5.888c.242.762-.627 1.394-1.278.928l-5.025-3.592-5.025 3.592c-.65.465-1.518-.166-1.278-.928l1.864-5.89-4.968-3.67c-.643-.473-.312-1.494.488-1.5l6.177-.048 1.954-5.86c.252-.76 1.326-.76 1.58 0zM167.55 231.154l1.953 5.86 6.177.047c.8.008 1.13 1.027.488 1.503l-4.97 3.67 1.865 5.89c.242.76-.627 1.393-1.278.927l-5.025-3.592-5.025 3.592c-.65.465-1.518-.166-1.278-.928l1.864-5.89-4.968-3.67c-.643-.475-.312-1.494.488-1.5l6.177-.048 1.954-5.86c.252-.758 1.326-.758 1.58 0zM191.342 123.566l1.954 5.86 6.177.047c.8.007 1.13 1.027.488 1.502l-4.968 3.67 1.864 5.89c.242.76-.627 1.393-1.278.927l-5.025-3.592-5.025 3.592c-.65.465-1.518-.166-1.278-.928l1.864-5.89-4.97-3.67c-.642-.475-.31-1.494.49-1.5l6.176-.048 1.954-5.86c.252-.758 1.325-.758 1.578 0zM191.342 154.22l1.954 5.86 6.177.048c.8.007 1.13 1.027.488 1.502l-4.968 3.67 1.864 5.89c.242.76-.627 1.393-1.278.927l-5.025-3.592-5.025 3.592c-.65.465-1.518-.165-1.278-.928l1.864-5.89-4.97-3.67c-.642-.474-.31-1.495.49-1.502l6.176-.047 1.954-5.86c.252-.758 1.325-.758 1.578 0zM191.342 184.875l1.954 5.86 6.177.047c.8.007 1.13 1.026.488 1.502l-4.968 3.67 1.864 5.89c.242.76-.627 1.393-1.278.927l-5.025-3.59-5.025 3.59c-.65.466-1.518-.165-1.278-.927l1.864-5.89-4.97-3.67c-.642-.475-.31-1.494.49-1.5l6.176-.048 1.954-5.86c.252-.76 1.325-.76 1.578 0zM191.342 215.53l1.954 5.86 6.177.046c.8.007 1.13 1.026.488 1.502l-4.968 3.67 1.864 5.89c.242.76-.627 1.393-1.278.927l-5.025-3.592-5.025 3.592c-.65.466-1.518-.166-1.278-.928l1.864-5.89-4.97-3.67c-.642-.475-.31-1.494.49-1.5l6.176-.048 1.954-5.86c.252-.76 1.325-.76 1.578 0zM215.136 108.537l1.954 5.86 6.177.047c.8.007 1.13 1.027.488 1.502l-4.97 3.67 1.865 5.888c.242.762-.627 1.394-1.278.928l-5.025-3.592-5.025 3.592c-.65.466-1.518-.166-1.278-.928l1.864-5.89-4.97-3.668c-.642-.476-.31-1.496.49-1.502l6.176-.047 1.954-5.86c.252-.76 1.324-.76 1.578 0zM215.136 139.19l1.954 5.86 6.177.048c.8.007 1.13 1.026.488 1.502l-4.97 3.67 1.865 5.89c.242.76-.627 1.393-1.278.927l-5.025-3.592-5.025 3.592c-.65.465-1.518-.166-1.278-.928l1.864-5.89-4.97-3.67c-.642-.476-.31-1.495.49-1.502l6.176-.047 1.954-5.86c.252-.757 1.324-.757 1.578 0zM215.136 169.846l1.954 5.86 6.177.047c.8.007 1.13 1.026.488 1.502l-4.97 3.67 1.865 5.89c.242.76-.627 1.393-1.278.927l-5.025-3.592-5.025 3.592c-.65.465-1.518-.165-1.278-.928l1.864-5.89-4.97-3.67c-.642-.475-.31-1.494.49-1.5l6.176-.048 1.954-5.86c.252-.76 1.324-.76 1.578 0zM215.136 200.5l1.954 5.86 6.177.047c.8.007 1.13 1.027.488 1.502l-4.97 3.67 1.865 5.888c.242.762-.627 1.394-1.278.928l-5.025-3.592-5.025 3.592c-.65.465-1.518-.166-1.278-.928l1.864-5.89-4.97-3.67c-.642-.473-.31-1.494.49-1.5l6.176-.048 1.954-5.86c.252-.76 1.324-.76 1.578 0zM215.136 231.154l1.954 5.86 6.177.047c.8.008 1.13 1.027.488 1.503l-4.97 3.67 1.865 5.89c.242.76-.627 1.393-1.278.927l-5.025-3.592-5.025 3.592c-.65.465-1.518-.166-1.278-.928l1.864-5.89-4.97-3.67c-.642-.475-.31-1.494.49-1.5l6.176-.048 1.954-5.86c.252-.758 1.324-.758 1.578 0z"/></g></svg>