<?xml version="1.0" encoding="iso-8859-1"?>
<!-- Generator: Adobe Illustrator 19.0.0, SVG Export Plug-In . SVG Version: 6.00 Build 0)  -->
<svg version="1.1" id="Layer_1" xmlns="http://www.w3.org/2000/svg" xmlns:xlink="http://www.w3.org/1999/xlink" x="0px" y="0px"
	 viewBox="0 0 490.667 490.667" style="enable-background:new 0 0 490.667 490.667;" xml:space="preserve">
<g>
	<g>
		<path style="fill:#e9008b" d="M158.571,73.728l-21.333-36.949c-2.965-5.12-9.493-6.848-14.571-3.904c-5.099,2.944-6.848,9.451-3.925,14.571
			l21.333,36.949c1.984,3.435,5.568,5.333,9.259,5.333c1.813,0,3.648-0.469,5.333-1.429
			C159.765,85.333,161.515,78.827,158.571,73.728z"/>
	</g>
</g>
<g>
	<g>
		<path style="fill:#e9008b" d="M371.883,443.221l-21.333-36.949c-2.965-5.12-9.493-6.848-14.571-3.904c-5.099,2.944-6.848,9.472-3.904,14.571
			l21.333,36.949c1.984,3.435,5.568,5.333,9.259,5.333c1.813,0,3.648-0.448,5.312-1.429
			C373.077,454.848,374.827,448.32,371.883,443.221z"/>
	</g>
</g>
<g>
	<g>
		<path style="fill:#e9008b" d="M84.395,140.096l-36.949-21.333c-5.099-2.965-11.627-1.216-14.571,3.904c-2.965,5.099-1.216,11.627,3.904,14.571
			l36.949,21.333c1.664,0.981,3.499,1.429,5.312,1.429c3.691,0,7.275-1.899,9.259-5.333
			C91.243,149.568,89.493,143.04,84.395,140.096z"/>
	</g>
</g>
<g>
	<g>
		<path style="fill:#e9008b" d="M453.888,353.429l-36.949-21.333c-5.099-2.965-11.627-1.216-14.571,3.904c-2.944,5.099-1.195,11.627,3.904,14.571
			l36.949,21.333c1.685,0.981,3.52,1.429,5.333,1.429c3.691,0,7.275-1.899,9.237-5.333
			C460.736,362.901,458.987,356.373,453.888,353.429z"/>
	</g>
</g>
<g>
	<g>
		<path style="fill:#e9008b" d="M88.299,336c-2.965-5.12-9.515-6.869-14.592-3.904l-36.949,21.333c-5.099,2.944-6.848,9.472-3.904,14.571
			c1.984,3.435,5.568,5.333,9.259,5.333c1.813,0,3.648-0.448,5.333-1.429l36.949-21.333C89.493,347.627,91.243,341.099,88.299,336z"
			/>
	</g>
</g>
<g>
	<g>
		<path style="fill:#e9008b" d="M457.792,122.667c-2.965-5.12-9.493-6.869-14.571-3.904l-36.949,21.333c-5.099,2.944-6.848,9.472-3.904,14.571
			c1.984,3.435,5.568,5.333,9.259,5.333c1.813,0,3.648-0.448,5.312-1.429l36.949-21.333
			C458.987,134.293,460.736,127.765,457.792,122.667z"/>
	</g>
</g>
<g>
	<g>
		<path style="fill:#e9008b" d="M154.667,402.368c-5.099-2.944-11.627-1.216-14.571,3.904l-21.333,36.949c-2.944,5.099-1.195,11.627,3.904,14.571
			c1.685,0.981,3.52,1.429,5.333,1.429c3.669,0,7.253-1.899,9.237-5.333l21.333-36.949
			C161.515,411.84,159.765,405.312,154.667,402.368z"/>
	</g>
</g>
<g>
	<g>
		<path style="fill:#e9008b" d="M368,32.875c-5.099-2.944-11.627-1.216-14.571,3.904l-21.333,36.949c-2.944,5.099-1.195,11.627,3.904,14.571
			c1.685,0.981,3.52,1.429,5.333,1.429c3.669,0,7.253-1.92,9.237-5.333l21.333-36.949C374.848,42.347,373.099,35.819,368,32.875z"/>
	</g>
</g>
<g>
	<g>
		<path style="fill:#e9008b" d="M245.333,0c-5.888,0-10.667,4.779-10.667,10.667v42.667c0,5.888,4.779,10.667,10.667,10.667S256,59.221,256,53.333V10.667
			C256,4.779,251.221,0,245.333,0z"/>
	</g>
</g>
<g>
	<g>
		<path style="fill:#e9008b" d="M53.333,234.667H10.667C4.779,234.667,0,239.445,0,245.333S4.779,256,10.667,256h42.667C59.221,256,64,251.221,64,245.333
			S59.221,234.667,53.333,234.667z"/>
	</g>
</g>
<g>
	<g>
		<path style="fill:#e9008b" d="M480,234.667h-42.667c-5.888,0-10.667,4.779-10.667,10.667S431.445,256,437.333,256H480
			c5.888,0,10.667-4.779,10.667-10.667S485.888,234.667,480,234.667z"/>
	</g>
</g>
<g>
	<g>
		<path style="fill:#e9008b" d="M245.333,426.667c-5.888,0-10.667,4.779-10.667,10.667V480c0,5.888,4.779,10.667,10.667,10.667S256,485.888,256,480
			v-42.667C256,431.445,251.221,426.667,245.333,426.667z"/>
	</g>
</g>
<g>
	<g>
		<path style="fill:#e9008b" d="M245.333,0c-5.888,0-10.667,4.779-10.667,10.667v224h-224C4.779,234.667,0,239.445,0,245.333
			c0,135.275,110.059,245.333,245.333,245.333s245.333-110.059,245.333-245.333S380.608,0,245.333,0z M245.333,469.333
			c-119.936,0-218.155-94.741-223.744-213.333h223.744c5.888,0,10.667-4.779,10.667-10.667V21.589
			c118.592,5.568,213.333,103.808,213.333,223.744C469.333,368.853,368.853,469.333,245.333,469.333z"/>
	</g>
</g>
<g>
</g>
<g>
</g>
<g>
</g>
<g>
</g>
<g>
</g>
<g>
</g>
<g>
</g>
<g>
</g>
<g>
</g>
<g>
</g>
<g>
</g>
<g>
</g>
<g>
</g>
<g>
</g>
<g>
</g>
</svg>
