<svg xmlns="http://www.w3.org/2000/svg" viewBox="0 0 57.38 51.47"><defs><style>.cls-1{fill:#ffffff;}</style></defs><title>i3</title><g id="Layer_2" data-name="Layer 2"><g id="Layer_1-2" data-name="Layer 1"><path class="cls-1" d="M52.37,0H40.19a1.26,1.26,0,0,0,0,2.52H52.37A2.5,2.5,0,0,1,54.87,5V36.34a2.5,2.5,0,0,1-2.5,2.5H5a2.5,2.5,0,0,1-2.5-2.5V5A2.5,2.5,0,0,1,5,2.52H41.4A1.26,1.26,0,0,0,41.4,0H5A5,5,0,0,0,0,5V36.34a5,5,0,0,0,5,5H27.43v7.58H17a1.26,1.26,0,1,0,0,2.52H40.42a1.26,1.26,0,1,0,0-2.52H29.94V41.36H52.36a5,5,0,0,0,5-5V5A5,5,0,0,0,52.37,0Z"/><path class="cls-1" d="M17.35,12.72a4,4,0,0,0,3.92-3.4H43.43a.57.57,0,1,0,0-1.13H21.27a4,4,0,1,0-3.92,4.54Zm0-6.81a2.84,2.84,0,1,1-2.84,2.84A2.84,2.84,0,0,1,17.35,5.92Z"/><path class="cls-1" d="M40,28.6A4,4,0,0,0,36.11,32H13.94a.57.57,0,0,0,0,1.13H36.11A4,4,0,1,0,40,28.6Zm0,6.81a2.84,2.84,0,1,1,2.84-2.84A2.84,2.84,0,0,1,40,35.41Z"/><path class="cls-1" d="M43.43,20.09H32.87a4.09,4.09,0,0,0-8.12,0H13.94a.57.57,0,0,0,0,1.13H24.78a4.08,4.08,0,0,0,8.05,0h10.6a.57.57,0,1,0,0-1.13ZM28.81,23.5a3,3,0,1,1,3-3A3,3,0,0,1,28.81,23.5Z"/></g></g></svg>