<?xml version="1.0" encoding="iso-8859-1"?>
<!-- Generator: Adobe Illustrator 19.0.0, SVG Export Plug-In . SVG Version: 6.00 Build 0)  -->
<svg version="1.1" id="Layer_1" xmlns="http://www.w3.org/2000/svg" xmlns:xlink="http://www.w3.org/1999/xlink" x="0px" y="0px"
	 viewBox="0 0 512.032 512.032" style="enable-background:new 0 0 512.032 512.032;" xml:space="preserve">
<g>
	<g>
		<path fill="rgb(255, 255, 255)" d="M512.016,294.048c0-24.562-12.906-46.102-32.281-58.227c7.969-11.203,12.672-24.906,12.672-39.703
			c0-22.211-10.578-41.945-26.953-54.461c2.656-7.648,4.094-15.867,4.094-24.414c0-41.289-33.469-74.766-74.781-74.766
			c-8.344,0-16.375,1.375-23.875,3.906C363.236,19.602,338.58,0,309.361,0c-22.281,0-41.875,11.375-53.344,28.617
			C244.548,11.375,224.947,0,202.681,0c-29.234,0-53.883,19.602-61.539,46.383c-7.5-2.531-15.531-3.906-23.891-3.906
			c-41.289,0-74.758,33.477-74.758,74.766c0,8.547,1.438,16.766,4.086,24.414c-16.383,12.516-26.953,32.25-26.953,54.461
			c0,14.797,4.695,28.5,12.672,39.703c-19.384,12.126-32.282,33.665-32.282,58.227c0,21.312,9.727,40.375,24.992,52.953
			c-2.383,8.359-3.656,17.203-3.656,26.328c0,52.531,42.195,95.219,94.539,96c13.406,25.391,40.078,42.703,70.789,42.703
			c29.641,0,55.516-16.109,69.336-40.078c13.812,23.969,39.688,40.078,69.344,40.078c30.703,0,57.375-17.312,70.781-42.703
			c52.344-0.781,94.531-43.469,94.531-96c0-9.125-1.266-17.969-3.656-26.328C502.282,334.423,512.016,315.361,512.016,294.048z
			 M245.352,170.673h-0.016c-0.164,5.742-4.875,10.367-10.656,10.367c-5.891,0-10.664,4.781-10.664,10.672
			s4.773,10.664,10.664,10.664c3.742,0,7.328-0.648,10.672-1.828v87.469c0,17.625-14.359,31.984-32,31.984
			c-5.891,0-10.672,4.781-10.672,10.672s4.781,10.656,10.672,10.656c12.008,0,23.086-3.969,32-10.656v101.359
			c0,32.344-26.32,58.673-58.672,58.673c-32.344,0-58.664-26.328-58.664-58.672c0-16.391,7.203-31.688,18.086-42.344
			c2-1.938,3.25-4.641,3.25-7.656c0-5.891-4.781-10.672-10.672-10.672c-2.906,0-5.547,1.188-7.469,3.062
			c-15.57,14.594-24.531,34.594-24.531,57.61c0,5.266,0.516,10.422,1.492,15.422c-16.469-2-31.703-9.406-43.617-21.312
			c-14.109-14.109-21.875-32.859-21.875-52.812c0-19.938,7.766-38.688,21.875-52.781c14.102-14.109,32.852-21.875,52.797-21.875
			c6.352,0,12.586,0.781,18.594,2.312c0.875,0.219,1.789,0.375,2.734,0.375c5.891,0,10.672-4.781,10.672-10.688
			c0-5.188-3.734-9.531-8.664-10.469c-7.477-1.875-15.289-2.875-23.336-2.875c-35.805,0-67.031,19.609-83.531,48.672
			c-7.742-8.422-12.469-19.641-12.469-31.953c0-16.406,8.32-31.422,22.258-40.141l9.797-6.133c2.891-1.906,4.805-5.188,4.805-8.914
			c0-2.281-0.711-4.391-1.93-6.125l-6.609-9.289c-5.703-8.008-8.719-17.453-8.719-27.328c0-13.93,6.07-26.453,15.695-35.094
			c13.586,18.766,35.664,30.977,60.602,30.977c5.891,0,10.766-4.773,10.766-10.664s-4.836-10.664-10.727-10.664
			c-29.461,0-53.461-23.969-53.461-53.43s23.961-53.43,53.422-53.43c7.68,0,14.977,1.633,21.586,4.57
			c2.25,33.297,29.969,59.617,63.844,59.617c5.891,0,10.672-4.773,10.672-10.664s-4.781-10.664-10.672-10.664
			c-23.524-0.008-42.665-19.14-42.665-42.672c0-23.523,19.141-42.664,42.664-42.664c23.531,0,42.672,19.141,42.672,42.664V170.673z
			 M478.204,326.001c-16.5-29.062-47.719-48.672-83.531-48.672c-8.031,0-15.859,1-23.328,2.875
			c-4.922,0.938-8.672,5.281-8.672,10.469c0,5.906,4.781,10.688,10.688,10.688c0.938,0,1.844-0.156,2.719-0.375
			c6-1.531,12.25-2.312,18.594-2.312c19.953,0,38.703,7.766,52.812,21.875c14.094,14.094,21.875,32.844,21.875,52.781
			c0,19.953-7.781,38.703-21.875,52.812c-11.922,11.906-27.156,19.312-43.625,21.312c0.969-5,1.5-10.156,1.5-15.422
			c0-23.016-8.969-43.016-24.531-57.609c-1.938-1.875-4.562-3.062-7.469-3.062c-5.906,0-10.688,4.781-10.688,10.672
			c0,3.016,1.25,5.719,3.25,7.656c10.89,10.656,18.093,25.953,18.093,42.344c0,32.344-26.312,58.672-58.656,58.672
			c-32.359,0-58.688-26.328-58.688-58.672v-101.36c8.922,6.688,20,10.656,32,10.656c5.906,0,10.688-4.766,10.688-10.656
			s-4.781-10.672-10.688-10.672c-17.625,0-32-14.359-32-31.984v-87.469c3.344,1.18,6.938,1.828,10.688,1.828
			c5.875,0,10.656-4.773,10.656-10.664s-4.781-10.672-10.656-10.672c-5.797,0-10.5-4.625-10.656-10.367h-0.031V64.001
			c0-23.523,19.156-42.664,42.688-42.664c23.514,0,42.655,19.141,42.655,42.664c0,23.531-19.141,42.664-42.656,42.672
			c-5.906,0-10.688,4.773-10.688,10.664s4.781,10.664,10.688,10.664c33.875,0,61.594-26.32,63.844-59.617
			c6.594-2.938,13.906-4.57,21.562-4.57c29.469,0,53.438,23.969,53.438,53.43s-24,53.43-53.469,53.43
			c-5.875,0-10.719,4.773-10.719,10.664c0,5.891,4.875,10.664,10.75,10.664c24.938,0,47.031-12.211,60.625-30.977
			c9.625,8.641,15.688,21.164,15.688,35.094c0,9.875-3.016,19.32-8.719,27.328l-6.609,9.289c-1.219,1.734-1.922,3.844-1.922,6.125
			c0,3.727,1.906,7.008,4.797,8.914l9.797,6.133c13.938,8.719,22.25,23.734,22.25,40.141
			C490.672,306.361,485.954,317.579,478.204,326.001z"/>
	</g>
</g>
<g>
</g>
<g>
</g>
<g>
</g>
<g>
</g>
<g>
</g>
<g>
</g>
<g>
</g>
<g>
</g>
<g>
</g>
<g>
</g>
<g>
</g>
<g>
</g>
<g>
</g>
<g>
</g>
<g>
</g>
</svg>
