<?xml version="1.0" encoding="UTF-8" standalone="no"?>
<!DOCTYPE svg PUBLIC "-//W3C//DTD SVG 1.1//EN" "http://www.w3.org/Graphics/SVG/1.1/DTD/svg11.dtd">
<svg width="100%" height="100%" viewBox="0 0 512 510" version="1.1" xmlns="http://www.w3.org/2000/svg" xmlns:xlink="http://www.w3.org/1999/xlink" xml:space="preserve" xmlns:serif="http://www.serif.com/" style="fill-rule:evenodd;clip-rule:evenodd;stroke-linejoin:round;">
    <g id="Artboard1" transform="matrix(0.4,0,0,0.6375,0,0)">
        <rect x="0" y="0" width="1280" height="800" style="fill:none;"/>
        <clipPath id="_clip1">
            <rect x="0" y="0" width="1280" height="800"/>
        </clipPath>
        <g clip-path="url(#_clip1)">
            <g transform="matrix(3.86328,0,0,2.19804,-1577.5,0)">
                <g transform="matrix(0.368138,0,0,0.399643,408.332,62.8011)">
                    <path d="M900,150C900,67.213 833.837,0 752.344,0L147.656,0C66.163,0 0,67.213 0,150L0,530.47C0,568.845 30.669,600 68.444,600L829.125,600C868.242,600 900,567.738 900,528L900,150Z"/>
                </g>
                <g transform="matrix(0.368138,0,0,0.199822,408.332,142.73)">
                    <rect x="0" y="0" width="900" height="400" style="fill:white;"/>
                </g>
                <g transform="matrix(0.368138,0,0,0.399643,408.332,62.8011)">
                    <path d="M900,70C900,31.366 869.124,0 831.094,0L68.482,0C30.686,0 0,31.173 0,69.569L0,200L900,200L900,70Z" style="fill:rgb(206,17,38);"/>
                </g>
                <g transform="matrix(0.362386,0,0,0.399643,410.92,62.8011)">
                    <path d="M450.81,302.4L519.298,365.979L514.422,250.509C513.706,233.009 498.498,237.024 487.451,243.337C476.26,250.509 463.493,250.509 450.005,245.774C436.52,250.509 423.752,250.509 412.561,243.337C401.515,237.024 386.309,233.009 385.591,250.509L380.712,365.979L450.81,302.4L450.81,302.4Z" style="fill:white;fill-rule:nonzero;stroke:rgb(192,147,0);stroke-width:1.27px;"/>
                    <g id="w">
                        <path d="M393.47,246.49L388.736,358.81L380.701,365.978L385.58,250.508C387.874,248.93 391.893,246.491 393.47,246.491L393.47,246.49Z" style="fill:rgb(192,147,0);fill-rule:nonzero;"/>
                        <path d="M403.09,254.53L399.073,348.485L391.041,356.705L395.918,248.215C397.497,249.792 402.232,253.665 403.09,254.526L403.09,254.53Z" style="fill:rgb(192,147,0);fill-rule:nonzero;"/>
                        <path d="M411.84,261.7L408.686,340.062L402.23,346.371L406.248,256.966C407.822,258.544 410.979,260.84 411.84,261.7L411.84,261.7Z" style="fill:rgb(192,147,0);fill-rule:nonzero;"/>
                        <path d="M421.31,265.72L418.154,332.507L411.841,337.626L414.997,263.282C416.576,263.999 419.732,265.72 421.31,265.72L421.31,265.72Z" style="fill:rgb(192,147,0);fill-rule:nonzero;"/>
                        <path d="M430.06,265.72L427.763,321.377L421.308,327.69L423.747,266.438C425.323,266.437 429.341,266.437 430.06,265.72L430.06,265.72Z" style="fill:rgb(192,147,0);fill-rule:nonzero;"/>
                    </g>
                    <g id="w1" serif:id="w" transform="matrix(-1,0,0,1,900,0)">
                        <path d="M393.47,246.49L388.736,358.81L380.701,365.978L385.58,250.508C387.874,248.93 391.893,246.491 393.47,246.491L393.47,246.49Z" style="fill:rgb(192,147,0);fill-rule:nonzero;"/>
                        <path d="M403.09,254.53L399.073,348.485L391.041,356.705L395.918,248.215C397.497,249.792 402.232,253.665 403.09,254.526L403.09,254.53Z" style="fill:rgb(192,147,0);fill-rule:nonzero;"/>
                        <path d="M411.84,261.7L408.686,340.062L402.23,346.371L406.248,256.966C407.822,258.544 410.979,260.84 411.84,261.7L411.84,261.7Z" style="fill:rgb(192,147,0);fill-rule:nonzero;"/>
                        <path d="M421.31,265.72L418.154,332.507L411.841,337.626L414.997,263.282C416.576,263.999 419.732,265.72 421.31,265.72L421.31,265.72Z" style="fill:rgb(192,147,0);fill-rule:nonzero;"/>
                        <path d="M430.06,265.72L427.763,321.377L421.308,327.69L423.747,266.438C425.323,266.437 429.341,266.437 430.06,265.72L430.06,265.72Z" style="fill:rgb(192,147,0);fill-rule:nonzero;"/>
                    </g>
                    <path d="M453.16,315.06L462.773,358.815L459.615,361.97L456.316,359.531L450.864,320.513L453.159,359.531L450.003,363.547L446.846,359.531L449.143,320.513L443.692,359.531L440.39,361.97L437.235,358.815L446.846,315.06L453.16,315.06L453.16,315.06Z" style="fill:rgb(192,147,0);fill-rule:nonzero;stroke:rgb(192,147,0);stroke-width:1.07px;stroke-linejoin:miter;"/>
                    <g id="b">
                        <path d="M428.48,295.84L409.4,363.545L435.655,367.563L446.843,316.639L428.48,295.84L428.48,295.84Z" style="fill:white;fill-rule:nonzero;stroke:rgb(192,147,0);stroke-width:1.19px;"/>
                        <path d="M422.17,318.94L424.466,324.533L436.871,312.685" style="fill:none;stroke:rgb(192,147,0);stroke-width:1.27px;"/>
                        <path d="M430.76,304.92L433.356,329.266L441.246,318.938" style="fill:none;stroke:rgb(192,147,0);stroke-width:1.27px;"/>
                        <path d="M438.09,322.95L442.4,337.825" style="fill:none;stroke:rgb(192,147,0);stroke-width:1.27px;"/>
                        <path d="M444.09,332.36L435.372,345.601M438.091,358.817L435.301,345.619L432.865,332.196L427.025,340.105L424.463,330.986L416.289,339.371L420.446,354.622L426.184,345.187L429.34,354.799L435.23,345.637" style="fill:none;stroke:rgb(192,147,0);stroke-width:1.27px;"/>
                        <path d="M414.99,361.97L420.29,354.526L423.743,365.983L428.477,357.951L431.634,367.565" style="fill:none;stroke:rgb(192,147,0);stroke-width:1.27px;"/>
                    </g>
                    <g id="b1" serif:id="b" transform="matrix(-1,0,0,1,900,0)">
                        <path d="M428.48,295.84L409.4,363.545L435.655,367.563L446.843,316.639L428.48,295.84L428.48,295.84Z" style="fill:white;fill-rule:nonzero;stroke:rgb(192,147,0);stroke-width:1.19px;"/>
                        <path d="M422.17,318.94L424.466,324.533L436.871,312.685" style="fill:none;stroke:rgb(192,147,0);stroke-width:1.27px;"/>
                        <path d="M430.76,304.92L433.356,329.266L441.246,318.938" style="fill:none;stroke:rgb(192,147,0);stroke-width:1.27px;"/>
                        <path d="M438.09,322.95L442.4,337.825" style="fill:none;stroke:rgb(192,147,0);stroke-width:1.27px;"/>
                        <path d="M444.09,332.36L435.372,345.601M438.091,358.817L435.301,345.619L432.865,332.196L427.025,340.105L424.463,330.986L416.289,339.371L420.446,354.622L426.184,345.187L429.34,354.799L435.23,345.637" style="fill:none;stroke:rgb(192,147,0);stroke-width:1.27px;"/>
                        <path d="M414.99,361.97L420.29,354.526L423.743,365.983L428.477,357.951L431.634,367.565" style="fill:none;stroke:rgb(192,147,0);stroke-width:1.27px;"/>
                    </g>
                    <g>
                        <path d="M450,393.81C469.943,393.81 489.024,392.232 500.213,389.076C504.948,388.217 504.948,385.778 504.948,382.621C509.684,381.043 507.243,375.45 510.543,375.45C507.243,376.313 506.527,369.856 502.51,370.719C502.51,365.122 496.914,364.406 492.18,365.981C482.71,369.139 465.925,369.856 450,369.856C434.076,369.139 417.433,369.139 407.821,365.981C403.087,364.406 397.494,365.122 397.494,370.719C393.476,369.856 392.758,376.313 389.46,375.45C392.759,375.45 390.319,381.043 395.054,382.621C395.054,385.778 395.054,388.217 399.932,389.076C410.977,392.232 430.06,393.81 450,393.81L450,393.81Z" style="fill:white;fill-rule:nonzero;stroke:rgb(192,147,0);stroke-width:2.38px;stroke-linecap:round;"/>
                        <path d="M422.89,363.54C429.344,364.401 436.518,365.118 442.115,364.401C445.268,364.401 447.564,369.852 441.252,370.714C435.659,371.429 426.907,370.714 422.172,369.852C418.155,369.134 409.404,367.557 403.808,365.976C398.214,363.54 402.232,358.808 405.386,359.524C410.265,361.101 416.578,362.681 422.891,363.54L422.89,363.54Z" style="fill:white;fill-rule:nonzero;stroke:rgb(192,147,0);stroke-width:1.27px;stroke-linecap:round;"/>
                        <path d="M477.12,363.54C470.663,364.401 463.492,365.118 458.039,364.401C454.738,364.401 452.443,369.852 458.756,370.714C464.352,371.429 473.103,370.714 477.834,369.852C481.853,369.134 490.603,367.557 496.198,365.976C501.795,363.54 497.778,358.808 494.621,359.524C489.743,361.101 483.431,362.681 477.12,363.54L477.12,363.54Z" style="fill:white;fill-rule:nonzero;stroke:rgb(192,147,0);stroke-width:1.27px;stroke-linecap:round;"/>
                        <path d="M403.09,360.39C398.213,359.529 395.918,365.122 397.497,368.277C398.214,366.699 401.514,366.699 402.232,365.122C403.09,362.685 401.514,362.685 403.09,360.39Z" style="fill:white;fill-rule:nonzero;stroke:rgb(192,147,0);stroke-width:1.27px;stroke-linecap:round;"/>
                        <path d="M422.17,375.06C422.17,371.907 425.325,372.295 425.325,369.139C425.325,367.562 424.466,365.121 422.888,365.121C421.309,365.121 419.73,366.699 419.73,368.277C419.013,371.434 422.17,371.908 422.17,375.06Z" style="fill:white;fill-rule:nonzero;stroke:rgb(192,147,0);stroke-width:1.27px;stroke-linecap:round;"/>
                        <path d="M444.88,365.98C449.611,365.98 449.142,372.294 446.846,375.45C446.846,373.155 442.829,372.294 442.829,370.718C442.829,368.276 446.455,368.276 444.88,365.98Z" style="fill:white;fill-rule:nonzero;stroke:rgb(192,147,0);stroke-width:1.27px;stroke-linecap:round;"/>
                        <path d="M496.91,360.39C501.788,359.529 504.084,365.122 502.505,368.277C501.787,366.699 498.488,366.699 497.771,365.122C496.91,362.685 498.489,362.685 496.91,360.39L496.91,360.39Z" style="fill:white;fill-rule:nonzero;stroke:rgb(192,147,0);stroke-width:1.27px;stroke-linecap:round;"/>
                        <path d="M477.83,375.06C477.83,371.907 474.677,372.295 474.677,369.139C474.677,367.562 475.536,365.121 477.115,365.121C478.692,365.121 480.271,366.699 480.271,368.277C480.989,371.434 477.83,371.908 477.83,375.06L477.83,375.06Z" style="fill:white;fill-rule:nonzero;stroke:rgb(192,147,0);stroke-width:1.27px;stroke-linecap:round;"/>
                        <path d="M455.12,365.98C450.388,365.98 450.857,372.294 453.153,375.45C453.153,373.155 457.168,372.294 457.168,370.718C457.169,368.276 453.542,368.276 455.12,365.98Z" style="fill:white;fill-rule:nonzero;stroke:rgb(192,147,0);stroke-width:1.27px;stroke-linecap:round;"/>
                        <g>
                            <path d="M404.67,361.97C406.25,361.97 408.688,362.688 409.405,363.547L404.665,361.967L404.67,361.97Z" style="fill:white;fill-rule:nonzero;stroke:rgb(192,147,0);stroke-width:0.89px;stroke-linecap:round;"/>
                            <path d="M412.55,364.41C413.412,364.41 416.568,365.126 418.146,365.985L412.546,364.405L412.55,364.41Z" style="fill:white;fill-rule:nonzero;stroke:rgb(192,147,0);stroke-width:0.89px;stroke-linecap:round;"/>
                            <path d="M441.25,367.56C439.672,367.56 436.516,367.56 435.657,368.275L441.247,367.555L441.25,367.56Z" style="fill:white;fill-rule:nonzero;stroke:rgb(192,147,0);stroke-width:0.89px;stroke-linecap:round;"/>
                            <path d="M432.5,367.56C431.641,366.698 428.484,366.698 426.907,367.56L432.5,367.56Z" style="fill:white;fill-rule:nonzero;stroke:rgb(192,147,0);stroke-width:0.89px;stroke-linecap:round;"/>
                            <path d="M495.34,361.97C493.762,361.97 491.465,362.688 490.605,363.547L495.34,361.97Z" style="fill:white;fill-rule:nonzero;stroke:rgb(192,147,0);stroke-width:0.89px;stroke-linecap:round;"/>
                            <path d="M487.45,364.41C486.59,364.41 483.433,365.126 481.855,365.985L487.455,364.405L487.45,364.41Z" style="fill:white;fill-rule:nonzero;stroke:rgb(192,147,0);stroke-width:0.89px;stroke-linecap:round;"/>
                            <path d="M458.75,367.56C460.329,367.56 463.485,367.56 464.345,368.275L458.745,367.555L458.75,367.56Z" style="fill:white;fill-rule:nonzero;stroke:rgb(192,147,0);stroke-width:0.89px;stroke-linecap:round;"/>
                            <path d="M467.5,367.56C468.36,366.698 471.518,366.698 473.095,367.56L467.495,367.56L467.5,367.56Z" style="fill:white;fill-rule:nonzero;stroke:rgb(192,147,0);stroke-width:0.89px;stroke-linecap:round;"/>
                        </g>
                        <g>
                            <path d="M403.34,374.58C402.806,374.478 402.525,374.055 402.66,373.555C402.824,372.946 403.311,372.598 403.772,372.761C404.066,372.865 404.602,373.406 404.604,373.6C404.607,373.822 404.324,374.352 404.202,374.354C404.149,374.354 404.067,374.4 404.02,374.456C403.92,374.574 403.607,374.631 403.34,374.58L403.34,374.58Z" style="fill:rgb(192,147,0);fill-rule:nonzero;"/>
                            <path d="M458.27,378.5C458.071,378.426 457.755,377.982 457.755,377.776C457.757,377.389 458.329,376.758 458.684,376.755C458.859,376.754 459.339,377.003 459.518,377.189C459.843,377.527 459.772,378.082 459.364,378.397C459.163,378.552 458.564,378.609 458.27,378.5L458.27,378.5Z" style="fill:rgb(192,147,0);fill-rule:nonzero;"/>
                            <path d="M458.63,380.98C458.21,380.838 458.056,380.632 458.022,380.166C457.986,379.681 458.034,379.605 458.547,379.326L458.912,379.126L459.259,379.281C459.738,379.495 459.952,379.726 459.969,380.048C459.987,380.396 459.729,380.752 459.329,380.931C458.977,381.089 458.956,381.09 458.63,380.98L458.63,380.98Z" style="fill:rgb(192,147,0);fill-rule:nonzero;"/>
                            <path d="M407.75,370.09C407.404,370.079 406.929,370.397 406.656,370.559C406.007,370.711 405.252,371.11 404.625,370.684C404.008,370.493 403.187,370.643 403.094,371.402C403.252,372.054 404.165,372.427 404.719,371.996C405.129,371.459 406.25,371.143 406.375,372.059C405.918,372.751 405.97,373.668 405.594,374.403C405.533,374.86 405.342,375.295 405.094,375.684C404.632,375.73 404.14,375.676 403.75,375.965C403.124,375.999 402.485,376.31 402.125,376.84C401.722,377.418 401.336,378.005 401.219,378.715C401.326,379.44 402.156,379.648 402.781,379.684C403.448,379.867 404.116,380.108 404.781,380.309C405.867,380.552 406.883,380.944 407.969,381.184C409.553,381.661 411.217,381.881 412.813,382.309C412.98,382.364 413.137,382.413 413.313,382.434C413.975,382.571 414.32,381.851 414.375,381.309C414.704,380.149 414.954,378.97 415.281,377.809C415.506,377.343 415.778,376.292 414.875,376.528C414.36,376.836 413.923,377.301 413.281,377.34C412.407,377.391 412.906,378.285 413.25,378.653C413.326,379.24 413.14,379.941 412.75,380.403C412.23,380.732 411.578,380.346 411.031,380.215C410.457,380.225 409.308,379.932 409.844,379.153C410.034,378.576 410.051,377.944 410.281,377.371C410.575,376.757 410.617,376.086 410.75,375.434C410.389,374.657 409.771,375.69 409.281,375.778C408.943,376.012 407.676,376.112 408.344,376.715C408.919,377.152 408.478,377.912 408.375,378.465C408.338,379.235 407.537,379.419 406.906,379.246C406.278,379.216 405.405,378.749 405.937,378.059C406.058,377.484 406.259,376.919 406.375,376.34C406.612,375.642 406.812,374.977 407.062,374.278C407.171,373.658 407.393,373.07 407.687,372.528C407.705,371.842 408.165,371.252 408.156,370.559C408.109,370.22 407.958,370.097 407.75,370.09L407.75,370.09ZM404.156,377.34C404.238,377.326 404.296,377.338 404.375,377.371C404.625,377.477 404.632,377.681 404.375,377.902C404.263,377.999 404.135,378.093 404.094,378.09C403.626,378.05 403.488,377.98 403.469,377.809C403.452,377.658 403.499,377.614 403.812,377.465C403.968,377.391 404.075,377.354 404.156,377.34L404.156,377.34Z" style="fill:rgb(192,147,0);fill-rule:nonzero;"/>
                            <path d="M403.12,382.36C402.624,381.894 402.704,381.554 403.437,381.007C403.751,380.773 403.942,380.799 404.3,381.127C404.853,381.631 404.875,381.95 404.387,382.382C404.146,382.595 404.041,382.639 403.76,382.642C403.467,382.645 403.384,382.608 403.12,382.36L403.12,382.36Z" style="fill:rgb(192,147,0);fill-rule:nonzero;"/>
                            <path d="M406.17,383.28C405.685,383.16 405.406,382.672 405.547,382.192C405.676,381.758 405.75,381.715 406.388,381.709C407.103,381.702 407.241,381.821 407.248,382.45C407.252,382.805 407.225,382.887 407.048,383.051C406.841,383.243 406.443,383.347 406.17,383.28L406.17,383.28Z" style="fill:rgb(192,147,0);fill-rule:nonzero;"/>
                            <path d="M495.28,383.36C495.053,383.171 495.007,383.086 495.005,382.845C495.002,382.435 495.238,382.133 495.751,381.901C496.433,381.593 496.711,381.635 496.967,382.087C497.309,382.688 497.292,382.934 496.883,383.339C496.658,383.563 496.615,383.576 496.099,383.581C495.591,383.584 495.533,383.571 495.28,383.36L495.28,383.36Z" style="fill:rgb(192,147,0);fill-rule:nonzero;"/>
                            <path d="M410.22,384.51C409.856,384.413 409.668,384.14 409.663,383.703C409.659,383.369 409.683,383.316 409.916,383.133C410.068,383.015 410.307,382.914 410.495,382.888C410.762,382.851 410.859,382.875 411.074,383.026C411.625,383.413 411.742,383.795 411.423,384.167C411.083,384.563 410.761,384.654 410.22,384.51L410.22,384.51Z" style="fill:rgb(192,147,0);fill-rule:nonzero;"/>
                            <path d="M432.14,385.49C432.059,385.389 431.881,385.33 431.863,385.203C431.895,384.648 431.921,384.086 432.098,383.555C432.194,383.032 432.11,382.486 432.292,381.976C432.479,381.049 432.479,380.094 432.694,379.173C432.704,378.698 432.749,378.224 432.887,377.767C433.044,377.045 432.9,376.291 433.113,375.578C433.09,375.31 433.398,374.594 433.669,375.018C434.063,375.595 434.581,376.063 435.09,376.534C435.528,376.786 435.126,377.158 434.824,377.283C434.408,377.447 434.307,377.904 434.337,378.306C434.279,378.72 434.112,379.112 434.095,379.536C434.008,380.158 434.025,380.79 433.944,381.412C433.762,382.021 433.831,382.672 433.771,383.3C433.779,383.698 433.589,384.06 433.615,384.46C433.567,384.866 433.549,385.354 433.208,385.632C432.879,385.798 432.404,385.77 432.14,385.49L432.14,385.49Z" style="fill:rgb(192,147,0);fill-rule:nonzero;"/>
                            <path d="M461.84,375.69C461.358,376.055 460.926,376.485 460.496,376.909C459.904,377.358 460.983,377.619 461.121,378.003C461.278,378.589 461.269,379.213 461.309,379.815C461.488,380.367 461.567,380.953 461.527,381.534C461.476,382.156 460.664,382.025 460.309,382.378C459.817,382.585 459.621,383.068 459.246,383.409C459,383.892 458.934,384.485 458.902,385.034C458.938,385.482 458.6,385.983 458.902,386.378C458.941,386.433 458.988,386.51 459.027,386.565C459.129,386.71 459.37,386.594 459.527,386.628C460.031,386.599 460.556,386.675 461.027,386.471C462.237,386.262 463.459,386.245 464.684,386.19C465.433,386.214 466.154,385.953 466.902,385.971C467.489,386.101 467.753,385.465 467.746,385.003C467.414,384.349 467.701,383.574 467.434,382.909C467.199,382.236 467.291,381.481 467.184,380.784C467.169,380.235 466.473,380.032 466.121,380.44C465.78,380.785 465.228,380.854 464.965,381.284C464.668,381.886 465.592,381.887 465.746,382.346C465.922,382.811 465.864,383.327 465.902,383.815C466.017,384.408 465.373,384.441 464.965,384.503C464.428,384.704 463.675,384.839 463.371,384.19C463.18,383.711 463.206,383.197 463.152,382.69C463.139,381.798 462.925,380.922 462.871,380.034C462.82,378.937 462.63,377.847 462.559,376.753C462.549,376.297 462.488,375.555 461.84,375.69L461.84,375.69ZM461.215,383.94L461.527,383.971L461.59,384.721L461.184,384.846C460.969,384.91 460.78,384.941 460.777,384.94C460.774,384.939 460.689,384.887 460.59,384.815C460.37,384.656 460.426,384.43 460.715,384.127C460.878,383.957 460.954,383.924 461.215,383.94L461.215,383.94Z" style="fill:rgb(192,147,0);fill-rule:nonzero;"/>
                            <path d="M431.25,374.66C430.87,374.795 430.388,375.353 430,375.348C429.12,375.41 429.243,376.267 429.875,376.566C429.958,376.826 429.88,377.154 429.906,377.441C430.029,378.231 429.531,378.866 429.625,379.66C429.581,380.53 429.318,381.378 429.281,382.254C429.034,383.157 429.031,384.086 428.875,385.004C428.771,385.827 428.175,385.537 427.656,385.316C427.652,384.96 427.629,384.611 427.625,384.254C427.841,383.437 427.184,383.198 426.531,383.098C425.845,383.163 425.508,382.575 425.656,381.973C425.951,381.622 426.692,381.719 427.156,381.66C428.137,381.864 428.098,380.548 427.594,380.098C427.249,379.462 426.395,379.188 426.156,378.535C426.252,377.669 425.676,376.803 424.969,376.379C423.88,376.303 423.058,377.242 422.656,378.16C422.204,378.291 421.752,378.427 421.312,378.598C420.603,378.775 419.593,380.005 420.562,380.473C421.107,380.623 422.763,381.001 422.031,381.754C421.619,382.461 420.83,382.473 420.125,382.285C419.401,382.286 418.596,381.933 418.625,381.098C418.477,380.348 418.502,379.54 418.156,378.848C418.008,378.008 417.055,378.205 417,378.973C416.267,379.507 416.364,380.37 416.875,381.004C417.194,381.733 416.878,382.581 416.563,383.254C416.372,384.129 415.407,384.159 414.719,384.441C414.381,384.572 413.09,384.363 413.563,385.098C414.316,385.363 415.215,385.603 416,385.41C416.823,385.308 417.538,384.745 417.938,384.035C418.49,383.475 419.44,383.768 420.156,383.754C420.929,383.752 421.719,384.296 422.469,383.941C422.686,383.377 423.691,382.446 424,383.41C423.947,384.273 424.709,384.736 425.5,384.629C426.364,384.58 426.044,385.24 426.031,385.754C426.088,386.688 426.691,387.179 427.469,387.566C427.734,387.638 428.014,387.614 428.281,387.566C429.029,387.331 429.835,386.998 430.062,386.16C430.366,385.479 430.373,384.71 430.594,384.004C430.771,382.874 431,381.744 431.031,380.598C431.307,379.559 431.228,378.462 431.437,377.41C431.57,376.628 431.668,375.847 431.75,375.066C431.658,374.649 431.478,374.579 431.25,374.66L431.25,374.66ZM424.469,378.816C424.62,378.835 424.704,379.02 424.719,379.347C424.735,379.712 424.925,380.008 425.156,380.066C425.339,380.112 425.323,380.305 425.125,380.441C425.01,380.52 424.804,380.568 424.438,380.566C423.86,380.563 423.501,380.413 423.188,380.097L423,379.91L423.281,379.722C423.423,379.614 423.68,379.39 423.844,379.222C424.129,378.932 424.317,378.798 424.469,378.816L424.469,378.816Z" style="fill:rgb(192,147,0);fill-rule:nonzero;"/>
                            <path d="M490.5,370.94C489.933,370.966 489.363,371.058 488.844,371.19C487.804,371.125 487.281,372.217 488.281,372.753C488.883,374.287 489.822,372.436 490.781,372.565C492.219,372.845 492.34,374.397 492.563,375.565C492.643,376.722 492.977,377.847 493.313,378.94C494.275,380.01 492.592,380.68 491.875,379.846C491.264,379.182 489.955,378.367 489.219,379.284C488.315,379.666 488.278,380.874 487.531,381.221C486.322,381.589 486.17,380.102 485.531,379.471C484.944,378.647 483.821,378.575 482.906,378.284C482.477,377.415 482.701,375.938 481.813,375.346C481.067,375.651 479.699,377.048 480.844,377.69C481.961,378.651 480.356,379.091 479.844,379.753C479.112,380.567 478.995,381.689 478.875,382.721C477.616,383.417 477.371,381.934 477.219,381.003C477.121,379.891 476.183,380.217 475.531,380.628C474.579,381.013 474.103,381.918 473.438,382.628C473.358,383.275 473.475,383.984 473.469,384.659C473.685,385.47 474.671,385.089 475.281,385.034C476.26,384.624 476.661,385.661 475.875,386.253C475.343,386.929 473.655,386.575 473.812,387.659C474.356,387.722 474.923,387.702 475.469,387.659C476.559,387.361 477.73,386.591 477.844,385.378C477.987,384.319 479.511,384.512 480.344,384.284C481.384,383.984 482.638,383.907 482.875,385.221C483.584,385.966 485.123,386.805 485.906,385.784C486.701,385.299 487.082,384.446 487.031,383.534C486.869,382.749 488.3,382.721 488.656,383.159C489.177,384.017 490.807,383.764 491.594,383.284C492.43,382.667 492.611,381.579 493.812,381.565C495.595,381.031 497.447,380.724 499.187,380.065C500.598,379.758 498.977,378.867 498.625,378.346C497.551,377.815 496.617,379.988 495.406,378.909C494.47,378.193 494.534,376.832 494.187,375.784C493.95,374.426 494.01,372.861 493.031,371.784C492.359,371.069 491.445,370.897 490.5,370.94L490.5,370.94ZM483.688,380.409C483.813,380.406 483.955,380.468 484.188,380.596C484.626,380.838 484.938,381.239 484.938,381.565C484.937,381.778 484.883,381.792 484.563,381.94C484.365,382.031 484.141,382.129 484.063,382.128C483.882,382.126 483.438,381.771 483.438,381.628C483.437,381.568 483.379,381.341 483.313,381.159C483.195,380.838 483.213,380.842 483.375,380.628C483.478,380.49 483.562,380.412 483.688,380.409ZM490.219,380.753C490.591,380.728 490.812,380.844 490.969,381.128C491.15,381.457 491.027,381.708 490.562,381.909C490.359,381.997 490.155,382.068 490.125,382.065C490.094,382.062 489.927,381.963 489.75,381.846C489.48,381.669 489.44,381.582 489.437,381.378C489.434,381.062 489.787,380.781 490.219,380.753ZM481.281,380.846C481.39,380.829 481.49,380.886 481.625,381.003C481.805,381.157 481.862,381.281 481.906,381.596C481.938,381.815 481.933,382.098 481.906,382.221C481.858,382.447 481.853,382.437 481.344,382.44C480.703,382.446 480.644,382.376 480.656,381.784C480.664,381.407 480.668,381.306 480.875,381.096C481.035,380.934 481.172,380.863 481.281,380.846ZM475.781,382.284C475.981,382.331 476.169,382.481 476.219,382.721C476.284,383.039 476.227,383.183 475.969,383.315C475.747,383.428 475.235,383.466 475.094,383.378C475.048,383.349 474.954,383.275 474.906,383.19C474.838,383.069 474.851,383.011 474.937,382.94C474.998,382.891 475.063,382.82 475.062,382.784C475.062,382.747 475.13,382.621 475.219,382.503C475.365,382.309 475.582,382.237 475.781,382.284L475.781,382.284ZM485.031,383.471C485.209,383.47 485.36,383.532 485.469,383.628C485.654,383.79 485.648,384.028 485.438,384.19C485.302,384.294 484.566,384.285 484.313,384.19C484.2,384.148 484.157,384.091 484.156,383.971C484.154,383.83 484.194,383.744 484.438,383.628C484.642,383.53 484.853,383.472 485.031,383.471L485.031,383.471Z" style="fill:rgb(192,147,0);fill-rule:nonzero;"/>
                            <path d="M467.86,388.29C467.764,388.228 467.622,388.173 467.765,388.068C467.938,387.766 468.283,387.661 468.59,387.549C469.137,387.311 469.61,386.908 469.963,386.43C470.013,386.097 470.387,385.917 470.385,385.569C470.388,385.094 470.417,384.607 470.301,384.143C470.172,383.717 469.849,383.391 469.474,383.169C469.218,382.967 468.8,382.911 468.706,382.555C468.653,382.212 468.959,381.951 469.066,381.645C469.289,381.224 469.477,380.782 469.717,380.37C469.976,380.082 470.376,380.355 470.51,380.633C470.699,380.91 470.867,381.209 470.961,381.53C471.263,381.862 471.531,382.251 471.64,382.692C471.788,383.002 472.023,383.294 472.009,383.658C472.009,384.074 472.244,384.445 472.229,384.864C472.243,385.425 472.242,386.009 472.038,386.538C471.898,386.832 471.617,387.008 471.431,387.271C471.112,387.566 470.761,387.85 470.351,388.007C470.062,388.099 469.894,388.433 469.532,388.352C469.018,388.361 468.495,388.431 467.985,388.348C468.017,388.402 467.829,388.256 467.86,388.29L467.86,388.29Z" style="fill:rgb(192,147,0);fill-rule:nonzero;"/>
                            <path d="M461.01,388.74C460.767,388.49 460.715,388.385 460.712,388.14C460.709,387.892 460.757,387.794 460.994,387.554C461.433,387.111 461.647,387.101 462.403,387.483C463.126,387.849 463.371,387.883 463.436,387.624C463.498,387.373 463.914,387.144 464.31,387.143C464.56,387.141 464.702,387.19 464.902,387.346C465.153,387.542 465.165,387.573 465.172,388.026C465.176,388.489 465.17,388.506 464.881,388.762C464.604,389.006 464.559,389.021 464.216,388.986C463.779,388.943 463.516,388.742 463.445,388.398C463.394,388.148 463.306,388.088 463.24,388.258C463.219,388.313 463.111,388.38 463.001,388.408C462.797,388.459 462.452,388.676 462.207,388.908C462.114,388.995 461.952,389.036 461.688,389.039C461.333,389.042 461.283,389.021 461.01,388.74L461.01,388.74Z" style="fill:rgb(192,147,0);fill-rule:nonzero;"/>
                            <path d="M441.19,379.84C440.525,379.847 439.81,380.406 439.721,381.059C439.873,381.811 440.498,382.548 440.096,383.34C440.374,384.353 439.335,384.737 438.627,384.152C438.2,383.181 437.984,382.117 437.346,381.246C436.542,381.019 436.192,382.303 435.627,382.746C435.907,383.501 436.723,384.179 436.815,385.121C437.01,386.036 436.454,387.052 435.659,387.527C434.973,388.182 434.033,387.948 433.19,388.09C432.166,388.689 433.942,388.908 434.409,388.934C435.456,389.04 436.544,388.902 437.315,388.121C438.084,387.754 438.025,386.424 438.94,386.277C440.528,386.207 442.103,386.521 443.69,386.559C444.539,386.762 445.853,386.458 446.44,387.09C446.442,388.197 447.381,388.88 448.284,389.309C448.782,389.447 449.308,388.829 449.815,388.715C450.78,388.407 450.487,387.213 451.065,386.746C452.715,386.657 454.381,386.676 456.034,386.652C456.348,386.66 456.441,386.213 456.659,386.027C456.622,385.389 456.599,384.755 456.502,384.121C456.184,383.315 456.554,382.277 455.971,381.59C455.141,381.364 454.435,382.124 453.596,382.184C452.67,382.596 451.89,383.452 451.846,384.496C451.298,385.393 450.419,384.337 450.721,383.59C450.687,383.265 450.792,382.886 450.69,382.59C450.183,381.982 449.295,382.181 448.596,382.09C447.578,382.131 446.584,381.911 445.565,381.934C444.672,381.866 443.743,382.012 442.878,381.778C441.846,381.748 441.988,380.739 441.815,380.028C441.632,379.892 441.412,379.838 441.19,379.84L441.19,379.84ZM443.19,383.527C443.533,383.535 443.857,383.58 444.19,383.621C444.621,383.692 445.08,383.473 445.503,383.621C446.479,383.787 447.456,383.748 448.44,383.84C448.7,383.836 448.886,384.025 449.065,384.184C449.067,384.867 449.066,385.563 449.065,386.246C449.035,386.504 449.141,386.844 448.909,387.027C448.834,387.079 448.75,387.135 448.659,387.152C448.388,387.082 448.101,386.905 447.971,386.652C447.93,386.295 447.989,385.948 448.002,385.59C447.995,385.497 448.043,385.353 448.002,385.277C447.79,385.127 447.549,385.028 447.284,385.027C446.434,384.998 445.602,384.936 444.753,384.902C444.046,384.858 443.319,384.963 442.628,384.777C442.359,384.68 442.01,384.713 441.846,384.434C441.612,384.161 441.95,383.837 442.19,383.715C442.508,383.57 442.847,383.521 443.19,383.527L443.19,383.527ZM454.471,383.777C454.63,383.775 454.68,383.828 454.752,384.121C454.798,384.309 454.852,384.538 454.877,384.621C454.914,384.739 454.855,384.777 454.69,384.84C454.196,385.026 453.704,385.008 453.534,384.777C453.456,384.673 453.546,384.343 453.69,384.215C453.979,383.956 454.3,383.778 454.471,383.777L454.471,383.777Z" style="fill:rgb(192,147,0);fill-rule:nonzero;"/>
                        </g>
                    </g>
                    <path d="M449.98,327.23C482.622,302.124 479.823,265.347 479.823,265.347C478.962,265.519 478.144,265.605 477.282,265.605C470.435,265.605 454.104,261.688 450.294,256.713C446.213,261.216 429.524,265.605 422.72,265.605C421.859,265.605 420.998,265.519 420.18,265.347C420.18,265.347 417.337,302.123 449.98,327.23L449.98,327.23Z" style="fill:white;fill-rule:nonzero;stroke:rgb(192,147,0);stroke-width:1.15px;stroke-linejoin:miter;"/>
                    <path d="M477.22,268.04C476.939,268.058 476.657,268.066 476.372,268.066C470.167,268.066 455.753,264.883 450.197,260.109C444.378,264.519 429.726,268.066 423.621,268.066C423.335,268.066 423.052,268.031 422.772,267.98C422.757,269.371 422.83,270.812 422.916,272.124C423.239,277.024 424.099,281.943 425.404,286.676C429.512,301.571 437.92,314.229 449.976,323.831C462.042,314.221 470.46,301.551 474.577,286.645C475.884,281.913 476.746,276.995 477.072,272.095C477.158,270.81 477.229,269.403 477.22,268.04L477.22,268.04Z" style="fill:white;fill-rule:nonzero;stroke:rgb(192,147,0);stroke-width:0.92px;stroke-linejoin:miter;"/>
                    <path d="M439.38,265.03C433.508,266.875 427.151,268.061 423.63,268.061C423.344,268.061 423.067,268.019 422.786,267.967C422.772,269.358 422.856,270.813 422.943,272.124C423.265,277.024 424.106,281.923 425.411,286.655C428.176,296.68 432.918,305.687 439.38,313.436L439.38,265.03L439.38,265.03Z" style="fill:rgb(192,147,0);fill-rule:nonzero;"/>
                    <path d="M460,264.94L460,314.19C466.794,306.269 471.733,296.984 474.594,286.628C475.901,281.896 476.737,276.997 477.063,272.097C477.148,270.813 477.229,269.397 477.219,268.035C476.938,268.052 476.66,268.066 476.375,268.066C472.645,268.066 465.955,266.895 460,264.941L460,264.94Z" style="fill:rgb(192,147,0);fill-rule:nonzero;"/>
                    <g>
                        <path d="M462.31,253.09C462.977,253.129 461.408,249.522 461.408,249.522C463.173,251.326 469.838,251.757 469.838,251.757C465.839,249.991 461.84,236.661 462.31,226.036C462.742,215.372 460.782,211.177 459.213,209.608C457.213,207.608 450.783,205.844 446.549,205.609C444.157,205.491 444.549,207.412 444.549,207.412C440.119,206.275 435.689,205.844 433.688,207.177C431.806,208.432 431.414,214.705 432.787,213.607C436.119,210.941 439.021,213.372 441.02,216.273C442.784,218.822 442.667,226.036 440.118,234.465C437.452,243.326 430.159,252.187 430.159,252.187C434.119,252.187 439.687,248.659 439.687,248.659L438.354,254.187C442.549,252.187 445.882,249.09 445.882,249.09L449.881,253.285C451.214,251.521 453.88,249.09 453.88,249.09C453.88,249.09 457.213,252.619 462.31,253.089L462.31,253.09Z" style="fill:white;fill-rule:nonzero;stroke:rgb(192,147,0);stroke-width:1.22px;stroke-linejoin:miter;"/>
                        <path d="M446.12,227.57C446.12,227.57 443.885,243.998 439.69,248.664" style="fill:none;stroke:rgb(192,147,0);stroke-width:1.27px;stroke-linejoin:miter;"/>
                        <path d="M449.65,227.14C449.65,227.14 448.787,243.763 445.886,249.096" style="fill:none;stroke:rgb(192,147,0);stroke-width:1.27px;stroke-linejoin:miter;"/>
                        <path d="M452.78,227.81C452.78,227.81 452.78,246.002 453.878,249.099" style="fill:none;stroke:rgb(192,147,0);stroke-width:1.27px;stroke-linejoin:miter;"/>
                        <path d="M456.74,228.71C456.74,228.71 457.642,244.001 461.406,249.529" style="fill:none;stroke:rgb(192,147,0);stroke-width:1.27px;stroke-linejoin:miter;"/>
                        <path d="M442.08,219.61C441.884,218.159 441.531,217.022 441.021,216.277C439.022,213.376 436.121,210.945 432.788,213.611C432.788,213.611 433.925,210.082 436.356,209.965C438.238,209.847 442.511,211.376 446.275,217.806C446.275,217.806 443.492,217.179 442.825,217.767C441.571,218.865 442.08,219.61 442.08,219.61L442.08,219.61Z" style="fill:rgb(192,147,0);fill-rule:nonzero;stroke:rgb(192,147,0);stroke-width:0.35px;stroke-linejoin:miter;"/>
                        <path d="M432.44,209.26C432.714,208.358 433.146,207.535 433.695,207.182C435.694,205.849 440.125,206.28 444.555,207.417C444.555,207.417 444.163,205.496 446.554,205.614C450.789,205.849 457.219,207.613 459.218,209.613C459.689,210.123 460.238,210.868 460.708,212.004L460.63,212.004C459.65,210.632 456.866,210.711 456.199,210.789C455.14,210.907 454.474,210.867 453.062,211.22C452.396,211.377 451.376,211.573 450.828,212.004C450.396,212.357 450.043,213.651 449.377,213.651C448.318,213.651 448.397,213.377 448.122,213.063C447.769,212.632 447.573,212.004 447.22,212.044C446.123,212.24 444.358,211.377 442.124,209.613C439.889,207.848 439.026,207.417 436.125,207.613C433.263,207.848 432.361,209.456 432.361,209.456L432.44,209.26L432.44,209.26Z" style="fill:rgb(192,147,0);fill-rule:nonzero;stroke:rgb(192,147,0);stroke-width:0.35px;stroke-linejoin:miter;"/>
                        <circle cx="448.824" cy="210.672" r="1.176" style="fill:white;"/>
                    </g>
                </g>
            </g>
        </g>
    </g>
</svg>
