<?xml version="1.0" encoding="UTF-8" standalone="no"?>
<!DOCTYPE svg PUBLIC "-//W3C//DTD SVG 1.1//EN" "http://www.w3.org/Graphics/SVG/1.1/DTD/svg11.dtd">
<svg width="100%" height="100%" viewBox="0 0 512 510" version="1.1" xmlns="http://www.w3.org/2000/svg" xmlns:xlink="http://www.w3.org/1999/xlink" xml:space="preserve" xmlns:serif="http://www.serif.com/" style="fill-rule:evenodd;clip-rule:evenodd;stroke-linejoin:round;stroke-miterlimit:1.41421;">
    <g id="Artboard1" transform="matrix(0.4,0,0,0.6375,0,0)">
        <rect x="0" y="0" width="1280" height="800" style="fill:none;"/>
        <clipPath id="_clip1">
            <rect x="0" y="0" width="1280" height="800"/>
        </clipPath>
        <g clip-path="url(#_clip1)">
            <g transform="matrix(3.86328,0,0,2.19804,-5.68434e-13,-6.68354e-14)">
                <g transform="matrix(0.368138,0,0,1.19893,1.27454e-13,62.8011)">
                    <path d="M900,23.207C900,10.399 869.291,0 831.466,0L68.534,0C30.709,0 0,10.399 0,23.207L0,176.793C0,189.601 30.709,200 68.534,200L831.466,200C869.291,200 900,189.601 900,176.793L900,23.207Z" style="fill:rgb(158,48,57);"/>
                </g>
                <g transform="matrix(0.276104,0,0,0.399643,1.13687e-13,62.6839)">
                    <path d="M0,240L1200,240L1200,360L0,360" style="fill:white;fill-rule:nonzero;"/>
                </g>
            </g>
        </g>
    </g>
</svg>
