<svg xmlns="http://www.w3.org/2000/svg" viewBox="0 0 512 512" enable-background="new 0 0 512 512"><path d="M473.655 423.724H38.345C17.167 423.724 0 406.557 0 385.38V126.62c0-21.176 17.167-38.344 38.345-38.344h435.31c21.177 0 38.345 17.167 38.345 38.345v258.76c0 21.177-17.167 38.344-38.345 38.344z" fill="#F5F5F5"/><g fill="#73AF00"><path d="M244.426 360.546c4.884-3.648 9.128-4.84 15.694-6.034 6.57-1.193 13.506-3.228 17.144-4.21 3.67-1.016-12.328 4.84-16.403 6-4.006 1.226-16.434 4.244-16.434 4.244zM270.865 350.274c-1.314-8.252 1.952-16.94 9.43-20.41 1.75 5.996-3.605 16.166-9.43 20.41zM283.63 345.997c-4.01-6.904 2.727-15.763 7.745-20.074 2.324 4.143-1.752 16.503-7.746 20.074zM295.383 340.675c-4.244-5.894.81-16.2 6.198-20.276 2.09 5.827 0 16.266-6.197 20.275zM307.17 333.266c-3.905-5.558-1.176-14.18 4.447-19.805 4.01 4.65.572 14.687-4.446 19.806zM316.637 325.856c-3.267-5.255.74-17.816 5.994-21.287 2.257 4.647.573 17.784-5.993 21.286zM324.146 323.87c-.943-7.51 12.192-15.83 17.548-15.594-.573 6.128-6.198 12.864-17.548 15.594zM316.803 332.355c6.198-6.33 18.155-6.33 22.397-5.018-1.11 3.706-15.255 11.756-22.397 5.018zM308.316 338.722c8.69-2.325 14.314-4.21 19.5 1.177-3.67 4.648-17.748 3.268-19.5-1.178zM295.923 344.348c8.32-4.447 18.39 2.12 19.905 5.927-9.262 3.872-20.074-4.952-19.905-5.927zM284.537 350.712c7.578-2.897 16.268.943 19.703 5.187-4.04 1.953-14.617 4.074-19.703-5.188zM274.166 353.978c8.69-.975 17.007 5.625 18.827 9.364-11.05 1.077-15.326-2.256-18.827-9.364zM271.37 360.546c-4.817-3.648-9.06-4.84-15.628-6.034-6.57-1.193-13.506-3.228-17.21-4.21-3.603-1.016 12.394 4.84 16.47 6 4.04 1.226 16.368 4.244 16.368 4.244zM244.93 350.274c1.38-8.252-1.886-16.94-9.43-20.41-1.684 5.996 3.672 16.166 9.43 20.41zM232.233 345.997c4.076-6.904-2.728-15.763-7.746-20.074-2.325 4.143 1.752 16.503 7.746 20.074zM220.412 340.675c4.31-5.894-.742-16.2-6.13-20.276-2.122 5.827 0 16.266 6.13 20.275zM208.657 333.266c3.873-5.558 1.18-14.18-4.412-19.805-4.007 4.65-.572 14.687 4.412 19.806zM199.228 325.856c3.334-5.255-.742-17.816-5.996-21.287-2.324 4.647-.573 17.784 5.996 21.286zM191.65 323.87c1.01-7.51-12.126-15.83-17.482-15.594.573 6.128 6.098 12.864 17.48 15.594zM199.06 332.355c-6.2-6.33-18.154-6.33-22.398-5.018 1.177 3.706 15.255 11.756 22.397 5.018zM207.546 338.722c-8.69-2.325-14.314-4.21-19.5 1.177 3.603 4.648 17.748 3.268 19.5-1.178zM219.872 344.348c-8.285-4.447-18.322 2.12-19.838 5.927 9.263 3.872 20.007-4.952 19.838-5.927zM231.222 350.712c-7.544-2.897-16.2.943-19.635 5.187 4.075 1.953 14.652 4.074 19.635-5.188zM241.73 353.978c-8.756-.975-17.074 5.625-18.86 9.364 11.115 1.077 15.36-2.256 18.86-9.364z"/></g><path d="M147.966 229.194s-2.412 3.146 1.685 11.114 1.155 17.164 5.57 20.106c4.413 2.943.184 8.778 5.24 12.664 5.057 3.887 18.346 12.83 27.518 13.877 9.172 1.045 18.082-8.222 23.374-1.382s4.136 11.66 9.128 12.193 4.992-1.675 4.625-4.985 3.31-12.504 11.77-12.504 17.422-1.007 31.7-6.39c14.278-5.38 21.266-7.955 23.105-16.415 1.84-8.46 7.068-18.46 17.143-13.827 10.076 4.633 9.398 2.46 12.495.236s13.482 4.208 15.83.808c2.348-3.4-18.377-20.224-17.21-29.1 1.167-8.875 3.962-16.247 12.496-16.975 8.534-.728 6.327-10.29 15.155-15.073 8.827-4.78 12.893-5.33 19.87-12.412s25.33-21.42 25.33-21.42-35.7 17.096-42.84 18.66c-7.14 1.563-10.088 11.862-29.95 17.38s-20.966 7.723-36.046 11.033c-13.58 2.983-44.26 1.98-62.408-3.842-2.503-.803-4.99 1.173-4.768 3.793.747 8.822.538 24.682-10.176 27.143 0 0-14.603-10.906-23.798-6.125-9.195 4.78-15.735 21.834-22.58 19.192-6.845-2.642-7.74-13.587-12.258-7.746z" fill="#FFC850"/></svg>