<svg xmlns="http://www.w3.org/2000/svg" viewBox="0 0 490.667 490.667" enable-background="new 0 0 490.667 490.667"><path d="M158.57 73.728l-21.332-36.95c-2.965-5.12-9.493-6.847-14.57-3.903-5.1 2.944-6.85 9.45-3.926 14.57l21.333 36.95c1.984 3.435 5.568 5.333 9.26 5.333 1.812 0 3.647-.47 5.332-1.43 5.098-2.965 6.848-9.47 3.904-14.57zM371.883 443.22l-21.333-36.948c-2.965-5.12-9.493-6.848-14.57-3.904-5.1 2.944-6.85 9.472-3.905 14.57l21.333 36.95c1.984 3.435 5.568 5.333 9.26 5.333 1.812 0 3.647-.447 5.31-1.428 5.1-2.944 6.85-9.472 3.905-14.57zM84.395 140.096l-36.95-21.333c-5.098-2.965-11.626-1.216-14.57 3.904-2.965 5.1-1.216 11.627 3.904 14.57l36.948 21.334c1.664.982 3.5 1.43 5.312 1.43 3.69 0 7.275-1.9 9.26-5.333 2.943-5.1 1.193-11.627-3.905-14.57zM453.888 353.43l-36.95-21.334c-5.098-2.965-11.626-1.216-14.57 3.904-2.944 5.1-1.195 11.627 3.904 14.57l36.95 21.334c1.684.98 3.52 1.43 5.332 1.43 3.69 0 7.275-1.9 9.237-5.334 2.946-5.1 1.197-11.627-3.902-14.57zM88.3 336c-2.966-5.12-9.516-6.87-14.593-3.904l-36.95 21.333c-5.098 2.943-6.847 9.47-3.903 14.57 1.984 3.435 5.568 5.333 9.26 5.333 1.812 0 3.647-.448 5.332-1.43l36.95-21.332c5.097-2.943 6.847-9.47 3.903-14.57zM457.792 122.667c-2.965-5.12-9.493-6.87-14.57-3.904l-36.95 21.333c-5.1 2.944-6.848 9.472-3.904 14.57 1.984 3.436 5.568 5.334 9.26 5.334 1.812 0 3.647-.448 5.31-1.43l36.95-21.332c5.1-2.945 6.848-9.473 3.904-14.57zM154.667 402.368c-5.1-2.944-11.627-1.216-14.57 3.904l-21.334 36.95c-2.944 5.098-1.195 11.626 3.904 14.57 1.685.98 3.52 1.43 5.333 1.43 3.67 0 7.253-1.9 9.237-5.334l21.333-36.95c2.945-5.098 1.195-11.626-3.903-14.57zM368 32.875c-5.1-2.944-11.627-1.216-14.57 3.904l-21.334 36.948c-2.944 5.1-1.195 11.627 3.904 14.57 1.685.982 3.52 1.43 5.333 1.43 3.67 0 7.253-1.92 9.237-5.333l21.333-36.95c2.945-5.098 1.196-11.626-3.903-14.57zM245.333 0c-5.888 0-10.667 4.78-10.667 10.667v42.667c0 5.888 4.78 10.667 10.667 10.667S256 59.22 256 53.334V10.667C256 4.78 251.22 0 245.333 0zM53.333 234.667H10.667C4.78 234.667 0 239.445 0 245.333S4.78 256 10.667 256h42.667C59.22 256 64 251.22 64 245.333s-4.78-10.666-10.667-10.666zM480 234.667h-42.667c-5.888 0-10.667 4.78-10.667 10.667S431.446 256 437.333 256H480c5.888 0 10.667-4.78 10.667-10.667s-4.78-10.666-10.667-10.666zM245.333 426.667c-5.888 0-10.667 4.78-10.667 10.667V480c0 5.888 4.78 10.667 10.667 10.667S256 485.887 256 480v-42.667c0-5.888-4.78-10.666-10.667-10.666zM245.333 0c-5.888 0-10.667 4.78-10.667 10.667v224h-224C4.78 234.667 0 239.445 0 245.333c0 135.275 110.06 245.333 245.333 245.333s245.333-110.06 245.333-245.333S380.608 0 245.333 0zm0 469.333c-119.936 0-218.155-94.74-223.744-213.333h223.743c5.888 0 10.667-4.78 10.667-10.667V21.59c118.592 5.567 213.333 103.807 213.333 223.743 0 123.52-100.48 224-224 224z" fill="#e9008b"/></svg>