<svg xmlns="http://www.w3.org/2000/svg" viewBox="0 0 55 55"><defs><style>.cls-1{fill:#ffffff;}</style></defs><title>i1</title><path class="cls-1" d="M49 0a6 6 0 0 0-5.27 8.86l-9.83 9.83a7.95 7.95 0 0 0-9.8 0L16.43 11A4 4 0 0 0 17 9a4 4 0 1 0-4 4 4 4 0 0 0 2-.57l7.67 7.67a7.95 7.95 0 0 0 0 9.8L10 42.56a5.94 5.94 0 1 0 1.25 1.58L24.1 31.31a8 8 0 0 0 3.9 1.62v10.16a6 6 0 1 0 2 0V32.93a8 8 0 0 0 3.9-1.62L41.57 39a3.94 3.94 0 0 0-.57 2 4 4 0 1 0 4-4 4 4 0 0 0-2 .57l-7.69-7.67a7.95 7.95 0 0 0 0-9.8L45 10.44A6 6 0 1 0 49 0zM11 9a2 2 0 1 1 2 2 2 2 0 0 1-2-2zM6 51a4 4 0 1 1 4-4 4 4 0 0 1-4 4zm27-2a4 4 0 1 1-4-4 4 4 0 0 1 4 4zm-4-18a6 6 0 1 1 6-6 6 6 0 0 1-6 6zm18 10a2 2 0 1 1-2-2 2 2 0 0 1 2 2zm2-31a4 4 0 1 1 4-4 4 4 0 0 1-4 4z" id="Capa_1"/></svg>