<svg xmlns="http://www.w3.org/2000/svg" viewBox="0 0 470 470" enable-background="new 0 0 470 470"><g fill="#fff"><path d="M430 65.524H265c-4.143 0-7.5 3.357-7.5 7.5s3.357 7.5 7.5 7.5h165c13.785 0 25 11.215 25 25v8.808c-6.854-5.504-15.546-8.808-25-8.808H242.5v-32.5c0-22.056-17.944-40-40-40H40c-22.056 0-40 17.944-40 40v356.45c0 4.144 3.357 7.5 7.5 7.5h455c4.143 0 7.5-3.356 7.5-7.5v-323.95c0-22.055-17.944-40-40-40zm25 356.452H15V73.024c0-13.785 11.215-25 25-25h162.5c13.785 0 25 11.215 25 25v40c0 4.143 3.357 7.5 7.5 7.5h195c13.785 0 25 11.215 25 25v276.452zM337.218 264.864c20.688 0 37.52-16.83 37.52-37.52s-16.832-37.517-37.52-37.517-37.518 16.83-37.518 37.518 16.83 37.52 37.518 37.52zm0-60.036c12.417 0 22.52 10.102 22.52 22.518 0 12.417-10.103 22.52-22.52 22.52-12.416 0-22.518-10.103-22.518-22.52 0-12.416 10.102-22.518 22.518-22.518zM337.218 279.864c-10.18 0-20.277 2.528-29.198 7.313-3.65 1.957-5.023 6.503-3.065 10.153 1.957 3.65 6.5 5.026 10.153 3.065 6.75-3.618 14.395-5.53 22.11-5.53 23.313 0 42.708 17.095 46.31 39.406h-46.31c-4.143 0-7.5 3.358-7.5 7.5s3.357 7.5 7.5 7.5h54.408c4.143 0 7.5-3.356 7.5-7.5 0-34.134-27.772-61.906-61.908-61.906zM133.448 334.27H86.473c3.602-22.31 22.997-39.406 46.31-39.406 7.715 0 15.36 1.912 22.106 5.53 3.65 1.96 8.197.585 10.152-3.066 1.958-3.65.585-8.196-3.065-10.153-8.92-4.783-19.015-7.31-29.194-7.31-34.137 0-61.908 27.77-61.908 61.906 0 4.144 3.357 7.5 7.5 7.5h55.074c4.142 0 7.5-3.356 7.5-7.5s-3.36-7.5-7.502-7.5zM132.782 264.864c20.688 0 37.518-16.83 37.518-37.52s-16.83-37.517-37.518-37.517-37.52 16.83-37.52 37.518 16.833 37.52 37.52 37.52zm0-60.036c12.416 0 22.518 10.102 22.518 22.518 0 12.417-10.102 22.52-22.518 22.52-12.417 0-22.52-10.103-22.52-22.52.002-12.416 10.103-22.518 22.52-22.518zM235 267.575c26.636 0 48.306-21.67 48.306-48.306s-21.67-48.307-48.306-48.307-48.306 21.67-48.306 48.306 21.67 48.305 48.306 48.305zm0-81.61c18.365 0 33.306 14.94 33.306 33.305s-14.94 33.306-33.306 33.306-33.306-14.94-33.306-33.306 14.94-33.306 33.306-33.306zM235 282.575c-44.917 0-81.46 36.543-81.46 81.46 0 4.144 3.357 7.5 7.5 7.5h147.92c4.144 0 7.5-3.356 7.5-7.5 0-44.917-36.542-81.46-81.46-81.46zm-66.04 73.96c3.736-33.13 31.928-58.96 66.04-58.96s62.305 25.83 66.04 58.96H168.96z"/></g></svg>