<svg xmlns="http://www.w3.org/2000/svg" viewBox="0 0 60 60" enable-background="new 0 0 60 60"><g fill="#fff"><path d="M10.5 6.125c-2.48 0-4.5 2.02-4.5 4.5s2.02 4.5 4.5 4.5 4.5-2.02 4.5-4.5-2.02-4.5-4.5-4.5zm0 7c-1.378 0-2.5-1.12-2.5-2.5s1.122-2.5 2.5-2.5 2.5 1.12 2.5 2.5-1.122 2.5-2.5 2.5z"/><circle cx="50" cy="9.125" r="1"/><circle cx="46" cy="9.125" r="1"/><circle cx="52" cy="12.125" r="1"/><circle cx="48" cy="12.125" r="1"/><circle cx="42" cy="9.125" r="1"/><circle cx="44" cy="12.125" r="1"/><circle cx="38" cy="9.125" r="1"/><circle cx="40" cy="12.125" r="1"/><circle cx="34" cy="9.125" r="1"/><circle cx="36" cy="12.125" r="1"/><path d="M10.5 25.125c-2.48 0-4.5 2.02-4.5 4.5s2.02 4.5 4.5 4.5 4.5-2.02 4.5-4.5-2.02-4.5-4.5-4.5zm0 7c-1.378 0-2.5-1.12-2.5-2.5s1.122-2.5 2.5-2.5 2.5 1.12 2.5 2.5-1.122 2.5-2.5 2.5zM10.5 44.125c-2.48 0-4.5 2.02-4.5 4.5s2.02 4.5 4.5 4.5 4.5-2.02 4.5-4.5-2.02-4.5-4.5-4.5zm0 7c-1.378 0-2.5-1.12-2.5-2.5s1.122-2.5 2.5-2.5 2.5 1.12 2.5 2.5-1.122 2.5-2.5 2.5zM60 16.517V4.733c0-2.54-2.067-4.608-4.608-4.608H4.608C2.068.125 0 2.192 0 4.733v11.783c0 1.47.703 2.764 1.777 3.608C.703 20.97 0 22.264 0 23.734v11.782c0 1.47.703 2.764 1.777 3.608C.703 39.97 0 41.264 0 42.734v11.782c0 2.54 2.067 4.608 4.608 4.608h27.875c2.682.494 5.622.75 8.517.75 8.672 0 17.816-2.25 18.895-6.553.067-.132.105-.284.105-.445v-27.75c0-.15-.037-.29-.096-.416-.347-1.465-1.648-2.698-3.562-3.686 2.086-.44 3.658-2.292 3.658-4.507zm-58 19V23.733c0-1.438 1.17-2.608 2.608-2.608h20.86c-1.81.97-3.037 2.17-3.372 3.584-.06.127-.096.265-.096.415v13H4.608C3.17 38.125 2 36.955 2 35.517zm22.626-6.137c.045.03.093.058.14.087.175.11.358.218.55.324.054.03.107.062.162.09.233.126.475.248.727.365.04.02.083.037.123.055.22.1.448.198.682.293l.206.083c.276.108.557.214.848.314l.048.016c.278.095.564.186.855.274l.236.07c.288.084.58.166.88.244l.07.02c.322.082.65.16.985.234.084.02.17.037.253.055.287.062.576.12.868.177.058.01.116.023.174.034.343.064.69.123 1.04.18l.252.038c.29.045.584.087.88.126l.243.032c.358.045.718.087 1.08.125.074.008.148.014.22.02.306.03.613.058.92.083l.278.022c.367.027.736.05 1.105.07l.158.007c.325.016.65.028.977.037l.295.008c.373.008.746.014 1.118.014s.745-.006 1.118-.014l.295-.008c.327-.01.652-.02.978-.037l.158-.007c.37-.02.738-.043 1.105-.07l.28-.022c.307-.024.613-.052.918-.082l.22-.02c.363-.04.723-.08 1.08-.126.082-.01.163-.02.244-.032.295-.04.59-.08.88-.126.084-.013.168-.025.25-.04.352-.055.7-.114 1.042-.178.06-.01.116-.023.174-.034.293-.056.582-.115.867-.177.085-.02.17-.037.253-.055.333-.075.663-.152.985-.235l.07-.02c.3-.076.592-.158.88-.243l.236-.07c.29-.088.576-.18.854-.274l.048-.016c.29-.1.573-.206.848-.314.07-.027.138-.055.206-.083.234-.095.46-.192.682-.293.04-.02.083-.036.123-.055.253-.117.494-.24.728-.364l.163-.09c.19-.104.374-.212.55-.323.047-.03.095-.057.14-.087.207-.134.403-.272.59-.414.01-.01.025-.017.037-.026v4.988c-.024.116-.04.234-.02.353.013.074.023.146.023.22 0 .11-.03.222-.058.333-.02.086-.048.173-.084.26-.032.074-.072.15-.116.225-.043.075-.09.15-.144.226-.077.104-.164.208-.263.312-.037.04-.074.08-.114.12-2.116 2.048-8.363 3.898-16.22 3.898-7.85 0-14.094-1.848-16.215-3.895-.044-.045-.084-.088-.124-.132-.093-.1-.178-.2-.252-.3-.057-.08-.107-.158-.152-.238-.04-.07-.08-.142-.11-.214-.04-.09-.066-.18-.088-.27-.027-.11-.058-.218-.058-.326 0-.07.01-.142.02-.212.022-.13.01-.26-.02-.385V28.94l.038.025c.185.142.38.28.588.415zm33.23 14.712c-.03.075-.07.15-.115.226-.042.075-.09.15-.143.226-.077.104-.164.208-.263.312-.037.04-.074.08-.114.12-2.117 2.048-8.364 3.898-16.22 3.898-7.85 0-14.095-1.848-16.216-3.895-.044-.045-.084-.088-.124-.132-.094-.1-.18-.2-.253-.3-.057-.08-.107-.158-.152-.238-.04-.07-.08-.142-.11-.214-.04-.09-.066-.18-.088-.27-.023-.095-.047-.19-.05-.284v-.12c.004-.045.006-.09.013-.135.014-.086-.005-.17-.014-.255L24 38.125v-.186c.04.03.087.06.13.09.125.093.257.185.392.276.11.073.224.145.34.217.18.11.36.22.55.324.003 0 .005.002.006.003 2.086 1.137 4.954 1.958 8.125 2.455l.072.01c1.023.16 2.073.284 3.14.375.228.02.454.04.683.055.223.016.446.03.67.042.302.017.604.032.906.044.176.008.352.016.53.02.486.015.972.025 1.457.025.485 0 .97-.01 1.456-.023.178-.005.355-.013.533-.02.3-.012.598-.026.897-.043.226-.014.45-.028.676-.044.225-.016.447-.035.67-.054 1.08-.09 2.14-.217 3.17-.377l.047-.007c3.465-.542 6.564-1.473 8.68-2.78.116-.07.23-.14.34-.214.134-.09.266-.182.39-.276.046-.033.097-.064.14-.098v4.988c-.023.116-.04.234-.02.353.01.074.02.146.02.22 0 .11-.03.222-.058.333-.022.086-.048.173-.085.26zM4.61 57.125C3.17 57.125 2 55.955 2 54.517V42.733c0-1.438 1.17-2.608 2.608-2.608H22v13.75h.296c.016.037.04.073.057.11.035.075.074.148.114.222.082.148.175.294.278.438.102.145.217.285.34.424.06.07.123.138.19.207.383.395.843.765 1.374 1.11.017.013.036.025.055.037.384.247.8.48 1.248.702H4.608zM58 52.62c-.008.03-.015.062-.02.093-.41 2.493-7.33 5.162-16.98 5.162-3.08 0-5.875-.273-8.276-.724v-.007c-4.972-.94-7.724-2.53-8.494-3.87l-.002-.004c-.035-.063-.06-.124-.087-.184-.05-.125-.1-.25-.12-.373l-.008-5.765c.036.028.08.054.116.082.126.094.258.186.393.277.11.073.225.145.34.217.18.11.36.22.552.324.002 0 .004.002.005.003 2.086 1.138 4.954 1.96 8.125 2.456l.072.01c1.023.16 2.073.284 3.14.375.228.02.454.04.683.056.223.016.446.03.67.042.302.017.604.032.906.044.176.007.352.015.53.02.486.014.972.024 1.457.024.484 0 .97-.01 1.455-.023.178-.005.355-.013.533-.02.3-.012.6-.026.898-.043.226-.013.45-.027.676-.043.225-.016.447-.035.67-.054 1.08-.09 2.14-.217 3.17-.377l.047-.007c3.464-.543 6.563-1.474 8.68-2.78.115-.07.23-.142.338-.215.135-.09.267-.182.392-.276.045-.034.096-.065.14-.1v5.68zm0-27.12c0 2.537-7.27 5.375-17 5.375S24 28.037 24 25.5c0-.128.03-.258.068-.388.04-.13.094-.26.174-.397l.01-.018c.332-.556 1.003-1.154 2.036-1.73l.134-.073c.177-.096.364-.19.56-.285.23-.108.465-.215.717-.318l.15-.06c1.162-.464 2.562-.875 4.138-1.21.493-.105.995-.203 1.51-.29l.41-.068c4.478-.69 9.7-.69 14.178 0 .14.022.277.047.416.07.513.085 1.012.182 1.5.286C54.88 22.058 58 23.84 58 25.5zm0-8.983c0 1.438-1.17 2.608-2.608 2.608h-4.63c-.058-.013-.122-.02-.18-.034-.656-.14-1.33-.268-2.02-.378l-.202-.03c-2.36-.368-4.88-.557-7.36-.557-2.48 0-4.997.19-7.358.556l-.206.032c-.688.11-1.36.237-2.015.378-.058.013-.124.02-.183.034H4.607C3.17 19.124 2 17.954 2 16.517V4.733c0-1.438 1.17-2.608 2.608-2.608H55.39c1.44 0 2.61 1.17 2.61 2.608v11.784z"/></g></svg>