<svg xmlns="http://www.w3.org/2000/svg" viewBox="0 0 427.962 427.962" enable-background="new 0 0 427.962 427.962"><g fill="#fff"><path d="M400.017 372.607l-34.78-45.402V192.868c0-66.207-42.49-122.532-101.586-143.548C263.44 22.092 241.277 0 213.996 0c-26.945 0-48.808 21.58-49.532 48.35-60.47 20.257-104.215 77.323-104.215 144.518v134.496l-32.486 45.49c-2.03 2.824-2.294 6.548-.706 9.653 1.606 3.106 4.8 5.047 8.276 5.047h129.925c4.358 22.975 24.528 40.41 48.737 40.41s44.38-17.435 48.755-40.41h129.924c3.53 0 6.758-1.994 8.293-5.17 1.573-3.177 1.202-6.954-.95-9.777zM213.995 18.58c15.122 0 27.72 10.853 30.492 25.18-10.252-2.187-20.857-3.37-31.745-3.37-9.97 0-19.71 1.024-29.15 2.86 2.982-14.064 15.457-24.67 30.403-24.67zm0 390.8c-13.887 0-25.533-9.228-29.504-21.827h59.026c-3.97 12.6-15.634 21.828-29.52 21.828zM53.402 368.973l23.734-33.227c1.13-1.57 1.73-3.46 1.73-5.4V192.868c0-73.83 60.065-133.896 133.895-133.896s133.897 60.066 133.897 133.896v137.478c0 2.047.67 4.023 1.923 5.664l25.25 32.962H53.403zM316.658 313.706H111.35c-5.135 0-9.3 4.147-9.3 9.282s4.165 9.3 9.3 9.3h205.308c5.135 0 9.282-4.165 9.3-9.3 0-5.118-4.165-9.282-9.3-9.282zM111.35 220.307c.265 0 .547 0 .83-.035 5.116-.46 8.892-4.976 8.434-10.093-.3-3.442-6.705-84.242 64.742-101.534 4.994-1.2 8.064-6.23 6.847-11.205-1.2-4.993-6.21-8.063-11.223-6.846-86.835 20.998-78.965 120.256-78.876 121.26.423 4.818 4.482 8.453 9.246 8.453z"/></g></svg>