<svg xmlns="http://www.w3.org/2000/svg" viewBox="0 0 57.38 51.47"><defs><style>.cls-1{fill:#ffffff;}</style></defs><title>i3</title><g id="Layer_1-2"><path class="cls-1" d="M52.37 0H40.19a1.26 1.26 0 0 0 0 2.52h12.18A2.5 2.5 0 0 1 54.87 5v31.34a2.5 2.5 0 0 1-2.5 2.5H5a2.5 2.5 0 0 1-2.5-2.5V5A2.5 2.5 0 0 1 5 2.52h36.4a1.26 1.26 0 0 0 0-2.52H5a5 5 0 0 0-5 5v31.34a5 5 0 0 0 5 5h22.43v7.58H17a1.26 1.26 0 1 0 0 2.52h23.42a1.26 1.26 0 1 0 0-2.52H29.94v-7.56h22.42a5 5 0 0 0 5-5V5a5 5 0 0 0-4.99-5zM17.35 12.72a4 4 0 0 0 3.92-3.4h22.16a.57.57 0 1 0 0-1.13H21.27a4 4 0 1 0-3.92 4.54zm0-6.81a2.84 2.84 0 1 1-2.84 2.84 2.84 2.84 0 0 1 2.84-2.83zM40 28.6a4 4 0 0 0-3.89 3.4H13.94a.57.57 0 0 0 0 1.13h22.17A4 4 0 1 0 40 28.6zm0 6.81a2.84 2.84 0 1 1 2.84-2.84A2.84 2.84 0 0 1 40 35.41zM43.43 20.09H32.87a4.09 4.09 0 0 0-8.12 0H13.94a.57.57 0 0 0 0 1.13h10.84a4.08 4.08 0 0 0 8.05 0h10.6a.57.57 0 1 0 0-1.13zM28.81 23.5a3 3 0 1 1 3-3 3 3 0 0 1-3 3z"/></g></svg>