<svg xmlns="http://www.w3.org/2000/svg" viewBox="0 0 512 512" enable-background="new 0 0 512 512"><path fill="#fff" d="M501.8 466.153H61.145l55.608-61.873c4.883 2.59 10.446 4.062 16.348 4.062 13.586 0 25.382-7.78 31.188-19.115l56.818 14.347c1.503 17.938 16.574 32.078 34.895 32.078 19.315 0 35.028-15.713 35.028-35.027 0-10.65-4.784-20.2-12.31-26.63l46.335-110.74 32.997 84.142c-7.887 6.43-12.936 16.213-12.936 27.157 0 19.314 15.714 35.027 35.028 35.027s35.027-15.712 35.027-35.026c0-3.946-.667-7.738-1.876-11.28l40.474-40.476c3.983-3.983 3.983-10.44 0-14.425-3.983-3.982-10.44-3.982-14.424 0l-38.182 38.182c-5.86-4.41-13.14-7.03-21.023-7.03-1.083 0-2.152.057-3.21.154L336.36 236.22l40.756-97.41c.997.087 2.003.14 3.022.14 16.22 0 29.893-11.08 33.86-26.07h64.21c5.634 0 10.2-4.567 10.2-10.2 0-5.63-4.566-10.198-10.2-10.198h-64.97c-4.753-13.712-17.79-23.588-33.1-23.588-19.313 0-35.027 15.713-35.027 35.028 0 11.01 5.113 20.845 13.082 27.272l-32.53 77.746-47.52-121.177c7.14-6.417 11.64-15.717 11.64-26.05 0-19.316-15.713-35.03-35.027-35.03S219.73 42.4 219.73 61.716c0 8.355 2.946 16.035 7.847 22.062l-84.08 127.394c-3.644-1.287-7.56-1.995-11.64-1.995-4.185 0-8.2.74-11.922 2.092L47.71 116.232V12.062c0-5.632-4.567-10.2-10.2-10.2s-10.2 4.568-10.2 10.2V112.35H10.2C4.565 112.347 0 116.915 0 122.547c0 5.632 4.566 10.2 10.2 10.2h17.11v102.5H10.2c-5.634 0-10.2 4.568-10.2 10.2s4.566 10.2 10.2 10.2h17.11v104.985H10.2c-5.634 0-10.2 4.567-10.2 10.2 0 5.63 4.566 10.198 10.2 10.198h17.11v95.322c0 5.632 4.567 10.2 10.2 10.2h87.873v13.386c0 5.632 4.566 10.2 10.2 10.2 5.632 0 10.198-4.568 10.198-10.2V486.55h102.503v13.388c0 5.632 4.566 10.2 10.2 10.2s10.198-4.568 10.198-10.2V486.55h104.985v13.388c0 5.632 4.566 10.2 10.2 10.2s10.198-4.568 10.198-10.2V486.55h107.735c5.633 0 10.2-4.566 10.2-10.198s-4.564-10.2-10.197-10.2zM380.144 359.926c8.065 0 14.63 6.563 14.63 14.63 0 8.065-6.564 14.63-14.63 14.63-8.067 0-14.63-6.564-14.63-14.63 0-8.067 6.563-14.63 14.63-14.63zm0-270.63c8.066 0 14.628 6.564 14.628 14.63 0 8.068-6.562 14.63-14.628 14.63-8.067 0-14.63-6.562-14.63-14.63 0-8.066 6.563-14.63 14.63-14.63zM133.1 387.944c-8.067 0-14.63-6.563-14.63-14.63 0-8.066 6.564-14.63 14.63-14.63s14.63 6.564 14.63 14.63c-.002 8.068-6.564 14.63-14.63 14.63zm122.9 27.31c-8.067 0-14.63-6.562-14.63-14.628 0-8.067 6.564-14.63 14.63-14.63s14.63 6.563 14.63 14.63c0 8.066-6.563 14.63-14.63 14.63zM254.76 47.09c8.066 0 14.63 6.562 14.63 14.63s-6.564 14.63-14.63 14.63-14.63-6.564-14.63-14.63 6.562-14.63 14.63-14.63zM131.856 229.577c8.068 0 14.63 6.562 14.63 14.63s-6.563 14.63-14.63 14.63-14.63-6.564-14.63-14.63c.002-8.067 6.565-14.63 14.63-14.63zm-84.147-79.63l55.91 73.566c-4.263 5.802-6.79 12.957-6.79 20.692 0 19.315 15.714 35.028 35.028 35.028s35.028-15.713 35.028-35.028c0-7.832-2.584-15.07-6.945-20.91l84.54-128.09c3.252 1 6.703 1.54 10.278 1.54 1.65 0 3.272-.123 4.862-.345l54.735 139.575-54.336 129.86c-1.32-.15-2.66-.238-4.02-.238-13.146 0-24.618 7.282-30.608 18.02l-57.53-14.527c-2.093-17.328-16.88-30.805-34.764-30.805-19.314 0-35.027 15.713-35.027 35.027 0 5.995 1.517 11.642 4.183 16.58l-54.543 60.69V149.95zM488.53 272.375c-3.984-3.983-10.442-3.983-14.425 0l-8.07 8.07c-3.983 3.984-3.983 10.44 0 14.425 1.992 1.99 4.602 2.987 7.212 2.987 2.61 0 5.22-.996 7.212-2.987l8.07-8.07c3.98-3.984 3.98-10.44 0-14.425z"/></svg>