<svg xmlns="http://www.w3.org/2000/svg" viewBox="0 0 512 512" enable-background="new 0 0 512 512"><g fill="#fff"><path d="M116.426 100.182h195.57c6.3 0 11.408-5.107 11.408-11.408s-5.107-11.408-11.408-11.408h-195.57c-6.3 0-11.408 5.107-11.408 11.408s5.107 11.408 11.408 11.408zM68.513 100.182h2.852c6.3 0 11.408-5.107 11.408-11.408s-5.107-11.408-11.408-11.408h-2.852c-6.3 0-11.408 5.107-11.408 11.408s5.108 11.408 11.408 11.408zM68.513 145.813h243.482c6.3 0 11.408-5.107 11.408-11.408s-5.107-11.408-11.408-11.408H68.513c-6.3 0-11.408 5.107-11.408 11.408s5.108 11.408 11.408 11.408zM68.513 191.444h243.482c6.3 0 11.408-5.107 11.408-11.408s-5.107-11.408-11.408-11.408H68.513c-6.3 0-11.408 5.107-11.408 11.408s5.108 11.408 11.408 11.408zM184.302 214.26h-4.562c-6.3 0-11.408 5.106-11.408 11.407 0 6.3 5.107 11.408 11.408 11.408h4.562c6.3 0 11.408-5.107 11.408-11.408 0-6.3-5.11-11.408-11.408-11.408zM68.513 237.075h71.583c6.3 0 11.408-5.107 11.408-11.408 0-6.3-5.107-11.408-11.408-11.408H68.513c-6.3 0-11.408 5.106-11.408 11.407 0 6.3 5.108 11.408 11.408 11.408zM505.696 41.443c-3.155-11.773-10.705-21.613-21.26-27.707-21.79-12.58-49.753-5.088-62.333 16.702l-46.322 80.234V11.408c0-6.3-5.106-11.408-11.407-11.408H16.137C9.837 0 4.73 5.107 4.73 11.408v401.345c0 3.025 1.202 5.927 3.34 8.066l87.84 87.838c2.14 2.14 5.04 3.34 8.066 3.34H364.37c6.3 0 11.41-5.106 11.41-11.407V293.195L501.136 76.07c6.095-10.557 7.713-22.854 4.56-34.627zM92.57 473.053L43.677 424.16h48.89v48.892zm260.397 16.132H115.385v-76.432c0-6.3-5.107-11.408-11.408-11.408H27.545V22.815h325.42v127.373l-36.993 64.07h-90.89c-6.3 0-11.408 5.107-11.408 11.408 0 6.3 5.107 11.408 11.408 11.408H302.8l-13.172 22.815H68.513c-6.3 0-11.408 5.106-11.408 11.407s5.107 11.408 11.408 11.408h207.942l-13.172 22.815H68.513c-6.3 0-11.408 5.107-11.408 11.408 0 6.3 5.107 11.408 11.408 11.408H250.11l-24.79 42.94c-.905 1.565-1.38 3.255-1.493 4.943-.002.028-.014.047-.015.077l-4.585 76.388c-.26 4.313 1.942 8.403 5.683 10.562 1.46.844 3.062 1.316 4.682 1.463.274.042 83.807.066 83.807.066 6.3 0 11.407-5.107 11.407-11.408S319.7 441.96 313.4 441.96h-44.804l32.165-21.238c.027-.017.04-.04.065-.057 1.434-.962 2.65-2.236 3.53-3.76l48.61-84.195v156.475zm-80.182-77.332l-29.418 19.423 2.113-35.188 27.305 15.765zM290.3 395.62l-19.76-11.41-19.758-11.407L396.23 120.88l39.516 22.815L290.3 395.62zm156.855-271.682l-39.517-22.815 14.26-24.7 39.517 22.816-14.26 24.698zm34.223-59.277l-8.556 14.82-39.517-22.814 8.556-14.82c6.29-10.894 20.272-14.64 31.168-8.35 5.277 3.047 9.053 7.967 10.63 13.854 1.577 5.885.767 12.033-2.28 17.31z"/></g></svg>